<svg width="1570" height="222" viewBox="0 0 1570 222" fill="none" xmlns="http://www.w3.org/2000/svg">
<path fill-rule="evenodd" clip-rule="evenodd" d="M8.00036 116.014C8.61529 115.473 9.40674 115.202 10.1099 115.202C11.429 115.202 12.7476 115.834 14.0662 116.916L14.6816 117.457L16.4396 114.931L15.9998 114.48C14.3296 113.037 12.5716 112.315 10.5493 112.315C9.05467 112.315 7.64828 112.857 6.2419 113.759C4.83552 114.751 3.95629 116.013 3.69247 117.547C3.34088 119.17 3.69247 120.613 4.83552 121.696C5.53871 122.418 6.68176 123.049 8.35196 123.77C9.58278 124.311 10.3738 124.762 10.7253 125.124C11.1652 125.665 11.3408 126.385 11.1652 127.288C10.9892 128.19 10.5498 128.912 9.75834 129.362C9.05515 129.904 8.2637 130.084 7.47273 130.084C5.62649 130.084 4.04455 129.272 2.63721 127.468L2.19783 126.838L0 129.272L0.439854 129.723C1.14305 130.626 2.10957 131.348 3.3404 131.978C4.65948 132.61 5.88983 132.971 7.12065 132.971C8.70307 132.971 10.1095 132.52 11.4281 131.527C12.9222 130.535 13.8897 129.182 14.1535 127.468C14.5929 125.665 14.1535 124.221 13.0105 123.049C12.3951 122.418 11.1642 121.696 9.40578 120.974H9.318C7.29621 120.072 6.41698 119.08 6.59254 117.998C6.76954 117.186 7.20939 116.465 8.00036 116.014ZM26.198 107.083H23.2092L21.9783 112.766H17.9347L17.3193 115.562H21.3634L19.1656 126.296C18.6379 128.731 18.814 130.535 19.781 131.618C20.3964 132.519 21.5394 132.971 23.0341 132.971C25.7591 132.971 28.1329 131.437 30.2425 128.37L30.8579 127.468L27.8691 126.747L27.6053 127.197C26.2862 129.091 24.8803 130.084 23.3857 130.084C22.7703 130.084 22.3304 129.993 22.0666 129.633C21.8028 129.272 21.715 128.55 21.9783 127.558L24.44 115.561H30.9457L31.5611 112.765H24.9671L26.198 107.083ZM46.5934 114.3C45.5386 112.947 44.1313 112.315 42.286 112.315C39.6483 112.315 37.3627 113.487 35.5164 115.653C33.934 117.547 32.8792 119.892 32.3516 122.598C31.4724 126.206 31.9117 128.912 33.4064 130.896C34.549 132.249 36.1319 132.971 38.2414 132.971C40.0877 132.971 42.4606 132.429 45.186 131.258L45.8015 130.987L45.0978 127.92L44.3073 128.371C42.1977 129.544 40.2632 130.085 38.593 130.085C37.3622 130.085 36.4834 129.724 35.9558 129.092C35.0766 128.1 34.8128 126.296 35.1644 123.68H47.3839L47.5599 123.049C48.3509 119.08 47.9993 116.104 46.5934 114.3ZM41.8452 115.202C42.8131 115.202 43.6036 115.562 44.219 116.374C45.0105 117.457 45.2738 118.9 44.9227 120.794H35.7798C36.2196 119.26 37.0106 117.998 38.0659 116.915C39.2967 115.833 40.527 115.202 41.8452 115.202ZM59.2518 112.315C57.4943 112.315 55.9109 112.947 54.5928 114.209V112.226L51.6035 112.676V113.398C51.7795 115.202 51.6035 117.367 51.0759 119.712L46.8562 139.917H49.9338L51.603 131.979C52.6974 132.633 53.9418 132.975 55.2082 132.972C57.054 132.972 58.9002 132.16 60.5709 130.717C62.7687 128.822 64.1751 126.297 64.8783 122.96C65.6688 119.261 65.3177 116.465 63.7352 114.481C62.5927 113.037 61.0985 112.315 59.2518 112.315ZM54.329 118.449C55.8241 116.284 57.3182 115.202 58.9007 115.202C59.8677 115.202 60.6591 115.653 61.2736 116.374C62.3284 117.637 62.4166 119.712 61.889 122.508C61.2736 125.665 60.0432 127.829 58.1087 129.092C57.1417 129.723 56.0869 130.085 55.0322 130.085C54.0652 130.085 53.0986 129.634 52.2189 128.732L54.329 118.449ZM74.5488 120.975C72.4393 120.073 71.4713 119.08 71.7356 117.998C71.9116 117.187 72.351 116.465 73.0537 116.014C73.7574 115.473 74.4611 115.202 75.2515 115.202C76.5706 115.202 77.8888 115.834 79.2078 116.916L79.8232 117.457L81.5817 114.931L81.1423 114.48C79.4721 113.037 77.6254 112.315 75.6919 112.315C74.1968 112.315 72.7904 112.857 71.3835 113.759C69.9771 114.751 69.0984 116.013 68.8346 117.547C68.4835 119.17 68.8346 120.613 70.0654 121.696C70.6808 122.327 71.8239 123.049 73.4941 123.77L75.867 125.124C76.3063 125.665 76.4824 126.385 76.3063 127.288C76.1313 128.19 75.6036 128.912 74.9 129.362C74.1963 129.904 73.4058 130.084 72.6139 130.084C70.7681 130.084 69.1862 129.272 67.8671 127.468L67.3394 126.838L65.2299 129.272L65.581 129.723C66.2847 130.626 67.2512 131.348 68.4825 131.978C69.7133 132.61 71.0314 132.971 72.2627 132.971C73.8452 132.971 75.2511 132.52 76.5702 131.527C78.0643 130.535 79.0313 129.182 79.2956 127.468C79.735 125.665 79.2956 124.221 78.2408 123.049C77.5372 122.418 76.3063 121.696 74.5488 120.975Z" fill="#00B307"/>
<line x1="162.319" y1="105" x2="162.319" y2="137" stroke="#E6E6E6"/>
<path fill-rule="evenodd" clip-rule="evenodd" d="M243.505 111.629H247.711C247.334 111.366 246.625 111.03 245.457 111.03C244.612 111.03 243.979 111.272 243.505 111.629ZM248.417 111.629H252.816C252.298 111.272 251.572 111.03 250.559 111.03C249.488 111.03 248.796 111.366 248.417 111.629ZM242.911 112.229H253.445C253.268 111.996 253.055 111.793 252.816 111.629H248.417C248.172 111.799 248.058 111.939 248.058 111.939C248.058 111.939 247.953 111.799 247.711 111.629H243.505C243.28 111.799 243.081 112.001 242.911 112.229Z" fill="#CCCCCC"/>
<path fill-rule="evenodd" clip-rule="evenodd" d="M242.56 112.807H253.787C253.695 112.602 253.581 112.408 253.445 112.229H242.911C242.772 112.415 242.656 112.612 242.56 112.807Z" fill="#CCCCCC"/>
<path fill-rule="evenodd" clip-rule="evenodd" d="M242.318 113.406H253.991C253.94 113.2 253.872 112.999 253.786 112.807H242.559C242.459 113.01 242.38 113.214 242.318 113.406ZM242.166 114.005H244.853C245.026 113.799 245.311 113.613 245.777 113.613C246.243 113.613 246.508 113.8 246.659 114.005H249.637C249.812 113.799 250.103 113.613 250.577 113.613C251.026 113.613 251.293 113.8 251.452 114.005H254.089C254.071 113.803 254.038 113.603 253.99 113.406H242.318C242.256 113.602 242.205 113.803 242.166 114.005Z" fill="#CCCCCC"/>
<path fill-rule="evenodd" clip-rule="evenodd" d="M242.096 114.584H244.597V114.543C244.597 114.543 244.639 114.26 244.853 114.006H242.166C242.105 114.329 242.096 114.543 242.096 114.543V114.584ZM246.857 114.584H249.378V114.543C249.378 114.543 249.421 114.26 249.637 114.006H246.66C246.772 114.163 246.841 114.349 246.858 114.543V114.584H246.857ZM251.678 114.584H254.099V114.543C254.099 114.543 254.118 114.328 254.09 114.006H251.453C251.648 114.26 251.678 114.543 251.678 114.543V114.584ZM242.095 115.183H244.597V114.584H242.096L242.095 115.183ZM246.857 115.183H249.378V114.584H246.857V115.183ZM251.678 115.183H254.099V114.584H251.678V115.183Z" fill="#CCCCCC"/>
<path fill-rule="evenodd" clip-rule="evenodd" d="M242.094 115.783H244.598V115.184H242.096L242.094 115.783ZM246.858 115.783H249.379V115.184H246.858V115.783ZM251.679 115.783H254.1V115.184H251.679V115.783ZM242.093 116.362H244.597V115.783H242.094L242.093 116.362ZM246.858 116.362H249.379V115.783H246.858V116.362ZM251.679 116.362H254.1V115.783H251.679V116.362Z" fill="#CCCCCC"/>
<path fill-rule="evenodd" clip-rule="evenodd" d="M242.092 116.96H244.598V116.361H242.093L242.092 116.96ZM246.858 116.96H249.379V116.361H246.858V116.96ZM251.679 116.96H254.1V116.361H251.679V116.96ZM242.091 117.539H244.598V116.96H242.092L242.091 117.539ZM246.858 117.539H249.379V116.96H246.858V117.539ZM251.679 117.539H254.1V116.96H251.679V117.539Z" fill="#CCCCCC"/>
<path fill-rule="evenodd" clip-rule="evenodd" d="M242.089 118.139H244.597V117.539H242.09L242.089 118.139ZM246.858 118.139H249.379V117.539H246.858V118.139ZM251.679 118.139H254.1V117.539H251.679V118.139ZM242.088 118.738H244.597V118.139H242.089L242.088 118.738ZM246.858 118.738H249.379V118.139H246.858V118.738ZM251.679 118.738H254.1V118.139H251.679V118.738Z" fill="#CCCCCC"/>
<path fill-rule="evenodd" clip-rule="evenodd" d="M242.087 119.316H244.598V118.737H242.088L242.087 119.316ZM246.858 119.316H249.379V118.737H246.858V119.316ZM251.679 119.316H254.1V118.737H251.679V119.316Z" fill="#CCCCCC"/>
<path fill-rule="evenodd" clip-rule="evenodd" d="M242.085 119.915H244.597V119.316H242.086L242.085 119.915ZM246.857 119.915H249.378V119.316H246.857V119.915ZM251.678 119.915H254.099V119.316H251.678V119.915Z" fill="#CCCCCC"/>
<path fill-rule="evenodd" clip-rule="evenodd" d="M242.084 120.514H244.597V119.915H242.086L242.084 120.514ZM246.858 120.514H249.379V119.915H246.858V120.514ZM251.679 120.514H254.1V119.915H251.679V120.514Z" fill="#CCCCCC"/>
<path fill-rule="evenodd" clip-rule="evenodd" d="M242.083 121.093H244.597V120.514H242.084L242.083 121.093ZM246.858 121.093H249.379V120.514H246.858V121.093ZM251.679 121.093H254.1V120.514H251.679V121.093ZM242.082 121.692H244.597V121.093H242.083L242.082 121.692ZM246.858 121.692H249.379V121.093H246.858V121.692ZM251.679 121.692H254.1V121.093H251.679V121.692ZM242.08 122.291H244.597V121.692H242.082L242.08 122.291ZM246.858 122.291H249.379V121.692H246.858V122.291ZM251.679 122.291H254.1V121.692H251.679V122.291Z" fill="#CCCCCC"/>
<path fill-rule="evenodd" clip-rule="evenodd" d="M242.078 122.87H244.596V122.292H242.079L242.078 122.87ZM246.857 122.87H249.378V122.292H246.857V122.87ZM251.678 122.87H254.099V122.292H251.678V122.87ZM242.077 123.469H244.596V122.87H242.078L242.077 123.469ZM246.857 123.469H249.378V122.87H246.857V123.469ZM251.678 123.469H254.099V122.87H251.678V123.469Z" fill="#CCCCCC"/>
<path fill-rule="evenodd" clip-rule="evenodd" d="M242.076 124.068H244.597V123.469H242.078L242.076 124.068ZM246.857 124.068H249.378V123.469H246.857V124.068ZM251.678 124.068H254.099V123.469H251.678V124.068Z" fill="#CCCCCC"/>
<path fill-rule="evenodd" clip-rule="evenodd" d="M242.075 124.646H244.597V124.068H242.077L242.075 124.646ZM246.858 124.646H249.379V124.068H246.858V124.646ZM251.679 124.646H254.099V124.068H251.679V124.646ZM242.074 125.246H244.597V124.646H242.075L242.074 125.246ZM246.858 125.246H249.379V124.646H246.858V125.246ZM251.679 125.246H254.099V124.646H251.679V125.246Z" fill="#CCCCCC"/>
<path fill-rule="evenodd" clip-rule="evenodd" d="M242.073 125.825H244.597V125.246H242.074L242.073 125.825ZM246.858 125.825H249.379V125.246H246.858V125.825ZM251.679 125.825H254.099V125.246H251.679V125.825ZM242.071 126.424H244.597V125.825H242.073L242.071 126.424ZM246.858 126.424H249.379V125.825H246.858V126.424ZM251.679 126.424H254.099V125.825H251.679V126.424ZM242.07 127.023H244.597V126.424H242.071L242.07 127.023ZM246.858 127.023H249.379V126.424H246.858V127.023ZM251.679 127.023H254.099V126.424H251.679V127.023Z" fill="#CCCCCC"/>
<path fill-rule="evenodd" clip-rule="evenodd" d="M242.069 127.602H244.597V127.023H242.07L242.069 127.602ZM246.858 127.602H249.378V127.023H246.858V127.602ZM251.679 127.602H254.099V127.023H251.679V127.602ZM242.067 128.201H244.597V127.602H242.068L242.067 128.201ZM246.858 128.201H249.378V127.602H246.858V128.201ZM251.679 128.201H254.099V127.602H251.679V128.201Z" fill="#CCCCCC"/>
<path fill-rule="evenodd" clip-rule="evenodd" d="M242.066 128.8H244.597V128.201H242.067L242.066 128.8ZM246.857 128.8H249.378V128.201H246.857V128.8ZM251.678 128.8H254.099V128.201H251.678V128.8ZM242.064 129.379H244.597V128.801H242.066L242.064 129.379ZM246.857 129.379H249.378V128.801H246.857V129.379ZM251.678 129.379H254.099V128.801H251.678V129.379Z" fill="#CCCCCC"/>
<path fill-rule="evenodd" clip-rule="evenodd" d="M242.064 129.978H244.598V129.379H242.066L242.064 129.978ZM246.858 129.978H249.379V129.379H246.858V129.978ZM251.679 129.978H254.1V129.379H251.679V129.978Z" fill="#CCCCCC"/>
<path fill-rule="evenodd" clip-rule="evenodd" d="M242.063 130.577H244.597V129.978H242.064L242.063 130.577ZM246.858 130.577H249.379V129.978H246.858V130.577ZM251.679 130.577H254.1V129.978H251.679V130.577ZM242.062 131.155H244.597V130.577H242.063L242.062 131.155ZM246.858 131.155H249.379V130.577H246.858V131.155ZM251.679 131.155H254.1V130.577H251.679V131.155Z" fill="#CCCCCC"/>
<path fill-rule="evenodd" clip-rule="evenodd" d="M242.06 131.755H244.597V131.155H242.061L242.06 131.755ZM246.858 131.755H249.378V131.155H246.858V131.755ZM251.678 131.755H254.099V131.155H251.678V131.755ZM242.059 132.354H244.597V131.755H242.06L242.059 132.354ZM246.858 132.354H249.378V131.755H246.858V132.354ZM251.678 132.354H254.099V131.755H251.678V132.354ZM242.058 132.933H244.597V132.354H242.059L242.058 132.933ZM246.858 132.933H249.378V132.354H246.858V132.933ZM251.678 132.933H254.099V132.354H251.678V132.933Z" fill="#CCCCCC"/>
<path fill-rule="evenodd" clip-rule="evenodd" d="M242.057 133.531H244.597V132.933H242.058L242.057 133.531ZM246.858 133.531H249.379V132.933H246.858V133.531ZM251.679 133.531H254.099V132.933H251.679V133.531Z" fill="#CCCCCC"/>
<path fill-rule="evenodd" clip-rule="evenodd" d="M272.725 110.782H273.055L272.725 110.183V110.782ZM272.725 111.402H273.397L273.055 110.782H272.725V111.402Z" fill="#CCCCCC"/>
<path fill-rule="evenodd" clip-rule="evenodd" d="M272.725 112.022H273.739L273.397 111.402H272.725V112.022ZM277.626 112.022H279.986V111.423H277.626V112.022Z" fill="#CCCCCC"/>
<path fill-rule="evenodd" clip-rule="evenodd" d="M272.725 112.642H274.081L273.739 112.022H272.725V112.642ZM277.626 112.642H279.986V112.022H277.626V112.642Z" fill="#CCCCCC"/>
<path fill-rule="evenodd" clip-rule="evenodd" d="M272.725 113.241H274.411L274.081 112.642H272.725V113.241ZM277.626 113.241H279.986V112.642H277.626V113.241Z" fill="#CCCCCC"/>
<path fill-rule="evenodd" clip-rule="evenodd" d="M272.725 113.861H274.753L274.411 113.241H272.725V113.861ZM277.626 113.861H279.986V113.241H277.626V113.861ZM272.725 114.481H275.095L274.753 113.861H272.725V114.481ZM277.626 114.481H279.986V113.861H277.626V114.481Z" fill="#CCCCCC"/>
<path fill-rule="evenodd" clip-rule="evenodd" d="M272.724 115.1H275.437L275.095 114.481H272.724V115.1ZM277.625 115.1H279.986V114.481H277.625V115.1ZM272.724 115.7H275.767L275.437 115.1H272.724V115.7H272.724ZM277.625 115.7H279.986V115.1H277.625V115.7Z" fill="#CCCCCC"/>
<path fill-rule="evenodd" clip-rule="evenodd" d="M272.725 116.32H276.11L275.768 115.7H272.725V116.32ZM277.626 116.32H279.986V115.7H277.626V116.32ZM272.725 116.94H276.452L276.11 116.32H272.725V116.94ZM277.626 116.94H279.986V116.32H277.626V116.94Z" fill="#CCCCCC"/>
<path fill-rule="evenodd" clip-rule="evenodd" d="M272.725 117.56H276.794L276.452 116.939H272.725V117.56ZM277.626 117.56H279.986V116.939H277.626V117.56Z" fill="#CCCCCC"/>
<path fill-rule="evenodd" clip-rule="evenodd" d="M272.725 118.159H277.124L276.794 117.56H272.725V118.159ZM277.626 118.159H279.986V117.56H277.626V118.159ZM272.725 118.779H277.466L277.124 118.159H272.725V118.779ZM277.626 118.779H279.986V118.159H277.626V118.779Z" fill="#CCCCCC"/>
<path fill-rule="evenodd" clip-rule="evenodd" d="M272.725 119.398H279.986V118.778H277.626V119.068L277.466 118.778H272.725V119.398ZM272.725 120.018H275.045V119.46L275.395 120.018H279.986V119.398H272.725V120.018Z" fill="#CCCCCC"/>
<path fill-rule="evenodd" clip-rule="evenodd" d="M272.725 120.618H275.045V120.019H272.725V120.618ZM275.77 120.618H279.986V120.019H275.395L275.77 120.618Z" fill="#CCCCCC"/>
<path fill-rule="evenodd" clip-rule="evenodd" d="M272.725 121.238H275.045V120.618H272.725V121.238ZM276.159 121.238H279.986V120.618H275.77L276.159 121.238Z" fill="#CCCCCC"/>
<path fill-rule="evenodd" clip-rule="evenodd" d="M272.725 121.857H275.045V121.237H272.725V121.857ZM276.548 121.857H279.986V121.237H276.159L276.548 121.857Z" fill="#CCCCCC"/>
<path fill-rule="evenodd" clip-rule="evenodd" d="M272.725 122.456H275.045V121.857H272.725V122.456ZM276.923 122.456H279.986V121.857H276.548L276.923 122.456Z" fill="#CCCCCC"/>
<path fill-rule="evenodd" clip-rule="evenodd" d="M272.725 123.076H275.045V122.457H272.725V123.076ZM277.311 123.076H279.986V122.457H276.923L277.311 123.076Z" fill="#CCCCCC"/>
<path fill-rule="evenodd" clip-rule="evenodd" d="M272.725 123.697H275.045V123.077H272.725V123.697ZM277.7 123.697H279.986V123.077H277.311L277.7 123.697ZM272.725 124.316H275.045V123.697H272.725V124.316ZM277.726 124.316H279.986V123.697H277.7L277.726 123.738V124.316H277.726ZM272.725 124.916H275.045V124.316H272.725V124.916ZM277.726 124.916H279.986V124.316H277.726V124.916Z" fill="#CCCCCC"/>
<path fill-rule="evenodd" clip-rule="evenodd" d="M272.725 125.535H275.045V124.915H272.725V125.535ZM277.726 125.535H279.986V124.915H277.726V125.535ZM272.725 126.155H275.045V125.535H272.725V126.155ZM277.726 126.155H279.986V125.535H277.726V126.155Z" fill="#CCCCCC"/>
<path fill-rule="evenodd" clip-rule="evenodd" d="M272.725 126.775H275.045V126.155H272.725V126.775ZM277.726 126.775H279.986V126.155H277.726V126.775Z" fill="#CCCCCC"/>
<path fill-rule="evenodd" clip-rule="evenodd" d="M272.725 127.374H275.045V126.775H272.725V127.374ZM277.726 127.374H279.986V126.775H277.726V127.374ZM272.725 127.995H275.045V127.374H272.725V127.995ZM277.726 127.995H279.986V127.374H277.726V127.995Z" fill="#CCCCCC"/>
<path fill-rule="evenodd" clip-rule="evenodd" d="M272.725 128.614H275.045V127.995H272.725V128.614ZM277.726 128.614H279.986V127.995H277.726V128.614Z" fill="#CCCCCC"/>
<path fill-rule="evenodd" clip-rule="evenodd" d="M272.725 129.234H275.045V128.614H272.725V129.234ZM277.726 129.234H279.986V128.614H277.726V129.234ZM272.725 129.833H275.045V129.234H272.725V129.833ZM277.726 129.833H279.986V129.234H277.726V129.833Z" fill="#CCCCCC"/>
<path fill-rule="evenodd" clip-rule="evenodd" d="M272.725 130.453H275.045V129.833H272.725V130.453ZM277.726 130.453H279.986V129.833H277.726V130.453Z" fill="#CCCCCC"/>
<path fill-rule="evenodd" clip-rule="evenodd" d="M272.725 131.072H275.045V130.453H272.725V131.072ZM277.726 131.072H279.986V130.453H277.726V131.072Z" fill="#CCCCCC"/>
<path fill-rule="evenodd" clip-rule="evenodd" d="M272.725 131.693H275.045V131.073H272.725V131.693ZM277.726 131.693H279.986V131.073H277.726V131.693Z" fill="#CCCCCC"/>
<path fill-rule="evenodd" clip-rule="evenodd" d="M272.725 132.292H275.045V131.693H272.725V132.292ZM277.726 132.292H279.986V131.693H277.726V132.292ZM272.725 132.912H275.045V132.292H272.725V132.912ZM277.726 132.912H279.986V132.292H277.726V132.912Z" fill="#CCCCCC"/>
<path fill-rule="evenodd" clip-rule="evenodd" d="M272.725 133.531H275.045V132.912H272.725V133.531ZM277.726 133.531H279.986V132.912H277.726V133.531Z" fill="#CCCCCC"/>
<path fill-rule="evenodd" clip-rule="evenodd" d="M293.957 107.952H295.81V107.083C295.81 107.083 295.064 107.345 293.957 107.952Z" fill="#CCCCCC"/>
<path fill-rule="evenodd" clip-rule="evenodd" d="M292.524 108.819H295.81V107.952H293.957C293.467 108.22 292.99 108.509 292.524 108.819Z" fill="#CCCCCC"/>
<path fill-rule="evenodd" clip-rule="evenodd" d="M291.351 109.666H295.81V108.819H292.525C292.124 109.087 291.732 109.37 291.351 109.666ZM290.316 110.534H295.81V109.666H291.351C290.997 109.943 290.651 110.233 290.316 110.534ZM289.416 111.402H294.919C295.466 111.139 295.811 111.03 295.811 111.03V110.534H290.317C290.007 110.813 289.706 111.102 289.416 111.402Z" fill="#CCCCCC"/>
<path fill-rule="evenodd" clip-rule="evenodd" d="M288.628 112.27H293.417C293.897 111.944 294.398 111.653 294.919 111.401H289.415C289.144 111.682 288.881 111.971 288.628 112.27ZM287.939 113.137H292.282C292.644 112.827 293.023 112.537 293.417 112.27H288.628C288.389 112.551 288.16 112.841 287.939 113.137Z" fill="#CCCCCC"/>
<path fill-rule="evenodd" clip-rule="evenodd" d="M287.334 114.006H291.368C291.658 113.7 291.962 113.411 292.281 113.138H287.939C287.728 113.42 287.527 113.71 287.334 114.006ZM286.817 114.853H290.635C290.866 114.559 291.111 114.276 291.368 114.006H287.335C287.156 114.278 286.984 114.561 286.817 114.853Z" fill="#CCCCCC"/>
<path fill-rule="evenodd" clip-rule="evenodd" d="M286.356 115.72H290.008C290.205 115.422 290.414 115.132 290.635 114.853H286.818C286.656 115.137 286.502 115.427 286.356 115.72ZM285.958 116.589H289.489C289.656 116.285 289.829 115.995 290.009 115.721H286.357C286.217 116.002 286.084 116.291 285.958 116.589Z" fill="#CCCCCC"/>
<path fill-rule="evenodd" clip-rule="evenodd" d="M285.617 117.456H289.058C289.191 117.162 289.335 116.872 289.489 116.588H285.958C285.837 116.874 285.723 117.164 285.617 117.456Z" fill="#CCCCCC"/>
<path fill-rule="evenodd" clip-rule="evenodd" d="M285.33 118.323H288.706C288.815 118.023 288.933 117.733 289.058 117.456H285.617C285.515 117.738 285.42 118.028 285.33 118.323ZM285.099 119.171H288.427C288.513 118.879 288.607 118.597 288.707 118.323H285.331C285.246 118.604 285.169 118.886 285.099 119.171Z" fill="#CCCCCC"/>
<path fill-rule="evenodd" clip-rule="evenodd" d="M284.906 120.039H288.204C288.271 119.741 288.345 119.451 288.427 119.171H285.099C285.027 119.458 284.963 119.748 284.906 120.039ZM284.758 120.907H288.034C288.083 120.609 288.14 120.32 288.204 120.039H284.906C284.85 120.323 284.801 120.612 284.758 120.907Z" fill="#CCCCCC"/>
<path fill-rule="evenodd" clip-rule="evenodd" d="M284.651 121.774H287.914C287.946 121.477 287.987 121.188 288.033 120.906H284.757C284.715 121.195 284.68 121.484 284.651 121.774ZM284.58 122.642H287.841C287.859 122.346 287.883 122.056 287.914 121.774H284.651C284.621 122.063 284.598 122.352 284.58 122.642ZM284.552 123.489H287.811C287.815 123.201 287.825 122.918 287.841 122.642H284.58C284.565 122.924 284.556 123.207 284.552 123.489Z" fill="#CCCCCC"/>
<path fill-rule="evenodd" clip-rule="evenodd" d="M284.554 124.357H287.821C287.813 124.151 287.809 123.944 287.809 123.737C287.809 123.654 287.81 123.572 287.812 123.489H284.553C284.551 123.606 284.548 123.723 284.548 123.841C284.548 124.015 284.551 124.187 284.554 124.357ZM292.55 124.357H295.81V123.841H292.55V124.357Z" fill="#CCCCCC"/>
<path fill-rule="evenodd" clip-rule="evenodd" d="M284.598 125.226H287.88C287.852 124.937 287.833 124.647 287.821 124.357H284.555C284.563 124.652 284.577 124.941 284.598 125.226ZM292.549 125.226H295.81V124.357H292.549V125.226Z" fill="#CCCCCC"/>
<path fill-rule="evenodd" clip-rule="evenodd" d="M284.676 126.094H287.99C287.944 125.806 287.908 125.516 287.88 125.226H284.598C284.618 125.52 284.644 125.81 284.676 126.094ZM292.549 126.094H295.81V125.226H292.549V126.094Z" fill="#CCCCCC"/>
<path fill-rule="evenodd" clip-rule="evenodd" d="M284.802 126.961H288.154C288.09 126.674 288.036 126.384 287.99 126.093H284.677C284.712 126.388 284.754 126.677 284.802 126.961ZM292.55 126.961H295.81V126.093H292.55V126.961Z" fill="#CCCCCC"/>
<path fill-rule="evenodd" clip-rule="evenodd" d="M284.971 127.829H288.376C288.293 127.542 288.219 127.253 288.154 126.961H284.802C284.852 127.256 284.908 127.546 284.971 127.829ZM292.55 127.829H295.81V126.961H292.55V127.829Z" fill="#CCCCCC"/>
<path fill-rule="evenodd" clip-rule="evenodd" d="M285.181 128.676H288.654C288.552 128.397 288.459 128.115 288.376 127.829H284.971C285.034 128.118 285.104 128.4 285.181 128.676ZM292.549 128.676H295.81V127.829H292.549V128.676ZM285.446 129.545H289.006C288.879 129.259 288.761 128.97 288.654 128.676H285.181C285.262 128.972 285.351 129.262 285.446 129.545ZM292.549 129.545H295.81V128.676H292.549V129.545Z" fill="#CCCCCC"/>
<path fill-rule="evenodd" clip-rule="evenodd" d="M285.768 130.412H289.433C289.28 130.128 289.137 129.839 289.005 129.544H285.445C285.547 129.841 285.654 130.13 285.768 130.412ZM292.549 130.412H295.81V129.544H292.549V130.412Z" fill="#CCCCCC"/>
<path fill-rule="evenodd" clip-rule="evenodd" d="M286.151 131.28H289.948C289.766 130.998 289.594 130.708 289.434 130.412H285.769C285.889 130.709 286.017 130.999 286.151 131.28ZM292.549 131.28H295.81V130.412H292.549V131.28Z" fill="#CCCCCC"/>
<path fill-rule="evenodd" clip-rule="evenodd" d="M286.599 132.148H290.562C290.345 131.867 290.14 131.578 289.948 131.28H286.151C286.294 131.578 286.444 131.867 286.599 132.148ZM292.549 132.148H295.81V131.28H292.549V132.148Z" fill="#CCCCCC"/>
<path fill-rule="evenodd" clip-rule="evenodd" d="M287.105 132.994H291.278C291.026 132.723 290.787 132.441 290.561 132.147H286.599C286.758 132.435 286.927 132.718 287.105 132.994ZM292.549 132.994H295.81V132.147H292.549V132.994Z" fill="#CCCCCC"/>
<path fill-rule="evenodd" clip-rule="evenodd" d="M287.703 133.862H292.182C291.864 133.591 291.562 133.301 291.278 132.994H287.105C287.295 133.29 287.495 133.58 287.703 133.862ZM292.549 133.862H295.81V132.994H292.549V133.862Z" fill="#CCCCCC"/>
<path fill-rule="evenodd" clip-rule="evenodd" d="M288.39 134.731H295.81V133.863H292.549V134.152C292.549 134.152 292.412 134.057 292.182 133.863H287.703C287.923 134.16 288.152 134.449 288.39 134.731Z" fill="#CCCCCC"/>
<path fill-rule="evenodd" clip-rule="evenodd" d="M289.181 135.598H295.81V134.73H288.391C288.649 135.035 288.914 135.324 289.181 135.598Z" fill="#CCCCCC"/>
<path fill-rule="evenodd" clip-rule="evenodd" d="M290.092 136.466H295.81V135.598H289.181C289.475 135.898 289.779 136.188 290.092 136.466Z" fill="#CCCCCC"/>
<path fill-rule="evenodd" clip-rule="evenodd" d="M291.149 137.334H295.81V136.466H290.093C290.434 136.769 290.786 137.058 291.149 137.334ZM292.357 138.181H295.81V137.334H291.149C291.541 137.632 291.944 137.915 292.357 138.181ZM293.847 139.049H295.81V138.181H292.357C292.893 138.526 293.397 138.814 293.847 139.049Z" fill="#CCCCCC"/>
<path fill-rule="evenodd" clip-rule="evenodd" d="M295.81 139.917V139.049H293.847C295.015 139.66 295.81 139.917 295.81 139.917Z" fill="#CCCCCC"/>
<path fill-rule="evenodd" clip-rule="evenodd" d="M301.352 124.688H303.732V124.522H301.352V124.688ZM306.513 124.688H308.994V124.522H306.513V124.688ZM301.352 125.287H303.732V124.688H301.352V125.287ZM306.513 125.287H308.994V124.688H306.513V125.287Z" fill="#CCCCCC"/>
<path fill-rule="evenodd" clip-rule="evenodd" d="M301.352 125.887H303.732V125.287H301.352V125.887ZM306.513 125.887H308.994V125.287H306.513V125.887Z" fill="#CCCCCC"/>
<path fill-rule="evenodd" clip-rule="evenodd" d="M301.352 126.485H303.732V125.887H301.352V126.485ZM306.513 126.485H308.994V125.887H306.513V126.485ZM301.352 127.085H303.732V126.485H301.352V127.085ZM306.513 127.085H308.994V126.485H306.513V127.085Z" fill="#CCCCCC"/>
<path fill-rule="evenodd" clip-rule="evenodd" d="M301.352 127.685H303.732V127.085H301.352V127.685ZM306.513 127.685H308.994V127.085H306.513V127.685ZM301.352 128.284H303.732V127.685H301.352V128.284ZM306.513 128.284H308.994V127.685H306.513V128.284Z" fill="#CCCCCC"/>
<path fill-rule="evenodd" clip-rule="evenodd" d="M301.352 128.882H303.732V128.284H301.352V128.882ZM306.513 128.882H308.994V128.284H306.513V128.882ZM301.352 129.502H303.732V128.882H301.352V129.502ZM306.513 129.502H308.994V128.882H306.513V129.502ZM301.352 130.102H303.732V129.502H301.352V130.102ZM306.513 130.102H308.994V129.502H306.513V130.102Z" fill="#CCCCCC"/>
<path fill-rule="evenodd" clip-rule="evenodd" d="M301.41 130.701H303.993C303.781 130.399 303.732 130.102 303.732 130.102H301.352C301.352 130.102 301.348 130.343 301.41 130.701ZM306.407 130.701H308.952C308.981 130.502 308.991 130.339 308.994 130.234V130.102H306.513C306.513 130.102 306.542 130.399 306.407 130.701ZM301.56 131.3H304.984C304.482 131.226 304.176 130.962 303.993 130.701H301.41C301.441 130.877 301.488 131.082 301.56 131.3ZM305.561 131.3H308.819C308.885 131.082 308.926 130.877 308.952 130.701H306.407C306.29 130.962 306.05 131.226 305.561 131.3Z" fill="#CCCCCC"/>
<path fill-rule="evenodd" clip-rule="evenodd" d="M301.814 131.9H308.584C308.685 131.697 308.762 131.493 308.819 131.3H305.561C305.37 131.329 305.175 131.329 304.984 131.3H301.561C301.624 131.493 301.706 131.697 301.814 131.9Z" fill="#CCCCCC"/>
<path fill-rule="evenodd" clip-rule="evenodd" d="M302.221 132.499H308.197C308.347 132.315 308.477 132.114 308.584 131.899H301.814C301.928 132.114 302.064 132.315 302.221 132.499ZM302.906 133.098H307.531C307.781 132.933 308.005 132.732 308.197 132.499H302.221C302.419 132.732 302.65 132.934 302.906 133.098Z" fill="#CCCCCC"/>
<path fill-rule="evenodd" clip-rule="evenodd" d="M307.531 133.098H302.905C303.46 133.455 304.212 133.697 305.232 133.697C306.248 133.697 306.99 133.456 307.531 133.098Z" fill="#CCCCCC"/>
<path fill-rule="evenodd" clip-rule="evenodd" d="M302.893 111.464H307.47C306.916 111.106 306.161 110.865 305.133 110.865C304.155 110.865 303.431 111.106 302.893 111.464ZM302.229 112.064H308.151C307.954 111.83 307.724 111.628 307.47 111.464H302.893C302.644 111.63 302.42 111.832 302.229 112.064Z" fill="#CCCCCC"/>
<path fill-rule="evenodd" clip-rule="evenodd" d="M301.831 112.663H308.549C308.438 112.448 308.305 112.248 308.151 112.063H302.229C302.076 112.248 301.942 112.449 301.831 112.663ZM301.577 113.262H308.796C308.731 113.055 308.649 112.854 308.549 112.663H301.83C301.73 112.855 301.646 113.055 301.577 113.262ZM301.424 113.861H303.949C304.135 113.582 304.477 113.324 305.112 113.324C305.758 113.324 306.106 113.582 306.293 113.861H308.94C308.907 113.658 308.859 113.458 308.797 113.262H301.578C301.513 113.458 301.462 113.658 301.424 113.861Z" fill="#CCCCCC"/>
<path fill-rule="evenodd" clip-rule="evenodd" d="M301.353 114.46H303.737C303.76 114.246 303.833 114.04 303.949 113.861H301.424C301.373 114.133 301.358 114.349 301.353 114.46ZM306.507 114.46H308.994V114.413C308.988 114.227 308.97 114.043 308.94 113.86H306.293C306.448 114.091 306.493 114.336 306.507 114.46ZM301.352 115.08H303.732V114.542C303.732 114.542 303.732 114.511 303.737 114.46H301.353C301.351 114.513 301.352 114.542 301.352 114.542V115.08ZM306.513 115.08H308.994V114.46H306.507C306.514 114.511 306.514 114.542 306.514 114.542V115.08H306.513Z" fill="#CCCCCC"/>
<path fill-rule="evenodd" clip-rule="evenodd" d="M301.352 115.68H303.732V115.08H301.352V115.68ZM306.513 115.68H308.994V115.08H306.513V115.68ZM301.352 116.279H303.732V115.68H301.352V116.279ZM306.513 116.279H308.994V115.68H306.513V116.279Z" fill="#CCCCCC"/>
<path fill-rule="evenodd" clip-rule="evenodd" d="M301.352 116.877H303.732V116.278H301.352V116.877ZM306.513 116.877H308.994V116.278H306.513V116.877ZM301.352 117.477H303.732V116.878H301.352V117.477ZM306.513 117.477H308.994V116.878H306.513V117.477Z" fill="#CCCCCC"/>
<path fill-rule="evenodd" clip-rule="evenodd" d="M301.352 118.076H303.732V117.477H301.352V118.076ZM306.513 118.076H308.994V117.477H306.513V118.076ZM301.352 118.675H303.732V118.076H301.352V118.675ZM306.513 118.675H308.994V118.076H306.513V118.675ZM301.352 119.274H303.732V118.675H301.352V119.274ZM306.513 119.274H308.994V118.675H306.513V119.274Z" fill="#CCCCCC"/>
<path fill-rule="evenodd" clip-rule="evenodd" d="M301.352 119.874H303.732V119.274H301.352V119.874ZM306.513 119.874H308.994V119.274H306.513V119.874Z" fill="#CCCCCC"/>
<path fill-rule="evenodd" clip-rule="evenodd" d="M301.352 120.473H303.732V119.874H301.352V120.473ZM306.513 120.473H308.994V119.874H306.513V120.473Z" fill="#CCCCCC"/>
<path fill-rule="evenodd" clip-rule="evenodd" d="M301.352 121.072H303.732V120.473H301.352V121.072ZM306.513 121.072H308.994V120.473H306.513V121.072ZM301.352 121.672H303.732V121.073H301.352V121.672ZM306.513 121.672H308.994V121.073H306.513V121.672ZM301.352 122.292H303.732V121.672H301.352V122.292ZM306.513 122.292H308.994V121.672H306.513V122.292Z" fill="#CCCCCC"/>
<path fill-rule="evenodd" clip-rule="evenodd" d="M301.352 122.891H303.732V122.292H301.352V122.891ZM306.513 122.891H308.994V122.292H306.513V122.891ZM301.352 123.49H303.732V122.891H301.352V123.49ZM306.513 123.49H308.994V122.891H306.513V123.49Z" fill="#CCCCCC"/>
<path fill-rule="evenodd" clip-rule="evenodd" d="M301.352 124.089H303.732V123.489H301.352V124.089ZM306.513 124.089H308.994V123.489H306.513V124.089ZM308.994 124.523V124.089H306.513V124.523H308.994ZM303.732 124.089H301.352V124.523H303.732V124.089Z" fill="#CCCCCC"/>
<path fill-rule="evenodd" clip-rule="evenodd" d="M261.439 111.629H266.051C265.51 111.272 264.767 111.03 263.743 111.03C262.723 111.03 261.981 111.272 261.439 111.629ZM260.772 112.229H266.714C266.524 111.995 266.3 111.793 266.051 111.629H261.439C261.189 111.794 260.964 111.996 260.772 112.229Z" fill="#CCCCCC"/>
<path fill-rule="evenodd" clip-rule="evenodd" d="M260.396 112.807H267.085C266.983 112.601 266.858 112.407 266.714 112.229H260.772C260.626 112.407 260.5 112.601 260.396 112.807Z" fill="#CCCCCC"/>
<path fill-rule="evenodd" clip-rule="evenodd" d="M260.156 113.406H267.321C267.26 113.199 267.181 112.999 267.086 112.807H260.396C260.299 112.999 260.218 113.199 260.156 113.406ZM260.021 114.005H262.654C262.835 113.754 263.169 113.509 263.782 113.509C264.415 113.509 264.75 113.754 264.926 114.005H267.449C267.421 113.803 267.379 113.602 267.321 113.406H260.156C260.089 113.626 260.047 113.831 260.021 114.005Z" fill="#CCCCCC"/>
<path fill-rule="evenodd" clip-rule="evenodd" d="M259.981 114.584H262.442V114.543C262.442 114.543 262.463 114.271 262.654 114.006H260.021C259.974 114.329 259.981 114.543 259.981 114.543V114.584ZM265.122 114.584H267.483V114.414C267.479 114.277 267.467 114.141 267.448 114.006H264.926C265.112 114.271 265.122 114.543 265.122 114.543V114.584ZM259.981 115.183H262.442V114.584H259.981V115.183ZM265.122 115.183H267.483V114.584H265.122V115.183Z" fill="#CCCCCC"/>
<path fill-rule="evenodd" clip-rule="evenodd" d="M259.981 115.783H262.442V115.184H259.981V115.783ZM265.123 115.783H267.483V115.184H265.123V115.783ZM259.981 116.362H262.442V115.783H259.981V116.362ZM265.123 116.362H267.483V115.783H265.123V116.362Z" fill="#CCCCCC"/>
<path fill-rule="evenodd" clip-rule="evenodd" d="M259.981 116.96H262.442V116.361H259.981V116.96ZM265.123 116.96H267.483V116.361H265.123V116.96ZM259.981 117.539H262.442V116.96H259.981V117.539ZM265.123 117.539H267.483V116.96H265.123V117.539Z" fill="#CCCCCC"/>
<path fill-rule="evenodd" clip-rule="evenodd" d="M259.981 118.139H262.442V117.539H259.981V118.139ZM265.123 118.139H267.483V117.539H265.123V118.139ZM259.981 118.738H262.442V118.139H259.981V118.738ZM265.123 118.738H267.483V118.139H265.123V118.738Z" fill="#CCCCCC"/>
<path fill-rule="evenodd" clip-rule="evenodd" d="M259.981 119.316H262.442V118.737H259.981V119.316ZM265.123 119.316H267.483V118.737H265.123V119.316Z" fill="#CCCCCC"/>
<path fill-rule="evenodd" clip-rule="evenodd" d="M259.981 119.915H262.442V119.316H259.981V119.915ZM265.123 119.915H267.483V119.316H265.123V119.915Z" fill="#CCCCCC"/>
<path fill-rule="evenodd" clip-rule="evenodd" d="M259.981 120.514H262.442V119.915H259.981V120.514ZM265.123 120.514H267.483V119.915H265.123V120.514Z" fill="#CCCCCC"/>
<path fill-rule="evenodd" clip-rule="evenodd" d="M259.981 121.093H262.442V120.514H259.981V121.093ZM265.123 121.093H267.483V120.514H265.123V121.093ZM259.981 121.692H262.442V121.093H259.981V121.692ZM265.123 121.692H267.483V121.093H265.123V121.692ZM259.981 122.291H262.442V121.692H259.981V122.291ZM265.123 122.291H267.483V121.692H265.123V122.291Z" fill="#CCCCCC"/>
<path fill-rule="evenodd" clip-rule="evenodd" d="M259.981 122.87H262.442V122.292H259.981V122.87ZM265.123 122.87H267.483V122.292H265.123V122.87ZM259.981 123.469H262.442V122.87H259.981V123.469ZM265.123 123.469H267.483V122.87H265.123V123.469Z" fill="#CCCCCC"/>
<path fill-rule="evenodd" clip-rule="evenodd" d="M259.981 124.068H262.442V123.469H259.981V124.068ZM265.123 124.068H267.483V123.469H265.123V124.068Z" fill="#CCCCCC"/>
<path fill-rule="evenodd" clip-rule="evenodd" d="M259.981 124.646H262.442V124.068H259.981V124.646ZM265.123 124.646H267.483V124.068H265.123V124.646ZM259.981 125.246H262.442V124.646H259.981V125.246ZM265.123 125.246H267.483V124.646H265.123V125.246Z" fill="#CCCCCC"/>
<path fill-rule="evenodd" clip-rule="evenodd" d="M259.981 125.825H262.441V125.246H259.981V125.825ZM265.122 125.825H267.483V125.246H265.122V125.825ZM259.981 126.424H262.441V125.825H259.981V126.424ZM265.122 126.424H267.483V125.825H265.122V126.424ZM256.887 127.023H267.483V126.424H265.122V126.569H262.441V126.424H259.981V126.569H256.6L256.887 127.023Z" fill="#CCCCCC"/>
<path fill-rule="evenodd" clip-rule="evenodd" d="M257.253 127.602H267.483V127.023H256.887L257.253 127.602ZM257.631 128.201H267.483V127.602H257.253L257.631 128.201Z" fill="#CCCCCC"/>
<path fill-rule="evenodd" clip-rule="evenodd" d="M258.01 128.8H267.483V128.201H257.631L258.01 128.8ZM260.081 129.379H262.401V129.048H265.182V129.379H267.483V128.8H258.01L258.14 129.007H260.081V129.379Z" fill="#CCCCCC"/>
<path fill-rule="evenodd" clip-rule="evenodd" d="M260.081 129.978H262.402V129.379H260.081V129.978ZM265.182 129.978H267.483V129.379H265.182V129.978Z" fill="#CCCCCC"/>
<path fill-rule="evenodd" clip-rule="evenodd" d="M260.081 130.577H262.402V129.978H260.081V130.577ZM265.182 130.577H267.483V129.978H265.182V130.577ZM260.081 131.155H262.402V130.577H260.081V131.155ZM265.182 131.155H267.483V130.577H265.182V131.155Z" fill="#CCCCCC"/>
<path fill-rule="evenodd" clip-rule="evenodd" d="M260.081 131.755H262.402V131.155H260.081V131.755ZM265.182 131.755H267.483V131.155H265.182V131.755ZM260.081 132.354H262.402V131.755H260.081V132.354ZM265.182 132.354H267.483V131.755H265.182V132.354ZM260.081 132.933H262.402V132.354H260.081V132.933ZM265.182 132.933H267.483V132.354H265.182V132.933Z" fill="#CCCCCC"/>
<path fill-rule="evenodd" clip-rule="evenodd" d="M260.081 133.531H262.402V132.933H260.081V133.531ZM265.182 133.531H267.483V132.933H265.182V133.531Z" fill="#CCCCCC"/>
<line x1="389.731" y1="105" x2="389.731" y2="137" stroke="#E6E6E6"/>
<path fill-rule="evenodd" clip-rule="evenodd" d="M495.101 135.561C492.517 137.739 489.103 139.064 485.503 139.064C477.013 139.064 470.207 132.057 470.207 123.465C470.207 114.848 477.013 107.841 485.503 107.841C491.133 107.841 496.024 110.966 498.7 115.7C499.069 115.795 499.346 115.89 499.715 115.984C497.039 110.682 491.687 107.083 485.503 107.083C476.644 107.083 469.469 114.375 469.469 123.465C469.469 132.531 476.644 139.917 485.503 139.917C489.656 139.917 493.44 138.213 496.301 135.561H495.101Z" fill="#CCCCCC"/>
<path fill-rule="evenodd" clip-rule="evenodd" d="M487.534 134.804H529.409V128.365H487.534V134.804Z" fill="#CCCCCC"/>
<path fill-rule="evenodd" clip-rule="evenodd" d="M489.656 116.836L489.471 117.688H487.441C486.887 123.749 486.518 128.648 486.149 130.921C485.318 134.993 481.627 137.265 479.227 137.265C478.397 137.265 477.382 136.887 477.382 135.845C477.382 135.277 477.843 134.804 478.397 134.804C479.227 134.804 479.874 135.466 480.335 136.224C481.627 135.466 481.811 134.804 482.365 132.152C482.642 130.921 483.38 122.139 483.749 117.688H482.088L482.273 116.836H483.934L484.119 115.321C485.042 109.735 489.01 109.072 490.487 109.072C491.225 109.072 492.701 109.45 492.701 110.492C492.701 111.155 492.148 111.439 491.594 111.439C490.579 111.439 490.117 110.871 489.656 110.018C487.994 110.776 487.718 114.942 487.533 116.836H489.656V116.836ZM489.471 124.6C489.471 120.151 492.24 116.268 496.946 116.268C499.9 116.268 501.56 117.594 501.56 120.529C501.56 124.979 498.792 128.744 494.085 128.744C491.133 128.744 489.471 127.418 489.471 124.6ZM497.777 121.192C497.777 120.056 497.685 117.31 496.024 117.31C493.625 117.31 493.255 122.139 493.255 123.938C493.255 124.98 493.347 127.797 495.008 127.797C497.408 127.797 497.777 122.991 497.777 121.192ZM502.576 124.6C502.576 120.151 505.437 116.268 510.143 116.268C513.004 116.268 514.734 117.594 514.734 120.529C514.734 124.979 511.897 128.744 507.19 128.744C504.329 128.744 502.576 127.418 502.576 124.6ZM510.974 121.192C510.974 120.056 510.882 117.31 509.22 117.31C506.729 117.31 506.452 122.139 506.452 123.938C506.452 124.98 506.452 127.797 508.113 127.797C510.604 127.797 510.974 122.991 510.974 121.192ZM529.039 127.323C527.377 128.081 525.347 128.743 523.963 128.743C523.225 128.743 523.317 127.606 523.317 127.133C523.317 126.566 523.317 125.808 523.502 124.317L523.409 124.222C522.486 126.187 520.641 128.743 518.241 128.743C516.396 128.743 515.565 126.755 515.565 125.074C515.565 120.908 518.795 116.458 523.409 116.458H524.332C524.701 113.522 524.701 112.291 524.701 111.344C524.701 111.06 524.701 110.776 524.424 110.776C524.147 110.776 523.779 110.871 522.855 111.155L522.671 110.397C524.517 109.735 526.547 109.356 528.393 109.261C528.578 109.261 528.67 109.261 528.67 109.64C528.67 112.101 526.824 124.979 526.824 126.282C526.824 126.566 526.824 127.039 527.193 127.039C527.377 127.039 528.024 126.849 528.762 126.566L529.039 127.323ZM523.04 123.275C523.686 121.666 523.871 120.056 524.24 117.594C524.055 117.499 523.871 117.499 523.779 117.499C520.918 117.499 519.533 121.855 519.533 124.222C519.533 124.79 519.626 126.187 520.456 126.187C521.656 126.187 522.671 124.222 523.04 123.275Z" fill="#CCCCCC"/>
<path fill-rule="evenodd" clip-rule="evenodd" d="M490.025 129.88H491.041L492.332 131.868V129.88H493.163V133.667H492.425L490.856 131.49V133.667H490.025V129.88ZM495.562 129.88H498.423V130.638H496.67V131.3H497.778V132.152H496.67V132.815H498.423V133.667H495.562V129.88ZM501.469 130.638H500.454V129.88H503.591V130.638H502.576V133.667H501.469V130.638ZM505.437 129.88H506.544L507.006 131.868H507.098L507.559 129.88H508.483L508.944 131.868H509.037L509.498 129.88H510.328L509.405 133.667H508.483L507.929 131.584L507.375 133.667H506.452L505.437 129.88ZM514.089 133.762C513.005 133.762 512.266 133.005 512.266 131.774C512.266 130.543 513.004 129.785 514.089 129.785C515.197 129.785 515.842 130.542 515.842 131.774C515.842 133.005 515.196 133.762 514.089 133.762ZM513.443 131.773C513.443 132.815 513.72 133.005 514.089 133.005C514.458 133.005 514.735 132.815 514.735 131.773C514.735 130.732 514.458 130.542 514.089 130.542C513.628 130.542 513.443 130.827 513.443 131.773ZM518.057 129.88H519.903C521.102 129.88 521.379 130.447 521.379 130.921C521.379 131.395 521.102 131.773 520.641 131.868L521.379 133.667H520.18L519.626 132.057H519.165V133.667H518.057V129.88ZM519.165 131.395H519.718C519.995 131.395 520.272 131.205 520.272 131.016C520.272 130.732 520.087 130.542 519.718 130.542H519.165V131.395ZM523.687 129.88H524.794V131.395L525.901 129.88H526.916L525.994 131.111L527.101 133.667H525.994L525.256 132.057L524.794 132.721V133.667H523.687V129.88Z" fill="white"/>
<line x1="610.146" y1="105" x2="610.146" y2="137" stroke="#E6E6E6"/>
<g clip-path="url(#clip0_516_4660)">
<path d="M762.541 123.389C762.217 123.389 761.974 123.308 761.785 123.119C761.624 122.957 761.516 122.688 761.516 122.364V112.404C761.516 112.08 761.597 111.81 761.785 111.648C761.974 111.486 762.217 111.406 762.541 111.406H764.35C764.754 111.406 765.105 111.433 765.402 111.459C765.699 111.513 765.969 111.594 766.158 111.756C766.374 111.918 766.509 112.134 766.617 112.458C766.725 112.755 766.779 113.187 766.779 113.7V121.095C766.779 121.77 766.698 122.256 766.509 122.58C766.32 122.903 766.05 123.119 765.699 123.227C765.348 123.335 764.889 123.389 764.35 123.362L762.541 123.389ZM756.738 105.603C756.414 105.63 756.144 105.711 755.983 105.872C755.821 106.034 755.74 106.304 755.74 106.628V128.167C755.74 128.49 755.821 128.733 756.01 128.922C756.171 129.084 756.441 129.192 756.765 129.192H764.269C765.834 129.192 767.184 129.03 768.263 128.706C769.343 128.382 770.206 127.87 770.854 127.222C771.502 126.574 771.988 125.71 772.258 124.685C772.555 123.659 772.69 122.472 772.69 121.095V113.7C772.69 112.323 772.555 111.136 772.258 110.11C771.961 109.084 771.502 108.248 770.854 107.6C770.206 106.925 769.343 106.439 768.263 106.115C767.184 105.792 765.861 105.63 764.269 105.63L756.738 105.603ZM746.914 119.827C746.914 120.474 746.887 121.068 746.86 121.581C746.806 122.094 746.698 122.526 746.536 122.903C746.374 123.281 746.104 123.551 745.726 123.74C745.375 123.929 744.889 124.037 744.269 124.037C743.648 124.037 743.162 123.929 742.811 123.74C742.433 123.551 742.19 123.281 742.002 122.903C741.84 122.553 741.732 122.094 741.678 121.581C741.624 121.068 741.597 120.474 741.624 119.827V114.968C741.624 114.32 741.651 113.727 741.678 113.214C741.732 112.701 741.84 112.269 742.002 111.891C742.163 111.513 742.433 111.244 742.811 111.055C743.162 110.866 743.648 110.758 744.269 110.758C744.889 110.758 745.375 110.866 745.726 111.055C746.104 111.244 746.347 111.513 746.536 111.891C746.698 112.242 746.806 112.701 746.86 113.214C746.914 113.727 746.914 114.32 746.914 114.968V119.827ZM752.69 113.187C752.69 112.809 752.663 112.35 752.609 111.81C752.555 111.271 752.447 110.704 752.258 110.083C752.069 109.462 751.799 108.868 751.448 108.275C751.07 107.681 750.584 107.141 749.964 106.655C749.343 106.169 748.56 105.765 747.616 105.468C746.671 105.171 745.537 105.036 744.215 105.009C742.892 105.009 741.759 105.171 740.814 105.468C739.869 105.765 739.087 106.169 738.466 106.655C737.845 107.141 737.359 107.681 736.981 108.275C736.603 108.868 736.334 109.489 736.172 110.083C735.983 110.704 735.875 111.271 735.821 111.81C735.767 112.35 735.74 112.809 735.74 113.187V121.608C735.74 121.986 735.767 122.445 735.821 122.984C735.875 123.524 735.983 124.091 736.172 124.712C736.334 125.333 736.63 125.926 736.981 126.52C737.359 127.114 737.845 127.654 738.466 128.167C739.087 128.652 739.869 129.057 740.814 129.327C741.759 129.624 742.892 129.786 744.215 129.786C745.537 129.786 746.671 129.624 747.616 129.327C748.56 129.03 749.343 128.652 749.964 128.167C750.584 127.681 751.07 127.141 751.448 126.52C751.826 125.926 752.096 125.306 752.258 124.712C752.42 124.091 752.555 123.524 752.609 122.984C752.663 122.445 752.69 121.986 752.69 121.608V113.187ZM727.292 119.827C727.292 120.474 727.265 121.068 727.238 121.581C727.184 122.094 727.076 122.526 726.914 122.903C726.752 123.281 726.482 123.551 726.104 123.74C725.753 123.929 725.267 124.037 724.647 124.037C724.026 124.037 723.54 123.929 723.189 123.74C722.811 123.551 722.568 123.281 722.379 122.903C722.218 122.553 722.11 122.094 722.056 121.581C722.002 121.068 721.975 120.474 722.002 119.827V114.968C722.002 114.32 722.029 113.727 722.056 113.214C722.11 112.701 722.218 112.269 722.379 111.891C722.541 111.513 722.811 111.244 723.189 111.055C723.54 110.866 724.026 110.758 724.647 110.758C725.267 110.758 725.753 110.866 726.104 111.055C726.482 111.244 726.725 111.513 726.914 111.891C727.076 112.242 727.184 112.701 727.238 113.214C727.292 113.727 727.292 114.32 727.292 114.968V119.827ZM733.095 113.187C733.095 112.809 733.068 112.35 733.014 111.81C732.96 111.271 732.852 110.704 732.663 110.083C732.474 109.462 732.204 108.868 731.853 108.275C731.475 107.681 730.989 107.141 730.369 106.655C729.748 106.169 728.965 105.765 728.02 105.468C727.076 105.171 725.942 105.036 724.62 105.009C723.297 105.009 722.164 105.171 721.219 105.468C720.274 105.765 719.492 106.169 718.871 106.655C718.25 107.141 717.764 107.681 717.386 108.275C717.008 108.868 716.738 109.489 716.577 110.083C716.388 110.704 716.28 111.271 716.226 111.81C716.172 112.35 716.145 112.809 716.145 113.187V121.608C716.145 121.986 716.172 122.445 716.226 122.984C716.28 123.524 716.388 124.091 716.577 124.712C716.738 125.333 717.035 125.926 717.386 126.52C717.764 127.114 718.25 127.654 718.871 128.167C719.492 128.652 720.274 129.057 721.219 129.327C722.164 129.624 723.297 129.786 724.62 129.786C725.942 129.786 727.076 129.624 728.02 129.327C728.965 129.03 729.748 128.652 730.369 128.167C730.989 127.681 731.475 127.141 731.853 126.52C732.231 125.926 732.501 125.306 732.663 124.712C732.825 124.091 732.96 123.524 733.014 122.984C733.068 122.445 733.095 121.986 733.095 121.608V113.187ZM713.176 105.603C713.851 105.603 714.174 105.953 714.174 106.601V110.38C714.174 110.704 714.093 110.947 713.931 111.136C713.77 111.325 713.5 111.406 713.176 111.406H704.377C704.053 111.406 703.81 111.486 703.621 111.648C703.432 111.81 703.351 112.08 703.351 112.404V128.194C703.351 128.517 703.27 128.76 703.108 128.949C702.946 129.111 702.676 129.219 702.353 129.219H698.385C698.061 129.219 697.818 129.138 697.629 128.949C697.467 128.76 697.359 128.517 697.359 128.194V106.628C697.359 106.304 697.44 106.034 697.629 105.872C697.818 105.711 698.061 105.63 698.385 105.63L713.176 105.603Z" fill="#CCCCCC"/>
<path d="M771.151 134.454C771.151 134.427 771.124 134.427 771.124 134.4C771.124 134.374 771.124 134.374 771.151 134.347L772.501 132.511C772.555 132.43 772.555 132.376 772.528 132.349C772.501 132.322 772.447 132.268 772.366 132.268H771.394C771.34 132.268 771.286 132.268 771.259 132.295C771.232 132.322 771.178 132.349 771.151 132.403L770.098 133.834C770.071 133.861 770.071 133.861 770.044 133.861C770.017 133.861 770.017 133.834 770.017 133.807V132.484C770.017 132.349 769.963 132.295 769.829 132.295H769.073C769.019 132.295 768.965 132.322 768.938 132.349C768.911 132.376 768.884 132.43 768.884 132.511V136.776C768.884 136.83 768.911 136.884 768.938 136.911C768.965 136.938 769.019 136.965 769.073 136.965H769.829C769.882 136.965 769.936 136.938 769.99 136.911C770.044 136.884 770.044 136.83 770.044 136.776V136.047V135.993C770.044 135.966 770.044 135.966 770.071 135.939L770.341 135.561C770.341 135.534 770.368 135.534 770.395 135.534C770.422 135.534 770.422 135.534 770.449 135.561L771.286 136.83C771.313 136.884 771.34 136.911 771.394 136.938C771.421 136.965 771.475 136.965 771.529 136.965H772.528C772.609 136.965 772.662 136.938 772.689 136.884C772.716 136.83 772.716 136.776 772.663 136.722L771.151 134.454ZM765.105 132.268C765.051 132.268 764.997 132.295 764.97 132.322C764.943 132.349 764.916 132.403 764.916 132.484V135.453C764.916 135.534 764.916 135.615 764.943 135.723C764.943 135.831 764.97 135.939 765.024 136.074C765.051 136.182 765.105 136.317 765.186 136.425C765.267 136.533 765.348 136.641 765.483 136.749C765.618 136.857 765.753 136.911 765.942 136.992C766.131 137.046 766.347 137.073 766.617 137.073C766.887 137.073 767.102 137.046 767.291 136.992C767.48 136.938 767.642 136.857 767.75 136.749C767.885 136.641 767.966 136.533 768.047 136.425C768.128 136.317 768.182 136.182 768.209 136.074C768.236 135.966 768.263 135.831 768.263 135.723C768.263 135.615 768.29 135.534 768.29 135.453V132.484C768.29 132.349 768.236 132.295 768.101 132.295H767.345C767.291 132.295 767.237 132.322 767.21 132.349C767.183 132.376 767.156 132.43 767.156 132.511V135.48C767.156 135.588 767.129 135.669 767.102 135.75C767.075 135.831 767.022 135.885 766.941 135.912C766.86 135.939 766.779 135.966 766.644 135.966C766.509 135.966 766.428 135.939 766.347 135.912C766.266 135.885 766.212 135.831 766.185 135.75C766.158 135.669 766.131 135.588 766.131 135.48C766.131 135.372 766.104 135.264 766.131 135.129V132.511C766.131 132.376 766.077 132.322 765.942 132.322L765.105 132.268ZM764.242 135.777C764.376 135.777 764.43 135.831 764.43 135.966V136.722C764.43 136.776 764.403 136.83 764.376 136.857C764.349 136.884 764.295 136.911 764.215 136.911H763.459C763.405 136.911 763.351 136.884 763.324 136.857C763.297 136.83 763.27 136.776 763.27 136.722V135.966C763.27 135.912 763.297 135.858 763.324 135.804C763.351 135.777 763.405 135.75 763.459 135.75L764.242 135.777ZM761.623 135.075V135.426C761.623 135.534 761.596 135.615 761.569 135.696C761.542 135.777 761.488 135.831 761.408 135.858C761.327 135.885 761.246 135.912 761.111 135.912C760.976 135.912 760.895 135.885 760.814 135.858C760.733 135.831 760.679 135.777 760.652 135.696C760.625 135.615 760.598 135.534 760.598 135.426C760.598 135.318 760.571 135.21 760.598 135.075V134.131V133.78C760.598 133.672 760.625 133.591 760.652 133.51C760.679 133.429 760.733 133.375 760.814 133.348C760.895 133.321 760.976 133.294 761.111 133.294C761.246 133.294 761.327 133.321 761.408 133.348C761.488 133.375 761.542 133.429 761.569 133.51C761.596 133.591 761.623 133.672 761.623 133.78V135.075ZM762.784 133.753C762.784 133.672 762.784 133.591 762.757 133.483C762.757 133.375 762.73 133.267 762.703 133.132C762.676 133.024 762.622 132.889 762.541 132.781C762.46 132.673 762.379 132.565 762.244 132.457C762.109 132.349 761.974 132.295 761.785 132.214C761.596 132.16 761.381 132.133 761.111 132.133C760.841 132.133 760.625 132.16 760.436 132.214C760.247 132.268 760.085 132.349 759.977 132.457C759.842 132.565 759.761 132.673 759.68 132.781C759.599 132.889 759.545 133.024 759.518 133.132C759.491 133.24 759.464 133.375 759.437 133.483C759.437 133.591 759.41 133.672 759.41 133.753V135.426C759.41 135.507 759.41 135.588 759.437 135.696C759.437 135.804 759.464 135.912 759.518 136.047C759.545 136.155 759.599 136.29 759.68 136.398C759.761 136.506 759.842 136.614 759.977 136.722C760.112 136.83 760.247 136.884 760.436 136.965C760.625 137.019 760.841 137.046 761.111 137.046C761.381 137.046 761.596 137.019 761.785 136.965C761.974 136.911 762.136 136.83 762.244 136.722C762.379 136.614 762.46 136.506 762.541 136.398C762.622 136.29 762.676 136.155 762.703 136.047C762.73 135.939 762.757 135.804 762.757 135.696C762.757 135.588 762.784 135.507 762.784 135.426V133.753ZM755.713 135.426C755.713 135.507 755.713 135.588 755.74 135.696C755.74 135.804 755.767 135.912 755.821 136.047C755.848 136.155 755.901 136.29 755.982 136.398C756.063 136.506 756.144 136.614 756.279 136.722C756.414 136.83 756.549 136.884 756.738 136.965C756.927 137.019 757.143 137.046 757.413 137.046C757.656 137.046 757.845 137.019 758.034 136.965C758.196 136.911 758.358 136.857 758.466 136.776C758.574 136.695 758.681 136.614 758.762 136.506C758.843 136.398 758.897 136.29 758.951 136.182C759.005 136.074 759.032 135.966 759.032 135.858C759.059 135.75 759.059 135.669 759.059 135.561C759.059 135.507 759.059 135.48 759.032 135.426C759.005 135.399 758.978 135.372 758.924 135.372L758.169 135.21C758.115 135.183 758.034 135.21 758.007 135.237C757.953 135.264 757.926 135.318 757.926 135.399C757.926 135.507 757.899 135.588 757.845 135.669C757.818 135.75 757.764 135.804 757.683 135.831C757.602 135.858 757.521 135.885 757.386 135.885C757.251 135.885 757.17 135.858 757.089 135.831C757.008 135.804 756.954 135.75 756.927 135.669C756.9 135.588 756.873 135.507 756.873 135.399C756.873 135.291 756.846 135.183 756.873 135.048V134.104V133.753C756.873 133.645 756.9 133.564 756.927 133.483C756.954 133.402 757.008 133.348 757.089 133.321C757.17 133.294 757.251 133.267 757.386 133.267C757.494 133.267 757.602 133.294 757.683 133.321C757.764 133.348 757.818 133.402 757.845 133.483C757.872 133.564 757.899 133.645 757.899 133.726C757.899 133.807 757.926 133.861 757.98 133.888C758.034 133.915 758.088 133.942 758.169 133.942L758.897 133.78C758.951 133.78 758.978 133.753 759.005 133.726C759.032 133.699 759.032 133.645 759.032 133.618C759.032 133.537 759.005 133.429 759.005 133.321L758.924 132.997C758.87 132.889 758.816 132.781 758.735 132.673C758.655 132.565 758.547 132.484 758.439 132.403C758.304 132.322 758.169 132.268 758.007 132.214C757.845 132.16 757.629 132.133 757.386 132.133C757.116 132.133 756.9 132.16 756.711 132.214C756.522 132.268 756.36 132.349 756.252 132.457C756.117 132.565 756.036 132.673 755.955 132.781C755.874 132.889 755.821 133.024 755.794 133.132C755.767 133.24 755.74 133.375 755.713 133.483C755.713 133.591 755.686 133.672 755.686 133.753V135.426H755.713ZM755.092 135.777C755.227 135.777 755.281 135.831 755.281 135.966V136.722C755.281 136.776 755.254 136.83 755.227 136.857C755.2 136.884 755.146 136.911 755.065 136.911H754.309C754.255 136.911 754.201 136.884 754.174 136.857C754.147 136.83 754.12 136.776 754.12 136.722V135.966C754.12 135.912 754.147 135.858 754.174 135.804C754.201 135.777 754.255 135.75 754.309 135.75L755.092 135.777Z" fill="#CCCCCC"/>
<path d="M705.672 118.423C703.162 118.207 690.908 120.204 689.991 118.045C688.452 114.455 701.327 116.479 703.054 116.533C703.918 116.56 704.997 116.722 705.618 116.56C706.05 116.425 706.347 115.724 706.833 115.454C707.912 114.806 709.667 115.157 711.178 115.292C712.204 115.373 713.202 115.481 714.282 115.562C712.744 115.778 711.097 115.994 709.478 116.209C709.289 116.236 708.992 116.155 708.857 116.371C710.503 116.641 712.366 116.695 714.147 116.83C712.393 117.1 710.422 117.154 708.695 117.478C708.803 117.667 709.127 117.613 709.316 117.64C710.854 117.748 712.555 117.883 714.174 117.964C712.501 118.234 710.557 118.288 708.884 118.612C708.938 118.882 709.289 118.801 709.451 118.801C710.989 118.989 712.717 119.205 714.309 119.34C712.555 119.475 710.395 119.88 708.587 119.988C707.184 120.069 706.347 119.259 705.672 118.423Z" fill="#CCCCCC"/>
<path d="M701.327 118.639C703.271 118.477 704.917 118.342 705.673 118.396C706.024 118.828 706.374 119.232 706.86 119.529C707.319 119.826 707.859 120.015 708.561 119.961C709.559 119.907 710.666 119.745 711.746 119.61C712.528 119.502 713.284 119.394 713.986 119.34C713.284 119.286 712.582 119.205 711.853 119.125C711.017 119.044 710.207 118.936 709.451 118.828H709.316C709.127 118.828 708.885 118.828 708.858 118.612V118.585H708.885C709.802 118.396 710.828 118.288 711.853 118.207C712.555 118.153 713.257 118.072 713.905 117.991C712.69 117.91 711.422 117.829 710.234 117.748C709.937 117.721 709.64 117.694 709.343 117.694H709.208C709.019 117.694 708.804 117.694 708.696 117.532L708.669 117.505H708.696C709.667 117.316 710.72 117.208 711.773 117.127C712.474 117.073 713.203 116.992 713.878 116.911C713.527 116.884 713.149 116.857 712.798 116.83C711.449 116.749 710.072 116.668 708.858 116.479H708.804L708.831 116.452C708.939 116.291 709.127 116.291 709.289 116.291H709.451L710.747 116.129C711.826 115.994 712.933 115.832 713.959 115.697C713.338 115.643 712.717 115.589 712.123 115.535C711.799 115.508 711.503 115.481 711.152 115.454L710.342 115.373C709.046 115.238 707.697 115.076 706.833 115.616C706.617 115.751 706.428 115.967 706.266 116.183C706.051 116.425 705.862 116.668 705.619 116.749C705.187 116.857 704.539 116.83 703.891 116.776C703.594 116.749 703.298 116.722 703.028 116.722C702.731 116.722 702.11 116.641 701.3 116.56C698.385 116.102 692.906 115.535 690.774 116.452C690.018 116.776 689.694 117.262 690.018 118.045C690.639 119.529 696.793 119.017 701.327 118.639ZM705.673 118.45C704.917 118.396 703.271 118.531 701.327 118.693C696.793 119.071 690.612 119.583 689.964 118.045C689.613 117.235 689.964 116.722 690.747 116.371C692.906 115.454 698.385 116.021 701.327 116.318C702.137 116.398 702.758 116.479 703.055 116.479C703.325 116.479 703.621 116.506 703.918 116.533C704.566 116.587 705.187 116.614 705.619 116.506C705.835 116.452 706.024 116.21 706.239 115.967C706.428 115.751 706.59 115.535 706.833 115.4C707.724 114.86 709.073 115.022 710.396 115.157L711.206 115.238C711.503 115.265 711.853 115.292 712.177 115.319C712.879 115.373 713.581 115.454 714.31 115.481L714.607 115.508L714.337 115.562C713.23 115.724 712.042 115.886 710.855 116.048L709.559 116.21H709.397C709.262 116.21 709.1 116.21 708.992 116.318C710.207 116.506 711.557 116.587 712.906 116.668C713.365 116.695 713.797 116.722 714.256 116.749L714.526 116.776L714.256 116.803C713.5 116.911 712.69 116.992 711.88 117.073C710.855 117.181 709.802 117.262 708.858 117.451C708.939 117.559 709.127 117.559 709.289 117.559H709.424C709.721 117.586 710.018 117.613 710.315 117.613C711.611 117.721 712.96 117.802 714.256 117.883L714.526 117.91L714.256 117.964C713.5 118.072 712.717 118.153 711.934 118.234C710.936 118.342 709.937 118.423 709.019 118.612C709.073 118.774 709.262 118.747 709.424 118.747H709.559C710.342 118.828 711.152 118.936 711.961 119.044C712.771 119.125 713.608 119.232 714.391 119.286V119.34C713.608 119.394 712.717 119.529 711.826 119.637C710.747 119.772 709.64 119.934 708.642 119.988C707.94 120.042 707.373 119.853 706.914 119.556C706.374 119.286 705.997 118.882 705.673 118.45Z" fill="#CCCCCC"/>
</g>
<line x1="853.266" y1="105" x2="853.266" y2="137" stroke="#E6E6E6"/>
<g clip-path="url(#clip1_516_4660)">
<path d="M1046.18 105C1044.11 105 1042.42 106.672 1042.42 108.742C1042.42 110.822 1044.13 112.489 1046.2 112.484C1048.27 112.489 1049.93 110.822 1049.93 108.742C1049.92 106.677 1048.25 105 1046.18 105ZM978.251 105.063C976.171 105.063 974.494 106.719 974.494 108.789C974.494 110.87 976.176 112.562 978.251 112.568C980.316 112.568 981.993 110.87 981.993 108.789C981.998 106.719 980.316 105.063 978.251 105.063ZM1034.15 109.266C1032.08 109.266 1030.39 110.938 1030.39 113.008C1030.39 115.078 1032.08 116.765 1034.15 116.765C1036.22 116.765 1037.89 115.083 1037.89 113.008C1037.9 110.943 1036.22 109.266 1034.15 109.266ZM1058.29 109.266C1056.22 109.266 1054.53 110.938 1054.53 113.008C1054.53 115.078 1056.22 116.765 1058.29 116.765C1060.37 116.765 1062.01 115.078 1062.01 113.008C1062.01 110.938 1060.37 109.261 1058.29 109.266ZM990.09 109.329C988.025 109.329 986.332 111.022 986.332 113.086C986.332 115.162 988.02 116.828 990.09 116.828C992.15 116.828 993.832 115.157 993.832 113.086C993.832 111.022 992.155 109.329 990.09 109.329ZM966.192 109.428C964.127 109.423 962.45 111.095 962.45 113.16V113.176C962.45 115.251 964.117 116.938 966.192 116.933C968.252 116.933 969.934 115.246 969.934 113.176C969.934 111.1 968.252 109.428 966.192 109.428ZM1047.47 118.17C1047.47 118.17 1040.02 118.217 1039.93 118.217C1038.66 118.217 1037.59 119.297 1037.59 120.56L1037.57 134.102H1037.59C1037.64 135.706 1038.99 137 1040.6 137C1042.23 137 1043.57 135.706 1043.63 134.102V129.396C1043.63 129.396 1046.61 129.38 1046.71 129.38C1047.85 129.38 1048.81 128.468 1048.81 127.315C1048.81 126.157 1047.86 125.214 1046.71 125.214H1043.63V123.961H1047.47C1049.06 123.961 1050.34 122.688 1050.34 121.094C1050.33 119.517 1049.06 118.17 1047.47 118.17ZM1061.17 118.17C1061.17 118.17 1053.72 118.217 1053.63 118.217C1052.36 118.217 1051.29 119.292 1051.29 120.56V134.102H1051.31C1051.36 135.706 1052.68 137 1054.3 137C1055.94 137 1057.25 135.711 1057.3 134.102H1057.32V129.396C1057.32 129.396 1060.29 129.38 1060.39 129.38C1061.54 129.38 1062.5 128.468 1062.5 127.315C1062.5 126.157 1061.54 125.214 1060.39 125.214H1057.31V123.961H1061.15C1062.74 123.961 1064.02 122.688 1064.02 121.094C1064.02 119.517 1062.75 118.165 1061.17 118.17ZM993.764 118.201C992.176 118.201 990.897 119.48 990.897 121.052C990.897 121.157 990.918 121.267 990.929 121.377L990.913 134.076L990.929 134.222C991.007 135.721 992.249 136.927 993.78 136.927C995.367 136.927 996.646 135.653 996.646 134.076C996.646 133.892 996.63 133.719 996.599 133.557V129.789L1000.86 135.517C1000.93 135.611 1001 135.706 1001.06 135.81L1001.07 135.842C1001.62 136.481 1002.46 136.885 1003.37 136.885C1005.03 136.885 1006.37 135.543 1006.37 133.887C1006.37 133.311 1006.21 132.745 1005.9 132.257L1005.85 132.194C1005.81 132.126 1005.77 132.058 1005.72 132L1001.86 126.822L1005 123.028H1004.98C1005.39 122.53 1005.65 121.896 1005.65 121.189C1005.64 119.575 1004.33 118.243 1002.72 118.243C1001.66 118.243 1000.74 118.804 1000.23 119.643L996.599 124.024V121.482C996.615 121.341 996.63 121.189 996.63 121.042C996.63 119.48 995.346 118.201 993.764 118.201ZM935.544 118.217C934.145 118.217 933.024 119.36 933.024 120.738C933.024 120.738 933.008 134.186 933.008 134.411C933.008 135.842 934.098 136.916 935.529 136.916L942.038 136.932C945.234 136.932 947.834 134.348 947.834 131.151C947.834 129.343 947.027 127.734 945.732 126.676C946.492 125.774 946.969 124.606 946.969 123.322C946.974 120.513 944.642 118.207 941.807 118.212H935.544V118.217ZM979.493 118.301C974.378 118.301 970.217 122.457 970.217 127.577C970.217 132.697 974.378 136.869 979.493 136.869C984.613 136.869 988.775 132.697 988.769 127.577C988.769 122.457 984.613 118.301 979.493 118.301ZM958.509 118.332C953.384 118.332 949.244 122.499 949.249 127.63C949.249 132.745 953.379 136.895 958.509 136.89C963.64 136.89 967.785 132.745 967.785 127.63C967.785 122.504 963.64 118.332 958.509 118.332ZM1026.81 118.332C1021.67 118.332 1017.49 122.515 1017.49 127.661C1017.49 132.797 1021.66 136.974 1026.81 136.974C1031.94 136.974 1036.12 132.797 1036.12 127.661C1036.12 122.515 1031.95 118.332 1026.81 118.332ZM938.065 122.431H940.392C941.168 122.431 941.791 123.044 941.791 123.83C941.791 124.595 941.162 125.198 940.392 125.198C940.319 125.198 938.065 125.214 938.065 125.214V122.431ZM1011.3 123.652C1009.23 123.652 1007.56 125.339 1007.56 127.409C1007.56 129.48 1009.23 131.167 1011.3 131.167C1013.37 131.167 1015.06 129.48 1015.06 127.409C1015.05 125.345 1013.36 123.652 1011.3 123.652ZM979.493 123.736C981.621 123.736 983.35 125.46 983.35 127.593C983.35 129.715 981.621 131.434 979.493 131.434C977.365 131.434 975.652 129.705 975.652 127.577C975.647 125.46 977.36 123.741 979.478 123.736H979.493ZM958.509 123.767C960.632 123.767 962.366 125.491 962.366 127.624C962.366 129.752 960.637 131.471 958.509 131.466C956.403 131.471 954.673 129.752 954.668 127.624C954.668 125.491 956.397 123.767 958.509 123.767ZM1026.81 123.799C1028.94 123.799 1030.66 125.512 1030.66 127.656C1030.66 129.783 1028.93 131.513 1026.81 131.513C1024.67 131.513 1022.94 129.783 1022.95 127.656C1022.94 125.528 1024.66 123.804 1026.79 123.799H1026.81ZM938.065 129.17L941.026 129.186C941.833 129.186 942.494 129.825 942.494 130.632C942.488 131.45 941.838 132.1 941.026 132.1H938.081L938.065 129.17ZM1061.04 132.1C1059.69 132.1 1058.61 133.185 1058.61 134.542C1058.62 135.905 1059.68 136.984 1061.04 136.984C1062.39 136.984 1063.48 135.899 1063.48 134.542C1063.49 133.195 1062.4 132.105 1061.05 132.1C1061.05 132.1 1061.04 132.1 1061.04 132.1ZM1061.04 132.346C1062.24 132.346 1063.24 133.326 1063.24 134.542C1063.24 135.753 1062.24 136.738 1061.04 136.738C1059.83 136.738 1058.86 135.747 1058.86 134.542C1058.86 133.326 1059.83 132.346 1061.04 132.346ZM1059.93 133.096V135.926H1060.52V134.82H1061.12C1061.3 134.82 1061.42 134.841 1061.48 134.904C1061.54 134.956 1061.58 135.082 1061.58 135.26V135.522C1061.58 135.611 1061.59 135.685 1061.59 135.768C1061.61 135.816 1061.63 135.873 1061.64 135.931H1062.29V135.868C1062.23 135.837 1062.19 135.763 1062.18 135.69C1062.17 135.643 1062.16 135.559 1062.16 135.428V135.25C1062.16 135.05 1062.13 134.904 1062.08 134.809C1062.02 134.71 1061.92 134.636 1061.8 134.584C1061.95 134.532 1062.08 134.437 1062.14 134.306C1062.21 134.18 1062.23 134.049 1062.24 133.913C1062.24 133.798 1062.22 133.709 1062.19 133.62C1062.15 133.531 1062.09 133.452 1062.03 133.373C1061.96 133.284 1061.87 133.221 1061.77 133.179C1061.66 133.132 1061.52 133.106 1061.33 133.096H1059.93ZM1060.52 133.599H1061.2C1061.33 133.599 1061.42 133.614 1061.48 133.646C1061.59 133.704 1061.66 133.814 1061.66 133.987C1061.66 134.139 1061.59 134.243 1061.48 134.296C1061.41 134.327 1061.32 134.343 1061.19 134.343H1060.52V133.599Z" fill="#CCCCCC"/>
</g>
<line x1="1144.76" y1="105" x2="1144.76" y2="137" stroke="#E6E6E6"/>
<path fill-rule="evenodd" clip-rule="evenodd" d="M1225.83 133.302L1233.54 133.196L1233.56 133.149L1225.25 131.786L1225.21 131.621L1232.17 131.519C1232.17 131.519 1232.12 131.377 1231.94 131.025L1224.78 129.854L1224.75 129.69L1231.45 129.591L1231.35 129.111L1224.55 128.07L1224.55 127.867L1231.15 127.77L1231.1 127.271L1224.5 126.158L1224.51 125.992L1231.1 125.895C1231.06 125.701 1231.12 125.311 1231.12 125.311L1224.6 124.292L1224.63 124.126L1231.22 124.047C1231.22 123.951 1231.25 123.596 1231.25 123.596L1224.84 122.415L1224.87 122.249L1231.52 122.151C1231.52 122.151 1231.56 121.777 1231.64 121.582L1225.23 120.579L1225.28 120.412L1231.94 120.314C1231.94 120.314 1232.08 119.918 1232.16 119.772L1225.78 118.784L1225.82 118.637L1232.6 118.537C1232.6 118.537 1232.79 118.118 1232.84 118.005L1226.51 117L1226.58 116.852L1233.47 116.75C1233.47 116.75 1233.66 116.378 1233.83 116.117L1227.5 115.113L1227.57 114.983L1234.66 114.896C1234.66 114.896 1234.87 114.552 1235.06 114.372L1228.67 113.39L1228.79 113.241L1236.04 113.134C1236.04 113.134 1236.32 112.818 1236.52 112.654L1230.24 111.669L1230.34 111.521L1237.72 111.405L1238.21 110.966L1232.48 109.697L1232.47 109.698C1234.93 108.101 1237.97 107.136 1241.65 107.085C1248.48 106.991 1254.25 110.46 1254.44 118.605L1245.56 118.727C1245.26 115.84 1243.59 114.856 1241.2 114.889C1236.03 114.96 1233.8 120.642 1233.87 126.03C1233.92 129.708 1235.49 132.14 1239.29 132.087C1241.81 132.052 1243.93 131.104 1244.83 128.55L1240.57 128.608L1241.84 121.888L1254.31 121.716L1251.03 138.977L1245.1 139.059L1245.32 136.034L1245.23 135.947C1243.3 138.689 1240.29 139.87 1237.04 139.915C1230.7 140.003 1227.42 136.784 1225.84 133.328L1225.83 133.302ZM1271.57 121.955C1270.66 121.404 1269.53 121.025 1268.08 121.042C1266.28 121.063 1264.31 121.817 1264.34 124.148C1264.38 127.435 1270.89 127.386 1270.95 132.526C1270.98 135.476 1269.02 138.842 1264.42 138.896C1262.2 138.923 1260.61 138.436 1259.07 137.836L1259.92 135.241C1261.05 135.958 1262.62 136.446 1263.96 136.43C1266.86 136.396 1268.07 134.527 1268.05 132.898C1268.01 128.909 1261.5 129.689 1261.44 124.24C1261.4 120.672 1264.55 118.612 1267.7 118.574C1269.29 118.556 1270.85 118.846 1272.31 119.447L1271.57 121.955ZM1282.51 138.092C1281.18 138.445 1279.78 138.715 1278.39 138.731C1274.99 138.771 1271.94 137.403 1271.88 132.347C1271.84 128.386 1274.49 123.775 1279.42 123.716C1282.79 123.676 1284.7 125.733 1284.74 129.132C1284.75 130.086 1284.65 130.903 1284.52 131.747L1274.69 131.864C1274.64 132.161 1274.62 132.462 1274.62 132.764C1274.66 135.769 1276.47 136.618 1278.96 136.589C1280.25 136.574 1281.64 136.221 1282.9 135.671L1282.51 138.092ZM1282.09 129.809C1282.14 129.388 1282.17 129.05 1282.16 128.713C1282.14 127.028 1281.12 125.832 1279.17 125.854C1277.07 125.879 1275.47 127.781 1274.95 129.894L1282.09 129.809ZM1286.4 126.161C1286.51 125.57 1286.66 124.81 1286.76 123.966L1289.17 123.937L1288.76 126.218H1288.81C1289.62 124.859 1291.11 123.577 1293.55 123.549C1293.79 123.546 1294.23 123.597 1294.73 123.788L1294.18 126.126C1293.68 125.936 1293.27 125.855 1293.08 125.859C1289.91 125.895 1288.38 129.453 1288.05 131.227L1286.68 138.295L1284.1 138.326L1286.4 126.161ZM1295.52 123.861L1298.1 123.832L1295.3 138.192L1292.73 138.223L1295.52 123.861ZM1298.91 120.619L1296.01 120.653L1296.58 117.668L1299.48 117.634L1298.91 120.619ZM1308.33 137.785C1306.99 138.138 1305.6 138.408 1304.2 138.424C1300.8 138.465 1297.75 137.096 1297.69 132.04C1297.65 128.079 1300.31 123.468 1305.24 123.409C1308.6 123.37 1310.51 125.427 1310.55 128.825C1310.56 129.781 1310.46 130.596 1310.34 131.441L1300.51 131.557C1300.46 131.854 1300.43 132.155 1300.44 132.457C1300.47 135.462 1302.29 136.311 1304.78 136.282C1306.06 136.268 1307.46 135.914 1308.71 135.366L1308.33 137.785ZM1307.9 129.502C1307.96 129.081 1307.98 128.743 1307.97 128.406C1307.96 126.721 1306.93 125.525 1304.99 125.547C1302.88 125.573 1301.28 127.474 1300.76 129.587L1307.9 129.502Z" fill="#CCCCCC"/>
<path fill-rule="evenodd" clip-rule="evenodd" d="M1319.26 126.109C1318.54 125.752 1317.41 125.4 1316.46 125.411C1315.33 125.424 1313.86 125.751 1313.88 127.184C1313.9 129.627 1318.67 129.683 1318.71 133.672C1318.75 137.128 1315.67 138.288 1313.48 138.313C1311.26 138.34 1310.44 138.041 1309.39 137.687L1309.86 135.407C1310.88 135.816 1311.95 136.197 1313.07 136.183C1314.47 136.167 1316 135.558 1315.98 133.929C1315.95 131.485 1311.18 131.176 1311.14 127.553C1311.11 124.519 1314.05 123.304 1316.35 123.277C1317.58 123.262 1318.85 123.556 1320 124.02L1319.26 126.109Z" fill="#CCCCCC"/>
<path d="M1546.75 60.945C1549.06 57.5733 1551.23 54.0892 1553.2 50.4902C1555.4 46.4931 1557.01 42.1642 1559.36 38.2794C1563.29 31.7716 1566.43 24.9489 1569.02 17.7709C1570.49 13.7372 1570.12 10.415 1568.11 6.63504C1565.37 1.47129 1557.05 -1.6413 1551.61 3.68347C1549.44 5.80725 1547.98 8.14569 1547.38 11.0441C1546.84 13.6624 1546.58 16.3413 1546.12 18.9909C1545.81 20.7442 1545.69 22.629 1544.95 24.1927C1541.69 31.0207 1538.4 37.8427 1534.79 44.4732C1532.29 49.0439 1529.27 53.3248 1526.43 57.6944C1525.25 59.5055 1523.93 61.2304 1522.87 62.7141C1519.97 61.0983 1517.49 59.7611 1515.06 58.3113C1514.15 57.7619 1513.2 57.0851 1512.6 56.2115C1510.47 53.1367 1507.57 51.5933 1504.01 51.3918C1499.77 51.1561 1495.53 51.157 1491.29 51.0627C1489.54 51.0239 1487.76 51.2747 1486.07 50.9688C1483.84 50.5868 1481.69 49.4804 1479.46 49.2659C1477.24 49.0479 1474.95 49.5376 1472.6 49.7359C1470.27 44.6275 1465.99 44.1197 1462.68 48.0737C1460.7 50.4407 1459.65 53.1267 1459.06 56.1927C1458.38 59.674 1457.61 63.2393 1456.24 66.4763C1453.26 73.4637 1451.9 80.5713 1453.56 88.0634C1455.44 96.495 1456.2 105.077 1456.47 113.671C1456.7 121.333 1459.62 127.614 1464.79 132.739C1470.51 138.403 1476.52 143.777 1482.58 149.051C1484.62 150.82 1487.11 152.209 1489.6 153.208C1495.19 155.444 1500.9 157.337 1506.58 159.338C1508.43 159.993 1510.31 160.611 1512.21 161.084C1518.36 162.621 1524.32 162.469 1529.94 159.056C1530.94 158.461 1532.18 158.19 1533.33 157.956C1541.71 156.284 1548.11 151.679 1552.78 144.393C1553.98 142.535 1555.29 140.715 1556.81 139.135C1558.93 136.91 1560.57 134.441 1561.23 131.426C1562.44 125.862 1563.44 120.259 1564.61 114.693C1566.35 106.432 1563.57 99.5242 1558.66 93.2314C1556.28 90.1709 1553.73 87.2546 1551.42 84.1433C1549.14 81.0417 1546.34 78.6552 1542.97 76.903C1541.14 75.9489 1539.37 74.8788 1537.41 73.7626C1540.63 69.3436 1543.81 65.231 1546.75 60.945ZM1477.25 51.9359C1478.53 52.0024 1479.94 51.9387 1481.08 52.4251C1484.42 53.8493 1487.85 53.8294 1491.37 53.7754C1495.39 53.7058 1499.42 53.8466 1503.44 54.017C1506.41 54.1399 1508.81 55.3472 1510.66 57.9503C1511.63 59.2971 1513.29 60.2278 1514.79 61.0497C1516.8 62.1518 1518.94 62.979 1520.54 65.0938C1519.59 66.1943 1518.67 67.2617 1517.76 68.3256C1514.15 67.2969 1511.22 65.5929 1508.72 62.9287C1507 61.102 1505.01 59.4902 1502.95 58.0505C1500.93 56.6299 1498.56 56.4801 1496.22 56.8032C1496.12 57.1532 1496.03 57.4997 1495.93 57.8497C1496.37 57.7994 1496.8 57.6375 1497.22 57.7059C1500.65 58.2217 1503.32 60.0944 1505.43 62.7818C1508.16 66.2537 1511.22 69.1843 1516.23 70.4712C1512.62 73.8751 1511.26 78.988 1505.61 79.4766C1504.08 76.812 1501.75 75.1797 1498.67 74.7499C1496.42 74.4307 1495.83 74.5361 1493.27 75.9964C1494.48 77.3325 1496.12 76.8837 1497.48 77.2939C1498.86 77.7006 1500.23 78.1499 1501.56 79.0043C1497.95 78.8202 1494.42 78.5558 1491 80.7737C1492.73 82.035 1494.26 80.7601 1495.74 80.9284C1497.45 81.1453 1499.18 81.329 1500.87 81.648C1502.45 81.9427 1504.02 82.3954 1505.8 82.8312C1502.96 89.7111 1501.97 96.8549 1504.91 104.841C1506.11 102.491 1504.94 100.822 1505.08 99.1703C1505.21 97.535 1505.14 95.9 1505.65 94.1761C1506.48 96.4288 1507.32 98.6815 1508.15 100.934C1508.4 100.881 1508.63 100.818 1508.87 100.764C1508.87 100.176 1508.95 99.5931 1508.87 99.0129C1508.64 97.5744 1508.3 96.1674 1508.1 94.7219C1507.26 88.74 1508.51 83.4186 1512.74 78.9591C1515.1 76.4739 1517.14 73.6688 1519.58 71.2873C1527.43 63.6177 1532.68 53.9855 1538.48 44.8203C1542.25 38.8475 1544.97 32.1667 1547.94 25.6854C1548.84 23.7115 1549 21.3694 1549.46 19.1962C1550.16 15.8196 1550.76 12.4151 1551.51 9.04095C1552.83 3.02495 1560.92 2.48453 1564.41 6.69893C1566.8 9.57536 1567.88 12.6715 1566.43 16.5901C1564.1 22.883 1561.45 28.9678 1557.9 34.6707C1555.56 38.4272 1553.64 42.4755 1551.75 46.5002C1549.62 51.0548 1547.22 55.4003 1544.13 59.3637C1537.12 68.3594 1530.29 77.5163 1523.34 86.5764C1522 88.3345 1520.55 90.0089 1519.05 91.6415C1516.44 94.4761 1514.86 97.8844 1513.63 101.503C1513.47 101.983 1513.53 102.54 1513.47 103.343C1516.32 102.545 1516.51 99.7583 1518.21 98.0137C1523.42 103.861 1521.76 110.612 1520.58 118.019C1521.4 117.035 1521.94 116.678 1522.08 116.189C1524.03 109.863 1524.53 103.681 1520.27 97.9946C1519.54 97.0183 1519.56 96.9982 1519.71 95.2739C1522.92 96.0465 1523.23 99.5799 1525.24 101.425C1527.36 98.6674 1527 97.5597 1522.43 92.5491C1525.46 88.6722 1528.5 84.7657 1531.5 80.9255C1535.23 82.2279 1537.89 84.3868 1539.82 87.7672C1540.95 89.729 1542.85 91.2275 1544.47 92.8554C1545.16 93.5499 1546.09 94.0104 1546.84 94.6446C1550.1 97.4502 1551.71 100.849 1550.58 105.298C1549.57 109.222 1549.25 113.207 1549.4 117.275C1549.53 120.522 1548.73 122.465 1546.82 124.758C1542.38 120.357 1537.37 116.993 1531.04 116.153C1536.08 119.45 1542.34 121.208 1544.94 127.856C1541.15 130.314 1539.15 133.709 1538.17 137.528C1533.67 136.114 1529.45 134.751 1525.19 133.454C1519.53 131.728 1514.95 128.473 1511.73 123.383C1508.58 118.374 1504.78 113.922 1500.72 109.694C1499.8 108.741 1498.88 107.774 1497.82 107.001C1494.75 104.731 1490.96 105.128 1488.31 107.917C1487.28 108.999 1486.32 110.146 1485.35 111.27C1485.14 111.159 1484.92 111.038 1484.71 110.926C1484.9 109.543 1484.92 108.107 1485.28 106.773C1486.48 102.32 1486.36 98.1462 1483.31 94.4138C1481.89 92.6871 1482.15 90.652 1483.21 89.0993C1486.7 83.9462 1485.15 79.0445 1482.73 74.2529C1481.23 71.2594 1478.98 68.6925 1476.07 67.0112C1473.43 65.4928 1471.97 63.0471 1470.67 60.4608C1469.61 58.3532 1469.43 56.2174 1470.77 54.0816C1471.24 53.3341 1471.54 52.4813 1471.84 51.8091C1473.67 51.8958 1475.46 51.8517 1477.25 51.9359ZM1559.22 103.217C1561.32 104.87 1562.45 107.068 1562.1 109.942C1561.17 117.266 1560.57 124.666 1558.02 131.649C1557.31 133.583 1556.01 135.301 1554.85 137.036C1553.92 138.413 1552.62 139.542 1551.83 140.979C1549.21 145.782 1545.53 149.542 1541.2 152.639C1539.47 153.872 1537.39 154.597 1534.91 155.826C1535.41 154.553 1535.67 153.835 1535.97 153.051C1535.65 152.958 1535.36 152.799 1535.29 152.876C1533.43 154.676 1531.15 155.625 1528.89 156.765C1523.32 159.588 1517.68 159.469 1512.03 157.559C1504.88 155.149 1497.79 152.541 1490.74 149.837C1488.74 149.069 1486.73 147.954 1485.11 146.533C1478.97 141.168 1472.76 135.864 1467.01 130.082C1461.45 124.487 1458.33 117.365 1458.52 109.279C1458.68 101.913 1457.44 94.8077 1456.09 87.6781C1454.79 80.8138 1455.81 74.4055 1458.42 68.0224C1459.88 64.4519 1460.78 60.5986 1461.6 56.7994C1462.15 54.2204 1462.86 51.8524 1464.61 49.8574C1466.25 47.9759 1466.27 47.9428 1469.12 48.9121C1469.6 50.5597 1468.89 51.975 1468.13 53.3353C1466.89 55.5252 1466.75 57.7651 1467.56 60.1235C1468.89 64.0072 1470.89 67.2846 1474.4 69.6291C1478.76 72.5407 1481.75 76.6126 1482.45 82.0842C1482.65 83.6284 1482.82 85.2223 1481.52 86.6871C1478.71 86.0161 1476.02 86.378 1473.55 89.3415C1475.89 89.2584 1477.83 89.1888 1479.77 89.1193C1480.31 91.1437 1479.7 91.8443 1478.03 92.0801C1473.73 92.6997 1470.71 95.5348 1467.6 98.171C1467.72 98.4187 1467.84 98.6663 1467.96 98.914C1468.56 98.6078 1469.16 98.3183 1469.76 98.0122C1471.12 97.3151 1472.48 96.5788 1473.86 95.9305C1479.96 93.1048 1482.47 95.8083 1483.52 102.25C1483.72 103.403 1483.36 104.694 1483.12 105.894C1482.67 108.093 1482.2 110.227 1482.79 112.52C1483.01 113.358 1482.59 114.495 1482.17 115.327C1481.43 116.792 1480.47 118.136 1479.99 119.909C1481.14 118.808 1482.26 117.672 1483.45 116.616C1484.74 115.447 1486.1 114.346 1487.43 113.235C1488.44 112.396 1489.51 111.626 1490.5 110.751C1492.71 108.797 1494.52 108.621 1496.51 110.782C1500.02 114.598 1503.35 118.592 1506.66 122.59C1507.71 123.856 1508.48 125.371 1509.46 126.714C1511.58 129.608 1512.41 132.844 1510.97 136.184C1509.66 139.209 1507.85 142.02 1506.21 144.897C1505.9 145.432 1505.4 145.864 1504.98 146.328C1510.66 144.403 1513.02 141.09 1515.14 132.599C1518.66 135.361 1522.62 136.824 1526.82 137.632C1528.65 137.985 1530.47 138.354 1532.29 138.668C1535.65 139.244 1537.52 141.213 1537.79 144.727C1537.9 146.128 1538.06 147.528 1538.24 149.441C1540.88 146.037 1540.22 142.868 1539.22 139.987C1540.18 138.292 1540.89 136.765 1541.86 135.46C1543.03 133.892 1544.41 132.502 1545.74 131.056C1549.26 127.213 1552.85 123.353 1552.68 117.58C1552.56 113.517 1552.97 109.548 1553.83 105.597C1554.18 104.001 1554.13 102.316 1554.3 100.167C1556.1 101.283 1557.79 102.082 1559.22 103.217ZM1542.58 79.6467C1545.16 81.1399 1547.3 83.1301 1549.11 85.5928C1551.59 88.9769 1554.25 92.23 1556.76 95.5774C1557.71 96.8458 1558.51 98.2382 1559.59 99.9183C1557.47 99.4619 1555.88 99.2265 1554.35 98.7634C1553.71 98.5608 1553.07 97.9674 1552.71 97.3789C1550.89 94.3875 1548.51 92.0826 1545.6 90.1613C1543.92 89.0536 1542.37 87.4177 1541.3 85.6783C1539.67 82.999 1537.65 81.0165 1534.85 79.8098C1534.37 79.6044 1533.98 79.207 1533.34 78.7384C1534.14 77.6764 1534.84 76.7541 1535.59 75.762C1538.03 77.0966 1540.34 78.3284 1542.58 79.6467Z" fill="#E6E6E6"/>
<path d="M1550.4 42.9586C1551.18 41.2562 1551.96 39.5145 1553.01 37.9784C1555 35.046 1557.07 32.165 1559.32 29.4286C1562.46 25.6057 1562.65 21.0517 1562.72 16.4473C1562.73 15.8557 1562.4 15.2436 1562.17 14.3966C1560.07 15.9707 1559.39 18.0228 1559.26 20.1179C1559.06 23.384 1557.82 26.1655 1556.2 28.8548C1554.65 31.4281 1553.14 34.0301 1551.49 36.5293C1549.03 40.2781 1548.21 44.6261 1547.05 48.8584C1548.88 47.2891 1549.45 45.0154 1550.4 42.9586Z" fill="#E6E6E6"/>
<path d="M1488.83 57.3483C1485.1 57.1959 1482.05 57.0809 1478.81 56.9462C1481.2 59.7964 1485.23 60.075 1488.83 57.3483Z" fill="#E6E6E6"/>
<defs>
<clipPath id="clip0_516_4660">
<rect width="82.6446" height="32" fill="white" transform="translate(689.883 105)"/>
</clipPath>
<clipPath id="clip1_516_4660">
<rect width="131.019" height="32" fill="white" transform="translate(933.003 105)"/>
</clipPath>
</defs>
</svg>
