<svg width="94" height="158" viewBox="0 0 94 158" fill="none" xmlns="http://www.w3.org/2000/svg">
<path d="M17.309 126.268C18.4359 129.844 20.2238 132.894 22.8833 135.418C27.6613 139.925 30.9217 145.244 31.8984 151.81C32.6797 157.099 38.6297 159.894 43.4377 155.657C45.3759 153.944 47.0588 151.855 48.5312 149.722C52.3176 144.208 55.7433 138.453 59.6348 133.044C62.8502 128.566 66.8168 124.84 72.1958 122.797C76.0573 121.339 79.1525 118.575 81.5715 115.269C85.8086 109.469 89.2343 103.264 90.3763 96.022C90.6167 94.5195 91.0223 93.017 91.5182 91.5746C94.6885 82.4994 94.4931 73.2739 92.7653 63.9734C91.9238 59.4207 89.5198 55.9049 85.9739 53.0651C85.2978 52.5242 84.5615 52.0734 84.0356 51.7128C83.7652 48.7529 83.675 46.0033 83.2393 43.3138C81.9622 35.4406 77.8453 29.0549 72.5715 23.3003C68.6499 19.0181 64.7283 14.7209 60.6866 10.559C58.4779 8.29017 56.194 6.02137 53.6247 4.1883C44.4895 -2.28754 34.047 -1.16065 26.264 6.92288C23.6045 9.6875 21.0653 12.6024 18.2105 15.1416C15.551 17.5156 13.7781 20.2953 13.0418 23.706C12.4709 26.3804 12.1253 29.085 11.7046 31.7895C11.5393 32.8262 11.4792 33.893 11.329 35.2904C8.29388 33.9381 5.63443 32.7211 2.95995 31.5491C1.99834 31.1284 1.03674 30.7978 0.0751257 30.5124L0.0751257 33.8179C1.35226 34.1635 2.11855 35.2453 2.59935 36.5675C3.51588 39.0767 4.10186 41.646 3.44076 44.2904C2.71955 47.1602 1.74292 49.9699 1.11186 52.8548C0.646081 55.0034 0.330553 57.182 0.0601006 59.3606L0.0601006 62.6061C0.225377 63.1169 0.450754 63.6278 0.601006 64.1236C0.931559 64.0635 1.24709 64.0034 1.57764 63.9433C1.66779 63.4475 1.87814 62.9366 1.81804 62.4408C1.42739 58.6244 2.3289 55.0484 3.65111 51.5175C5.40905 46.7846 6.14528 41.9765 4.58267 37.0182C4.49252 36.7328 4.64277 36.3872 4.7179 35.666C7.06182 37.0032 9.19539 38.3254 11.4191 39.4523C13.9433 40.7295 16.4676 42.0967 19.142 42.9382C23.319 44.2453 26.6847 46.6043 29.1037 50.0901C32.1989 54.5526 36.0002 58.3239 39.8767 62.0351C45.0754 67.0084 47.7048 72.9133 47.5997 80.2156C47.5696 82.7849 47.0437 84.8283 45.5412 86.8416C42.1305 91.4243 40.0721 96.4577 40.012 102.348C39.9669 106.089 37.8483 109.169 35.234 111.813C33.2206 113.857 31.3725 115.945 30.6964 118.905C30.0653 121.7 30.4409 124.314 31.2223 126.989C32.5294 131.391 33.6864 135.839 34.8734 140.271C35.6096 143.021 36.466 145.68 38.7048 148.4C39.1706 147.032 39.6063 146.086 39.8317 145.094C40.8233 140.602 41.6046 136.064 42.7616 131.617C43.9936 126.869 44.5496 122.151 43.5729 117.313C43.4828 116.892 43.5579 116.441 43.5579 115.329C44.6698 116.276 45.436 116.922 46.1873 117.583C46.9235 118.229 47.6297 118.92 48.5763 119.807C47.1038 124.54 45.2407 129.243 44.219 134.111C43.2273 138.859 43.1071 143.787 42.6113 148.625C44.1439 149.121 44.5345 147.949 44.9402 147.183C47.9603 141.608 50.9503 136.004 53.8651 130.369C56.4795 125.291 54.9169 120.829 51.6565 116.667C51.386 116.321 51.0705 116.005 50.7099 115.75C44.805 111.558 44.2941 105.428 44.6547 98.9819C44.6848 98.3359 44.8951 97.6898 45.0905 97.0738C45.1806 96.7883 45.436 96.5629 45.7365 96.1422C45.9769 98.1556 46.1422 99.9886 46.4427 101.792C47.0287 105.247 48.6063 108.283 51.0855 110.702C53.805 113.361 56.2541 116.081 56.9753 119.957C57.0505 120.348 57.3961 120.708 57.6665 121.024C57.7867 121.159 58.0722 121.129 58.4027 121.204C59.6198 120.047 59.3343 118.5 58.7934 117.313C57.9069 115.344 56.735 113.466 55.4578 111.738C53.8351 109.545 51.8969 107.576 50.214 105.428C48.0204 102.618 47.4494 99.3726 47.5696 95.8267C47.6898 92.5362 48.6063 89.7715 50.4695 87.0069C52.2124 84.4226 53.2942 81.3424 54.4511 78.3975C55.4879 75.7531 56.149 72.9584 57.1256 70.2839C59.5597 63.5977 64.1123 59 70.8436 56.611C72.1808 56.1302 73.5331 55.6645 74.8252 55.0634C78.5965 53.2755 81.9021 54.207 84.8169 56.8514C87.236 59.0451 88.6934 61.8248 89.2944 65.0702C90.8871 73.7247 90.9773 82.289 88.0173 90.7181C87.5064 92.1605 87.0707 93.6631 86.8453 95.1656C85.8387 102.002 82.5181 107.772 78.5815 113.241C76.508 116.111 73.8185 118.47 70.513 119.837C64.3828 122.376 59.8902 126.793 56.2391 132.082C52.573 137.401 49.3426 143.006 45.7215 148.355C44.3392 150.398 42.5512 152.276 40.643 153.839C38.3442 155.702 35.5946 154.635 34.7532 151.78C34.1221 149.677 33.7615 147.498 33.0553 145.44C31.5378 141.007 28.7131 137.341 25.6629 133.87C23.2439 131.121 21.2606 128.206 20.329 124.57C19.4425 121.144 16.6178 119.236 13.8532 117.448C11.5243 115.945 8.89489 115.194 6.14529 114.818C4.08684 114.533 2.04342 114.187 0 113.812L0 117.538C2.43407 117.823 4.88317 118.154 7.25715 118.725C11.7196 119.777 15.8215 121.55 17.309 126.268ZM38.1939 138.017C37.9385 137.266 37.7131 136.68 37.5328 136.079C36.6163 132.954 35.865 129.753 34.7381 126.688C33.0703 122.136 33.5512 118.184 37.1271 114.713C38.5094 113.376 39.6814 111.798 41.4394 109.785C41.9652 119.702 42.1455 128.942 38.1939 138.017ZM50.4544 123.022C52.1823 128.581 49.1623 131.992 46.9836 135.658C46.3676 133.45 47.4194 131.526 48.0805 129.558C48.7566 127.605 49.4928 125.667 50.4544 123.022ZM80.0239 50.4057C78.0406 50.7512 76.0423 51.0968 73.7284 51.5025C74.8102 48.1669 77.094 45.3572 76.2226 41.646C75.9221 42.1418 75.5765 42.6226 75.3211 43.1485C74.5097 44.8313 73.8786 46.5893 72.9321 48.1819C71.129 51.217 68.9053 53.6811 65.4796 55.2287C59.0789 58.1436 54.977 63.3273 52.6631 69.9233C52.2424 71.1253 51.8518 72.3424 51.3259 73.935C49.8835 71.9968 49.9436 70.299 50.1389 68.6011C50.7249 63.4926 51.2808 58.384 51.957 53.2905C52.1072 52.1185 52.5129 50.9315 53.0237 49.8647C55.3376 45.0266 57.6966 40.2186 60.1306 35.4406C60.4462 34.8096 61.2575 34.4489 61.7834 33.9231C63.4061 32.3003 65.0288 30.6776 66.5764 28.9948C66.8919 28.6643 66.937 28.0783 66.6816 27.2519C64.9237 28.7394 63.1807 30.2269 61.4228 31.6993C61.9487 25.4489 59.169 20.115 57.4712 14.3904C57.3209 14.9012 56.9904 15.4421 57.0655 15.9229C57.3209 17.756 57.5313 19.6342 58.0572 21.4071C59.7851 27.312 59.0488 32.8563 56.1339 38.2203C54.0455 42.0517 52.0772 45.9432 49.8084 50.2854C48.2307 46.6193 46.593 43.4941 45.5112 40.1886C44.1138 35.9515 44.6097 31.519 44.9703 27.1317C45.3759 22.1283 46.5479 17.125 45.3309 12.0915C44.835 10.0481 44.8501 7.77931 43.0921 6.09649C42.8667 6.4571 42.6414 6.66745 42.6714 6.80267C44.1739 13.0231 43.1222 19.2285 42.5061 25.4339C42.2958 27.5073 42.1606 29.5808 42.0103 31.6543C41.6647 36.3722 42.7165 40.7295 44.9252 44.9515C48.3058 51.4424 49.3576 58.354 47.8401 65.7614C44.5345 62.3356 41.3342 59.1052 38.224 55.7847C36.3609 53.7863 34.4827 51.7729 32.9051 49.5492C31.9284 48.1669 31.2373 46.454 30.8917 44.7862C29.87 39.8129 27.8867 35.4556 24.1905 31.8796C22.3274 30.0766 20.7798 27.9431 18.9016 25.7344C18.7213 26.3203 18.3457 26.8913 18.4359 27.3571C18.9167 29.9264 20.4342 31.9397 22.2222 33.7578C24.4008 35.9665 26.309 38.3405 27.3307 41.3154C27.5261 41.9014 27.6012 42.5475 27.7214 43.1034C23.1838 41.2553 18.8115 39.4673 14.2889 37.6343C14.7096 32.7361 14.7847 28.0032 16.4525 23.5407C17.0836 21.8428 18.1053 20.1901 19.3374 18.8679C22.3123 15.6525 25.6028 12.7376 28.5778 9.52223C31.4627 6.41202 34.9635 4.56393 39.0053 3.64739C42.8217 2.79096 46.4878 3.52719 49.7633 5.49549C52.1823 6.95293 54.5263 8.68082 56.4795 10.6942C61.3026 15.6375 66.0205 20.6859 70.513 25.9297C75.6666 31.9397 79.2276 38.7912 79.9789 46.8597C80.039 47.5208 80.0991 48.1669 80.1291 48.828C80.1441 49.3238 80.069 49.7596 80.0239 50.4057Z" fill="#F2F2F2"/>
<path d="M60.2813 121.264C59.7103 122.391 59.53 123.728 59.1694 124.961C59.4248 125.036 59.6803 125.111 59.9357 125.171C63.2863 119.912 65.5851 114.233 65.9007 107.997C69.7471 106.675 72.5568 104.436 74.9007 101.627C76.9592 99.1474 79.1528 96.9687 82.233 95.7366C83.9008 95.0755 85.3282 93.8585 85.9292 91.3042C84.2614 92.4011 83.2096 93.4378 81.9475 93.8735C78.026 95.1957 75.2313 97.8251 72.7071 100.965C71.3097 102.708 69.5217 104.091 66.9374 105.308C67.5234 102.288 68.7254 100.244 69.8823 98.1707C70.889 96.3677 72.1361 94.5346 72.4817 92.5663C73.0076 89.5913 74.7204 87.9236 77.1695 86.6915C78.4467 86.0454 79.859 85.6397 81.031 84.8735C82.9242 83.6113 84.7873 82.2441 86.4551 80.7115C87.4016 79.84 88.1078 78.5779 87.5219 76.2039C84.652 82.0187 79.6336 83.4911 74.2847 85.7599C78.8974 77.4661 84.5168 70.239 83.0894 60.6078C82.233 68.0002 79.3632 74.5211 74.9007 80.9068C73.849 78.2474 72.8874 76.1739 72.1962 74.0253C71.46 71.7415 70.7688 69.4126 70.4082 67.0386C70.0777 64.905 70.1828 62.6963 70.0927 60.5327C68.6052 63.102 68.1695 65.7464 68.8756 68.4359C69.7171 71.6063 70.5735 74.7766 71.7154 77.8417C72.8874 80.9669 73.9241 83.972 72.061 87.1873C71.6853 87.8334 71.3398 88.6147 71.3097 89.3509C71.0843 93.3927 68.9057 96.548 66.4265 100.289C64.6686 97.3594 63.1511 94.7149 61.5434 92.1456C60.2212 90.0271 60.146 87.8184 60.717 85.5045C60.9273 84.6481 61.1677 83.8067 61.4983 82.9953C62.4599 80.6664 62.3848 78.3676 61.7988 75.9335C61.2429 73.6196 61.1227 71.2006 60.7771 68.8266C60.732 68.481 60.5217 68.1655 60.2061 67.3992C58.7186 70.2089 58.914 72.7181 59.3948 75.1372C59.8305 77.3909 59.5601 79.4794 58.8388 81.5829C58.4181 82.83 58.0876 84.1072 57.6969 85.3543C56.7503 88.4645 57.126 91.4094 58.8088 94.2041C60.116 96.3527 61.4232 98.5163 62.6853 100.695C64.0826 103.114 64.7137 105.548 64.2028 108.493C63.4065 112.925 62.3547 117.223 60.2813 121.264Z" fill="#F2F2F2"/>
<path d="M14.2589 95.406C10.5177 92.0403 8.47425 87.8483 7.81315 82.8299C7.49762 80.486 6.86656 78.0369 5.73968 75.9784C4.04183 72.8833 2.13364 69.8932 0.0751953 67.0234L0.0751953 70.2388C3.11028 73.9951 5.13867 78.4576 5.91998 83.7014C6.62616 88.4042 8.35405 92.6864 11.8549 95.8868C14.7548 98.5462 16.4376 101.611 17.3992 105.338C17.9701 107.546 18.9468 109.65 19.9234 111.723C20.2089 112.324 21.0503 112.67 21.6513 113.136C21.9969 112.099 21.8767 111.498 21.6814 110.912C20.7949 108.328 19.7882 105.788 18.9768 103.174C18.0302 100.169 16.6179 97.5245 14.2589 95.406Z" fill="#F2F2F2"/>
<path d="M39.2457 83.596C39.5912 81.1469 39.7265 78.6226 38.4944 76.2336C37.638 86 37.6229 85.985 31.087 94.2037C29.1187 96.6829 27.8566 99.4775 28.3374 102.723C28.7882 105.773 28.1421 108.538 26.91 111.317C25.2122 115.134 24.7915 119.085 26.3391 123.142C26.7598 124.224 26.6997 125.486 26.8349 126.673C27.0152 128.191 27.0152 129.753 27.4209 131.211C27.9017 132.893 28.3825 134.757 30.4559 135.658C30.0803 131.181 29.7197 126.944 29.3591 122.721C29.3441 122.511 29.2539 122.301 29.1938 122.09C28.0219 118.559 28.5327 115.149 30.1254 111.888C31.4326 109.244 32.0035 106.479 31.5828 103.594C31.0419 99.8381 32.0486 96.6678 34.663 93.9633C37.4877 91.0635 38.7048 87.4274 39.2457 83.596Z" fill="#F2F2F2"/>
<path d="M16.7226 87.8789C15.8962 90.3731 15.9864 92.8973 18.0899 94.9858C18.6008 93.8138 18.736 92.6569 18.9313 91.4999C19.1567 90.2228 19.322 88.9006 19.7427 87.6835C20.554 85.3096 21.5156 82.9957 22.4021 80.6518C23.9798 76.5199 25.7227 72.5382 29.9898 70.3445C30.9364 69.8637 31.7628 69.0223 32.4389 68.1809C34.1518 66.0323 35.1885 63.6583 34.4222 60.4129C31.4172 66.6934 31.4172 66.6934 24.8662 70.4948C19.2619 64.1692 20.4188 56.3411 19.5473 48.7834C19.0365 49.2492 18.7811 49.3694 18.751 49.5197C17.9998 56.0106 16.6024 62.4714 20.5991 68.6166C22.2519 71.1409 22.6575 74.0557 20.8696 77.226C19.0515 80.5316 17.9096 84.2578 16.7226 87.8789Z" fill="#F2F2F2"/>
<path d="M7.70797 91.1993C6.61113 90.0273 6.02515 89.3211 5.34902 88.7051C4.46254 87.8937 3.56103 87.0974 2.56937 86.4213C1.74299 85.8503 0.916604 85.2343 0.0751953 84.6633L0.0751953 88.0891C0.495899 88.3745 0.916604 88.6901 1.32228 89.0356C2.79475 90.3128 4.77807 91.1392 7.70797 91.1993Z" fill="#F2F2F2"/>
<path d="M11.6596 107.486C12.7414 108.087 13.9735 108.403 15.521 109.019C14.9501 106.66 13.673 105.668 12.1855 104.962C9.09028 103.49 5.95003 102.513 2.37404 102.843C1.60776 102.904 0.841478 102.949 0.0751953 102.964L0.0751953 105.428C0.571025 105.428 1.08188 105.428 1.56268 105.383C5.25887 105.007 8.48928 105.743 11.6596 107.486Z" fill="#F2F2F2"/>
</svg>
