<svg width="37" height="39" viewBox="0 0 37 39" fill="none" xmlns="http://www.w3.org/2000/svg">
<g clip-path="url(#clip0_4200_10050)">
<g clip-path="url(#clip1_4200_10050)">
<g clip-path="url(#clip2_4200_10050)">
<g clip-path="url(#clip3_4200_10050)">
<g clip-path="url(#clip4_4200_10050)">
<g clip-path="url(#clip5_4200_10050)">
<g clip-path="url(#clip6_4200_10050)">
<g clip-path="url(#clip7_4200_10050)">
<path d="M18.8719 12.2547C19.0932 12.2547 19.3146 12.2471 19.5359 12.2317L20.7311 12.1473C22.1549 14.0513 22.9369 16.4159 22.9369 18.8343V19.9782V20.032H24.1542V19.9782V18.8343V16.8842C24.1542 15.7173 24.5084 14.581 25.165 13.6367L26.5446 13.7288C26.7954 13.7442 27.0462 13.7518 27.2897 13.7518C30.0931 13.7518 32.6384 12.6386 34.4533 10.6195C36.2903 8.57726 37.1903 5.81338 37.0059 2.83454L36.8288 0.0169216L35.973 0.554342C34.9771 1.17621 33.6049 1.32209 32.1441 1.48331C28.507 1.87486 23.9698 2.36622 24.1616 11.2337L24.2575 12.7691C23.8886 13.2835 23.5862 13.844 23.3722 14.4428C22.9517 13.3142 22.3689 12.2471 21.6385 11.2797L21.727 9.92081C21.882 2.03609 17.8391 1.59847 14.5856 1.24531C13.3019 1.10712 12.092 0.976601 11.2214 0.43918L10.3656 -0.0982399L10.1959 2.51209C10.0263 5.16848 10.8378 7.64061 12.4682 9.46016C14.0913 11.2644 16.3636 12.2547 18.8719 12.2547ZM32.2695 2.76544C33.4573 2.63493 34.6746 2.50441 35.737 2.08983L35.7886 2.93435C35.9583 5.56003 35.1689 7.9861 33.568 9.76726C31.9892 11.5254 29.7612 12.4928 27.2897 12.4928C27.0684 12.4928 26.847 12.4851 26.6257 12.4697L26.2642 12.4467L32.1515 6.31242L31.2883 5.41416L25.3937 11.5484L25.3715 11.1953C25.2166 3.52551 28.6398 3.15699 32.2695 2.76544ZM11.4132 2.59654L11.4575 1.94396C12.3797 2.28944 13.4347 2.39693 14.4602 2.51209C17.6399 2.85757 20.6425 3.18002 20.5024 9.88242L20.4876 10.059L15.3823 4.73854L14.5192 5.6368L19.6318 10.9573L19.4621 10.9726C17.0497 11.1415 14.8807 10.2816 13.3683 8.60029C11.9592 7.0341 11.2657 4.89977 11.4132 2.59654Z" fill="#096A2E"/>
<path d="M7.42939 25.8208C8.69095 24.5386 10.3583 23.8323 12.1215 23.8323H21.7566C22.4353 23.8323 22.9812 24.4081 22.9812 25.1068C22.9812 25.8131 22.4279 26.3812 21.7566 26.3812H18.3998C17.2268 26.3812 16.2677 27.3793 16.2677 28.6C16.2677 29.8207 17.2268 30.8188 18.3998 30.8188H26.8839L34.2762 23.7939C34.623 23.4638 35.1542 23.4792 35.4861 23.817C35.6558 23.9935 35.7517 24.2315 35.7444 24.4772C35.7444 24.7306 35.6411 24.9609 35.464 25.1298L28.9497 31.456C27.7029 32.669 26.0724 33.337 24.3682 33.337H13.9364C11.8928 33.337 9.94513 34.1431 8.46224 35.6095L6.0793 37.9818L6.92034 38.9031L9.30328 36.5385C10.5575 35.2947 12.2027 34.6114 13.929 34.6114H24.3608C26.3749 34.6114 28.3004 33.8207 29.7759 32.3927L36.2903 26.0665C36.7108 25.6595 36.9469 25.0991 36.9543 24.5003C36.9617 23.9014 36.7403 23.341 36.3346 22.9187C35.5378 22.0972 34.2689 22.0742 33.4426 22.8573L26.397 29.552H18.3998C17.8981 29.552 17.4923 29.1297 17.4923 28.6077C17.4923 28.0856 17.8981 27.6634 18.3998 27.6634H21.7566C23.1066 27.6634 24.2059 26.5194 24.2059 25.1144C24.2059 23.7095 23.1066 22.5655 21.7566 22.5655H12.1215C10.0337 22.5655 8.06386 23.4024 6.5736 24.9225L-0.0292969 31.6403L0.826497 32.5462L7.42939 25.8208Z" fill="#096A2E"/>
</g>
</g>
</g>
</g>
</g>
</g>
</g>
</g>
<defs>
<clipPath id="clip0_4200_10050">
<rect width="37" height="38.8049" fill="white"/>
</clipPath>
<clipPath id="clip1_4200_10050">
<rect width="37.0588" height="39.0014" fill="white" transform="translate(-0.0292969 -0.0982399)"/>
</clipPath>
<clipPath id="clip2_4200_10050">
<rect width="37.0588" height="39.0014" fill="white" transform="translate(-0.0292969 -0.0982399)"/>
</clipPath>
<clipPath id="clip3_4200_10050">
<rect width="37.0588" height="39.0014" fill="white" transform="translate(-0.0292969 -0.0982399)"/>
</clipPath>
<clipPath id="clip4_4200_10050">
<rect width="37.0588" height="39.0014" fill="white" transform="translate(-0.0292969 -0.0982399)"/>
</clipPath>
<clipPath id="clip5_4200_10050">
<rect width="37.0588" height="39.0014" fill="white" transform="translate(-0.0292969 -0.0982399)"/>
</clipPath>
<clipPath id="clip6_4200_10050">
<rect width="37.0588" height="39.0014" fill="white" transform="translate(-0.0292969 -0.0982399)"/>
</clipPath>
<clipPath id="clip7_4200_10050">
<rect width="37.0588" height="39.0014" fill="white" transform="translate(-0.0292969 -0.0982399)"/>
</clipPath>
</defs>
</svg>
