<svg width="24" height="24" viewBox="0 0 24 24" fill="none" xmlns="http://www.w3.org/2000/svg">
<g filter="url(#filter0_d_531_2588)">
<path fill-rule="evenodd" clip-rule="evenodd" d="M6.83009 16.473C6.55309 16.097 6.21509 15.328 5.61409 14.394C5.27409 13.866 4.42909 12.871 4.17809 12.366C3.96009 11.92 3.98309 11.72 4.03509 11.35C4.12709 10.692 4.75709 10.18 5.42909 10.248C5.93709 10.3 6.36809 10.659 6.75509 10.998C6.98909 11.203 7.27709 11.6 7.45009 11.824C7.61009 12.03 7.64909 12.114 7.81909 12.358C8.04409 12.68 8.11409 12.838 8.02909 12.485C7.95909 11.965 7.84509 11.077 7.68109 10.292C7.55609 9.69698 7.52509 9.60398 7.40609 9.14698C7.28009 8.66098 7.21609 8.31998 7.09609 7.80498C7.01509 7.43998 6.86609 6.69498 6.82609 6.27498C6.77109 5.70198 6.74209 4.76798 7.08509 4.33798C7.35409 4.00198 7.97109 3.89998 8.35409 4.10798C8.85509 4.37798 9.14009 5.15798 9.27009 5.46998C9.50409 6.02998 9.64909 6.67598 9.77509 7.52498C9.93509 8.60498 10.2311 10.105 10.2411 10.42C10.2641 10.034 10.1741 9.21998 10.2371 8.84798C10.2931 8.51198 10.5571 8.12098 10.8881 8.01498C11.1681 7.92598 11.4961 7.89398 11.7841 7.95798C12.0911 8.02498 12.4141 8.25898 12.5341 8.47998C12.8881 9.13398 12.8951 10.47 12.9101 10.4C12.9941 10.005 12.9801 9.11098 13.1881 8.73998C13.3251 8.49398 13.6741 8.27298 13.8601 8.23698C14.1471 8.18298 14.5001 8.16698 14.8031 8.22898C15.0471 8.27998 15.3761 8.59098 15.4651 8.73898C15.6791 9.09898 15.8001 10.119 15.8361 10.477C15.8511 10.624 15.9091 10.066 16.1231 9.70598C16.5201 9.03598 17.9261 8.90598 17.9801 10.376C18.0041 11.06 18.0001 11.029 18.0001 11.49C18.0001 12.032 17.9881 12.358 17.9601 12.75C17.9301 13.169 17.8461 14.116 17.7241 14.575C17.6401 14.891 17.3611 15.6 17.0861 16.025C17.0861 16.025 16.0351 17.335 15.9201 17.925C15.8051 18.515 15.8431 18.519 15.8201 18.937C15.7981 19.354 15.9391 19.903 15.9391 19.903C15.9391 19.903 15.1541 20.012 14.7321 19.94C14.3491 19.874 13.8751 19.058 13.7531 18.809C13.5851 18.465 13.2261 18.531 13.0861 18.785C12.8661 19.186 12.3921 19.906 12.0571 19.951C11.4041 20.039 10.0471 19.984 8.98709 19.972C8.98709 19.972 9.16709 18.912 8.76409 18.549C8.46609 18.278 7.95209 17.727 7.64409 17.439L6.83109 16.473H6.83009Z" fill="white"/>
<path fill-rule="evenodd" clip-rule="evenodd" d="M6.83009 16.473C6.55309 16.097 6.21509 15.328 5.61409 14.394C5.27409 13.866 4.42909 12.871 4.17809 12.366C3.96009 11.92 3.98309 11.72 4.03509 11.35C4.12709 10.692 4.75709 10.18 5.42909 10.248C5.93709 10.3 6.36809 10.659 6.75509 10.998C6.98909 11.203 7.27709 11.6 7.45009 11.824C7.61009 12.03 7.64909 12.114 7.81909 12.358C8.04409 12.68 8.11409 12.838 8.02909 12.485C7.95909 11.965 7.84509 11.077 7.68109 10.292C7.55609 9.69698 7.52509 9.60398 7.40609 9.14698C7.28009 8.66098 7.21609 8.31998 7.09609 7.80498C7.01509 7.43998 6.86609 6.69498 6.82609 6.27498C6.77109 5.70198 6.74209 4.76798 7.08509 4.33798C7.35409 4.00198 7.97109 3.89998 8.35409 4.10798C8.85509 4.37798 9.14009 5.15798 9.27009 5.46998C9.50409 6.02998 9.64909 6.67598 9.77509 7.52498C9.93509 8.60498 10.2311 10.105 10.2411 10.42C10.2641 10.034 10.1741 9.21998 10.2371 8.84798C10.2931 8.51198 10.5571 8.12098 10.8881 8.01498C11.1681 7.92598 11.4961 7.89398 11.7841 7.95798C12.0911 8.02498 12.4141 8.25898 12.5341 8.47998C12.8881 9.13398 12.8951 10.47 12.9101 10.4C12.9941 10.005 12.9801 9.11098 13.1881 8.73998C13.3251 8.49398 13.6741 8.27298 13.8601 8.23698C14.1471 8.18298 14.5001 8.16698 14.8031 8.22898C15.0471 8.27998 15.3761 8.59098 15.4651 8.73898C15.6791 9.09898 15.8001 10.119 15.8361 10.477C15.8511 10.624 15.9091 10.066 16.1231 9.70598C16.5201 9.03598 17.9261 8.90598 17.9801 10.376C18.0041 11.06 18.0001 11.029 18.0001 11.49C18.0001 12.032 17.9881 12.358 17.9601 12.75C17.9301 13.169 17.8461 14.116 17.7241 14.575C17.6401 14.891 17.3611 15.6 17.0861 16.025C17.0861 16.025 16.0351 17.335 15.9201 17.925C15.8051 18.515 15.8431 18.519 15.8201 18.937C15.7981 19.354 15.9391 19.903 15.9391 19.903C15.9391 19.903 15.1541 20.012 14.7321 19.94C14.3491 19.874 13.8751 19.058 13.7531 18.809C13.5851 18.465 13.2261 18.531 13.0861 18.785C12.8661 19.186 12.3921 19.906 12.0571 19.951C11.4041 20.039 10.0471 19.984 8.98709 19.972C8.98709 19.972 9.16709 18.912 8.76409 18.549C8.46609 18.278 7.95209 17.727 7.64409 17.439L6.83109 16.473H6.83009Z" stroke="black" stroke-width="0.75" stroke-linecap="round" stroke-linejoin="round"/>
</g>
<path fill-rule="evenodd" clip-rule="evenodd" d="M10.875 13.5C10.875 13.4005 10.8355 13.3052 10.7652 13.2348C10.6948 13.1645 10.5995 13.125 10.5 13.125C10.4005 13.125 10.3052 13.1645 10.2348 13.2348C10.1645 13.3052 10.125 13.4005 10.125 13.5V16.5C10.125 16.5995 10.1645 16.6948 10.2348 16.7652C10.3052 16.8355 10.4005 16.875 10.5 16.875C10.5995 16.875 10.6948 16.8355 10.7652 16.7652C10.8355 16.6948 10.875 16.5995 10.875 16.5V13.5ZM12.5 13.125C12.707 13.125 12.875 13.293 12.875 13.5V16.5C12.875 16.5995 12.8355 16.6948 12.7652 16.7652C12.6948 16.8355 12.5995 16.875 12.5 16.875C12.4005 16.875 12.3052 16.8355 12.2348 16.7652C12.1645 16.6948 12.125 16.5995 12.125 16.5V13.5C12.125 13.293 12.293 13.125 12.5 13.125ZM14.5 13.125C14.707 13.125 14.875 13.293 14.875 13.5V16.5C14.875 16.5995 14.8355 16.6948 14.7652 16.7652C14.6948 16.8355 14.5995 16.875 14.5 16.875C14.4005 16.875 14.3052 16.8355 14.2348 16.7652C14.1645 16.6948 14.125 16.5995 14.125 16.5V13.5C14.125 13.293 14.293 13.125 14.5 13.125Z" fill="black"/>
<defs>
<filter id="filter0_d_531_2588" x="1.625" y="2.62531" width="18.75" height="20.7497" filterUnits="userSpaceOnUse" color-interpolation-filters="sRGB">
<feFlood flood-opacity="0" result="BackgroundImageFix"/>
<feColorMatrix in="SourceAlpha" type="matrix" values="0 0 0 0 0 0 0 0 0 0 0 0 0 0 0 0 0 0 127 0" result="hardAlpha"/>
<feOffset dy="1"/>
<feGaussianBlur stdDeviation="1"/>
<feColorMatrix type="matrix" values="0 0 0 0 0 0 0 0 0 0 0 0 0 0 0 0 0 0 0.24 0"/>
<feBlend mode="normal" in2="BackgroundImageFix" result="effect1_dropShadow_531_2588"/>
<feBlend mode="normal" in="SourceGraphic" in2="effect1_dropShadow_531_2588" result="shape"/>
</filter>
</defs>
</svg>
