<svg width="38" height="38" viewBox="0 0 38 38" fill="none" xmlns="http://www.w3.org/2000/svg">
<g clip-path="url(#clip0_4228_11473)">
<g clip-path="url(#clip1_4228_11473)">
<g clip-path="url(#clip2_4228_11473)">
<g clip-path="url(#clip3_4228_11473)">
<g clip-path="url(#clip4_4228_11473)">
<g clip-path="url(#clip5_4228_11473)">
<g clip-path="url(#clip6_4228_11473)">
<g clip-path="url(#clip7_4228_11473)">
<path d="M19.3749 13.4015C19.5578 13.4015 19.7408 13.3954 19.9237 13.3832L20.9114 13.3161C22.0881 14.8282 22.7344 16.7061 22.7344 18.6267V19.5351V19.5778H23.7404V19.5351V18.6267V17.078C23.7404 16.1512 24.0331 15.2489 24.5757 14.4989L25.7159 14.5721C25.9232 14.5843 26.1305 14.5904 26.3317 14.5904C28.6486 14.5904 30.752 13.7063 32.2519 12.1028C33.7701 10.481 34.5139 8.28604 34.3615 5.92038L34.2152 3.68276L33.5079 4.10956C32.6848 4.60342 31.5508 4.71926 30.3435 4.8473C27.3377 5.15825 23.588 5.54846 23.7465 12.5906L23.8258 13.81C23.5209 14.2185 23.271 14.6636 23.0941 15.1391C22.7466 14.2429 22.2649 13.3954 21.6613 12.6271L21.7345 11.548C21.8625 5.28629 18.5213 4.93876 15.8325 4.65829C14.7717 4.54855 13.7717 4.4449 13.0523 4.0181L12.345 3.59131L12.2048 5.66431C12.0646 7.77389 12.7352 9.73714 14.0827 11.1821C15.424 12.615 17.3019 13.4015 19.3749 13.4015ZM30.4472 5.86551C31.4288 5.76186 32.4348 5.65821 33.3128 5.32897L33.3555 5.99965C33.4957 8.08484 32.8433 10.0115 31.5203 11.426C30.2155 12.8223 28.3742 13.5905 26.3317 13.5905C26.1488 13.5905 25.9659 13.5844 25.7829 13.5722L25.4842 13.5539L30.3496 8.68235L29.6363 7.969L24.7647 12.8405L24.7464 12.5601C24.6184 6.46912 27.4474 6.17646 30.4472 5.86551ZM13.2108 5.73138L13.2474 5.21313C14.0095 5.48749 14.8814 5.57285 15.7289 5.66431C18.3567 5.93868 20.8382 6.19475 20.7224 11.5175L20.7102 11.6577L16.491 7.43245L15.7777 8.14581L20.0029 12.3711L19.8627 12.3833C17.869 12.5174 16.0764 11.8345 14.8265 10.4993C13.662 9.25547 13.0889 7.56049 13.2108 5.73138Z" fill="white"/>
<path d="M9.91803 24.1749C10.9606 23.1567 12.3386 22.5958 13.7958 22.5958H21.7585C22.3194 22.5958 22.7706 23.0531 22.7706 23.6079C22.7706 24.1688 22.3133 24.62 21.7585 24.62H18.9844C18.0149 24.62 17.2223 25.4126 17.2223 26.3821C17.2223 27.3515 18.0149 28.1441 18.9844 28.1441H25.996L32.1052 22.5653C32.3918 22.3031 32.8308 22.3153 33.1051 22.5836C33.2454 22.7238 33.3246 22.9128 33.3185 23.108C33.3185 23.3092 33.2332 23.4921 33.0868 23.6262L27.7031 28.6502C26.6727 29.6135 25.3253 30.144 23.9169 30.144H15.2956C13.6068 30.144 11.9971 30.7842 10.7716 31.9487L8.80227 33.8327L9.49733 34.5643L11.4667 32.6864C12.5032 31.6987 13.8628 31.1561 15.2895 31.1561H23.9108C25.5753 31.1561 27.1666 30.5281 28.386 29.394L33.7697 24.37C34.1173 24.0469 34.3124 23.6018 34.3185 23.1262C34.3246 22.6507 34.1416 22.2056 33.8063 21.8703C33.1478 21.2179 32.0991 21.1996 31.4163 21.8215L25.5936 27.1381H18.9844C18.5698 27.1381 18.2344 26.8028 18.2344 26.3882C18.2344 25.9736 18.5698 25.6382 18.9844 25.6382H21.7585C22.8743 25.6382 23.7827 24.7298 23.7827 23.614C23.7827 22.4982 22.8743 21.5898 21.7585 21.5898H13.7958C12.0703 21.5898 10.4424 22.2544 9.21077 23.4616L3.75391 28.7965L4.46116 29.516L9.91803 24.1749Z" fill="white"/>
</g>
</g>
</g>
</g>
</g>
</g>
</g>
</g>
<defs>
<clipPath id="clip0_4228_11473">
<rect width="30.5781" height="30.817" fill="white" transform="translate(3.77832 3.66943)"/>
</clipPath>
<clipPath id="clip1_4228_11473">
<rect width="30.6267" height="30.973" fill="white" transform="translate(3.75391 3.59131)"/>
</clipPath>
<clipPath id="clip2_4228_11473">
<rect width="30.6267" height="30.973" fill="white" transform="translate(3.75391 3.59131)"/>
</clipPath>
<clipPath id="clip3_4228_11473">
<rect width="30.6267" height="30.973" fill="white" transform="translate(3.75391 3.59131)"/>
</clipPath>
<clipPath id="clip4_4228_11473">
<rect width="30.6267" height="30.973" fill="white" transform="translate(3.75391 3.59131)"/>
</clipPath>
<clipPath id="clip5_4228_11473">
<rect width="30.6267" height="30.973" fill="white" transform="translate(3.75391 3.59131)"/>
</clipPath>
<clipPath id="clip6_4228_11473">
<rect width="30.6267" height="30.973" fill="white" transform="translate(3.75391 3.59131)"/>
</clipPath>
<clipPath id="clip7_4228_11473">
<rect width="30.6267" height="30.973" fill="white" transform="translate(3.75391 3.59131)"/>
</clipPath>
</defs>
</svg>
