<svg width="45" height="32" viewBox="0 0 45 32" fill="none" xmlns="http://www.w3.org/2000/svg">
<rect x="0.5" y="0.5" width="44" height="30.7647" rx="4.79412" fill="#1A1A1A" stroke="#333333"/>
<path fill-rule="evenodd" clip-rule="evenodd" d="M14.2279 20.9888H11.5017L9.45748 12.9604C9.36045 12.5911 9.15443 12.2646 8.85138 12.1107C8.09508 11.724 7.26169 11.4163 6.35254 11.2611V10.952H10.7441C11.3502 10.952 11.8048 11.4163 11.8806 11.9555L12.9412 17.7466L15.666 10.952H18.3164L14.2279 20.9888ZM19.8314 20.9888H17.2568L19.3768 10.952H21.9514L19.8314 20.9888ZM25.2823 13.7324C25.3581 13.1919 25.8127 12.8828 26.343 12.8828C27.1764 12.8052 28.0842 12.9604 28.8419 13.3457L29.2964 11.1848C28.5388 10.8757 27.7054 10.7205 26.9491 10.7205C24.4503 10.7205 22.632 12.1107 22.632 14.0402C22.632 15.508 23.9199 16.2788 24.8291 16.7431C25.8127 17.206 26.1915 17.5151 26.1157 17.9781C26.1157 18.6726 25.3581 18.9816 24.6018 18.9816C23.6927 18.9816 22.7835 18.7502 21.9514 18.3635L21.4969 20.5258C22.406 20.9111 23.3896 21.0663 24.2988 21.0663C27.1006 21.1426 28.8419 19.7537 28.8419 17.669C28.8419 15.0437 25.2823 14.8899 25.2823 13.7324ZM37.8528 20.9888L35.8085 10.952H33.6127C33.1582 10.952 32.7036 11.2611 32.5521 11.724L28.7666 20.9888H31.417L31.946 19.5223H35.2024L35.5055 20.9888H37.8528ZM33.991 13.6548L34.7473 17.4375H32.6273L33.991 13.6548Z" fill="white"/>
</svg>
