<svg xmlns="http://www.w3.org/2000/svg" version="1.1" xmlns:xlink="http://www.w3.org/1999/xlink" xmlns:svgjs="http://svgjs.dev/svgjs" width="1500" height="1500" viewBox="0 0 1500 1500"><rect width="1500" height="1500" fill="#ffffff"></rect><g transform="matrix(0.6666666666666666,0,0,0.6666666666666666,250.4522572354581,222.76059379217287)"><svg viewBox="0 0 234 247" data-background-color="#096a2e" preserveAspectRatio="xMidYMid meet" height="1583" width="1500" xmlns="http://www.w3.org/2000/svg" xmlns:xlink="http://www.w3.org/1999/xlink"><g id="tight-bounds" transform="matrix(1,0,0,1,-0.10582819309718161,-0.09999999999999432)"><svg viewBox="0 0 234.2116563861944 247.2" height="247.2" width="234.2116563861944"><g><svg viewBox="0 0 395.52000000000004 417.45379161992554" height="247.2" width="234.2116563861944"><g transform="matrix(1,0,0,1,0,268.45315608368355)"><svg viewBox="0 0 395.52000000000004 149.000635536242" height="149.000635536242" width="395.52000000000004"><g id="textblocktransform"><svg viewBox="0 0 395.52000000000004 149.000635536242" height="149.000635536242" width="395.52000000000004" id="textblock"><g><svg viewBox="0 0 395.52000000000004 101.09507815606743" height="101.09507815606743" width="395.52000000000004"><g transform="matrix(1,0,0,1,0,0)"><svg width="395.52000000000004" viewBox="2.9 -37.1 192.28 49.151961786097004" height="101.09507815606743" data-palette-color="#ffffff"><path d="M2.9 0.6L3.2-1.7Q5.5-2.15 6.3-3.03 7.1-3.9 7.1-6L7.1-6 7.15-27Q7.15-28.6 6.78-29.15 6.4-29.7 5.3-29.7L5.3-29.7 3.6-29.6 3.5-29.8 3.85-32Q4.5-32 4.85-31.95L4.85-31.95Q7.85-31.85 9.4-31.85L9.4-31.85Q11.5-31.85 14.75-32.3L14.75-32.3 14.55-30.05Q13.05-29.8 12.43-29.45 11.8-29.1 11.58-28.28 11.35-27.45 11.25-25.55L11.25-25.55 10.95-17.45 19.35-17.4Q22.5-17.4 26.75-17.9L26.75-17.9 26.8-27Q26.8-28.6 26.43-29.15 26.05-29.7 24.95-29.7L24.95-29.7Q24.25-29.7 23.25-29.6L23.25-29.6 23.15-29.8 23.5-32Q24.05-31.95 25.5-31.9 26.95-31.85 28.4-31.85L28.4-31.85Q30.8-31.85 34.4-32.3L34.4-32.3 34.2-30.05Q32.35-29.8 31.7-29.23 31.05-28.65 31-27.2L31-27.2Q30.7-21.55 30.5-15.08 30.3-8.6 30.3-5.3L30.3-5.3Q30.3-3.45 30.75-2.83 31.2-2.2 32.5-2.2L32.5-2.2Q33.1-2.2 34.75-2.35L34.75-2.35 34.85-2.15 34.4 0.15Q33.7 0.15 33.3 0.1L33.3 0.1Q30 0 28.25 0L28.25 0 22.5 0.1 22.95-2.15Q24.6-2.2 25.38-2.6 26.15-3 26.45-4.1 26.75-5.2 26.75-7.5L26.75-7.5 26.75-15.05 19.15-15.1Q17.9-15.05 15.65-14.93 13.4-14.8 10.85-14.55L10.85-14.55 10.65-5.6Q10.65-3.55 11.1-2.88 11.55-2.2 12.85-2.2L12.85-2.2Q13.45-2.2 15.1-2.35L15.1-2.35 15.2-2.15 14.75 0.15Q14.3 0.1 13.05 0.05 11.8 0 10.5 0L10.5 0Q8.2 0 5.58 0.2 2.95 0.4 2.9 0.6L2.9 0.6ZM55.3 0.6Q51.25 0.6 50.85-3.45L50.85-3.45 50.65-3.5Q48.85-1.7 47.37-0.65 45.9 0.4 45.15 0.4L45.15 0.4Q42.35 0.4 40.55-1.35 38.75-3.1 38.75-5.8L38.75-5.8Q38.75-7.25 39.47-8.35 40.2-9.45 41.4-9.8L41.4-9.8 50.9-12.4 50.95-14.6Q50.95-17.1 49.8-18.5 48.65-19.9 46.55-19.9L46.55-19.9Q45.15-19.9 43.6-19.25 42.05-18.6 40.55-17.4L40.55-17.4 40.3-17.55 39.7-19.7Q42.05-21.05 44.42-22.13 46.8-23.2 47.85-23.2L47.85-23.2Q51.1-23.2 52.95-21.5 54.8-19.8 54.8-16.75L54.8-16.75Q54.8-15.65 54.45-12.25L54.45-12.25Q53.9-6.75 53.9-5.25L53.9-5.25Q53.9-4.15 54.45-3.55 55-2.95 55.95-2.95L55.95-2.95Q56.75-2.95 57.6-3.33 58.45-3.7 58.95-4.2L58.95-4.2 59.65-3.4Q58.9-2.15 57.72-0.98 56.55 0.2 55.3 0.6L55.3 0.6ZM46-3Q46.95-3 48.22-3.68 49.5-4.35 50.55-5.4L50.55-5.4 50.8-10.5 44-8.45Q42.55-8 42.55-6.35L42.55-6.35Q42.55-4.9 43.52-3.95 44.5-3 46-3L46-3ZM62.95-1.8Q64.45-1.95 64.95-2.78 65.45-3.6 65.45-5.95L65.45-5.95 65.45-16.95Q65.45-18.6 65-19.3 64.55-20 63.55-20L63.55-20Q63.15-20 62.87-19.95 62.6-19.9 62.5-19.85L62.5-19.85 62.25-20.2 62.4-21.75Q64.3-22.1 66.42-22.6 68.55-23.1 69.15-23.25L69.15-23.25 69.5-22.95Q69.4-22.5 69.2-20.88 69-19.25 69.05-17.8L69.05-17.8 69.25-17.65Q70.75-20 72.77-21.5 74.8-23 76.3-23L76.3-23Q77-23 77.37-22.93 77.75-22.85 77.84-22.8L77.84-22.8 78-22.6Q77.9-21.9 77.57-19.63 77.25-17.35 77.2-15.45L77.2-15.45 75.25-15.3Q75.25-17.35 74.97-18.03 74.7-18.7 73.9-18.7L73.9-18.7Q72.8-18.7 71.55-17.78 70.3-16.85 69.25-15.3L69.25-15.3Q69.2-13.85 69.05-10.5 68.9-7.15 68.84-5.1L68.84-5.1Q68.84-3.4 69.34-2.8 69.84-2.2 71.25-2.2L71.25-2.2Q71.9-2.2 72.55-2.25 73.2-2.3 73.45-2.3L73.45-2.3 73.5-2.1 73.05 0.1Q72.55 0.1 71.05 0.05 69.55 0 67.95 0L67.95 0Q66.09 0 64.59 0.08 63.1 0.15 62.7 0.2L62.7 0.2 62.95-1.8ZM88.99 0.85Q88.24-1.55 86.02-8.58 83.79-15.6 82.89-18.3L82.89-18.3Q82.04-20.7 79.49-20.8L79.49-20.8 79.39-21 79.69-22.65 83.84-22.6Q85.74-22.6 87.54-22.75 89.34-22.9 89.84-22.95L89.84-22.95 89.94-22.7 89.64-21.15Q87.94-21.1 87.32-20.83 86.69-20.55 86.69-19.85L86.69-19.85Q86.69-18.95 88.49-12.73 90.29-6.5 90.94-4.3L90.94-4.3 91.14-4.3 93.89-11Q95.24-14.3 96.14-16.65 97.04-19 97.04-19.6L97.04-19.6Q97.04-20.25 96.57-20.53 96.09-20.8 94.89-20.8L94.89-20.8 92.99-20.8 92.79-21.1 93.04-22.65 98.39-22.6 102.49-22.65 102.14-20.8Q101.09-20.65 100.49-19.95 99.89-19.25 98.94-17.05L98.94-17.05 91.79 0 88.99 0.85ZM113.64 0.6Q110.54 0.6 108.14-0.78 105.74-2.15 104.44-4.67 103.14-7.2 103.14-10.45L103.14-10.45Q103.14-13.8 104.67-16.75 106.19-19.7 108.74-21.45 111.29-23.2 114.19-23.2L114.19-23.2Q117.84-23.2 119.74-21.35 121.64-19.5 121.64-15.95L121.64-15.95Q121.64-14.5 121.34-13.5L121.34-13.5 120.69-12.9 106.89-12.9Q106.84-8.05 108.82-5.43 110.79-2.8 114.34-2.8L114.34-2.8Q117.14-2.8 120.44-4.35L120.44-4.35 120.74-4.25 121.29-2.8Q119.49-1.5 117.32-0.45 115.14 0.6 113.64 0.6L113.64 0.6ZM107.09-14.75L116.14-15.2Q116.89-15.3 117.14-15.55 117.39-15.8 117.39-16.55L117.39-16.55Q117.39-18.55 116.32-19.6 115.24-20.65 113.24-20.65L113.24-20.65Q110.89-20.65 109.22-19.05 107.54-17.45 107.09-14.75L107.09-14.75ZM132.29 0.6Q130.69 0.6 129.36 0.38 128.04 0.15 127.29-0.1 126.54-0.35 126.34-0.45L126.34-0.45 126.19-0.8Q126.34-1.55 126.54-3.9 126.74-6.25 126.79-7.5L126.79-7.5 128.54-7.75Q128.54-4.45 129.64-3.1 130.74-1.75 133.39-1.75L133.39-1.75Q135.29-1.75 136.59-2.6 137.89-3.45 137.89-4.7L137.89-4.7Q137.89-5.95 136.71-6.98 135.54-8 132.09-9.85L132.09-9.85Q129.24-11.3 127.94-12.8 126.64-14.3 126.64-16.1L126.64-16.1Q126.64-18.1 127.84-19.73 129.04-21.35 131.14-22.28 133.24-23.2 135.84-23.2L135.84-23.2Q137.04-23.2 138.14-23.03 139.24-22.85 139.94-22.65 140.64-22.45 140.84-22.4L140.84-22.4 140.94-22.15Q140.84-21.65 140.49-19.88 140.14-18.1 139.99-16.05L139.99-16.05 138.14-15.9Q138.14-16.05 138.19-16.5 138.24-16.95 138.24-17.35L138.24-17.35Q138.24-19.15 137.26-19.98 136.29-20.8 134.14-20.8L134.14-20.8Q132.44-20.8 131.26-20 130.09-19.2 130.09-18.05L130.09-18.05Q130.09-16.85 131.11-15.8 132.14-14.75 134.44-13.55L134.44-13.55Q138.49-11.4 139.96-9.93 141.44-8.45 141.44-6.55L141.44-6.55Q141.44-4.65 140.19-3 138.94-1.35 136.81-0.38 134.69 0.6 132.29 0.6L132.29 0.6ZM154.14 0.6Q150.74 0.6 149.34-0.78 147.94-2.15 147.94-5.45L147.94-5.45 147.94-17.75Q147.94-19.1 147.34-19.65 146.74-20.2 145.09-20.25L145.09-20.25 144.89-20.55 145.14-22.05Q146.59-22.75 147.96-23.78 149.34-24.8 150.21-25.58 151.09-26.35 151.34-26.6L151.34-26.6 152.34-26.2Q152.29-25.95 152.19-25 152.09-24.05 151.94-22.45L151.94-22.45 159.29-22.6 159.44-22.45 158.99-19.8 151.74-19.95Q151.39-14.45 151.39-7.45L151.39-7.45Q151.39-4.9 152.26-3.85 153.14-2.8 155.29-2.8L155.29-2.8Q156.04-2.8 156.79-3 157.54-3.2 158.04-3.43 158.54-3.65 158.69-3.7L158.69-3.7 159.19-2.4Q158.89-2.15 157.91-1.45 156.94-0.75 155.81-0.08 154.69 0.6 154.14 0.6L154.14 0.6ZM161.68 0.6L161.88-1.45Q163.28-1.85 163.86-2.45 164.43-3.05 164.56-3.9 164.68-4.75 164.68-6.75L164.68-6.75 164.68-31.3Q164.68-32.85 164.33-33.4 163.98-33.95 162.88-33.95L162.88-33.95Q162.63-33.95 161.73-33.85L161.73-33.85 161.58-33.95 161.78-35.65Q165.98-36.25 169.18-37.1L169.18-37.1 169.48-36.45Q168.93-35.6 168.51-25.75 168.08-15.9 168.08-4.9L168.08-4.9Q168.08-3.4 168.48-2.75 168.88-2.1 169.83-2.1L169.83-2.1 171.58-2.2 171.68-2 171.28 0.15Q167.98 0 166.83 0L166.83 0Q165.13 0 161.68 0.6L161.68 0.6ZM174.33 12.05Q173.93 12.05 173.03 10.88 172.13 9.7 172.13 9.2L172.13 9.2 172.38 8.85Q175.18 8.85 177.61 6.53 180.03 4.2 181.78 0L181.78 0Q177.93-12.2 175.58-18.4L175.58-18.4Q175.13-19.65 174.31-20.2 173.48-20.75 172.18-20.8L172.18-20.8 172.08-21 172.38-22.65 176.53-22.6Q178.38-22.6 180.21-22.75 182.03-22.9 182.53-22.95L182.53-22.95 182.63-22.7 182.33-21.15Q180.63-21.1 180.06-20.83 179.48-20.55 179.48-19.85L179.48-19.85Q179.48-19.05 180.46-15.7 181.43-12.35 182.48-9.03 183.53-5.7 183.88-4.7L183.88-4.7 184.08-4.7Q189.83-18.45 189.83-19.65L189.83-19.65Q189.83-20.95 187.93-20.95L187.93-20.95 185.63-20.95 185.53-21.15 185.83-22.8Q186.28-22.75 187.83-22.68 189.38-22.6 190.93-22.6L190.93-22.6 195.18-22.65 194.83-20.8Q193.73-20.6 193.16-20.03 192.58-19.45 192.03-17.95L192.03-17.95 185.68-2.75Q183.08 3.55 181.43 6.6 179.78 9.65 178.18 10.88 176.58 12.1 174.33 12.05L174.33 12.05Z" opacity="1" transform="matrix(1,0,0,1,0,0)" fill="#000000" class="wordmark-text-0" data-fill-palette-color="primary" id="text-0"></path></svg></g></svg></g><g transform="matrix(1,0,0,1,0,124.9611998268392)"><svg viewBox="0 0 395.52000000000004 24.039435709402774" height="24.039435709402774" width="395.52000000000004"><g transform="matrix(1,0,0,1,0,0)"><svg width="395.52000000000004" viewBox="1.2 -38.85 804.55 48.900000000000006" height="24.039435709402774" data-palette-color="#ffffff"><path d="M25.2-34.25L25.2-34.25 23.25-29.8Q21.2-30.55 19.18-31 17.15-31.45 15.3-31.45L15.3-31.45Q12.15-31.45 10.28-30.15 8.4-28.85 8.4-26.85L8.4-26.85Q8.4-25.15 9.75-24.13 11.1-23.1 13.1-22.28 15.1-21.45 17.45-20.63 19.8-19.8 21.8-18.5 23.8-17.2 25.15-15.23 26.5-13.25 26.5-10.15L26.5-10.15Q26.5-7.75 25.63-5.83 24.75-3.9 23.03-2.5 21.3-1.1 18.73-0.35 16.15 0.4 12.7 0.4L12.7 0.4Q10.5 0.4 8.72 0.1 6.95-0.2 5.53-0.68 4.1-1.15 3.03-1.7 1.95-2.25 1.2-2.7L1.2-2.7 3.6-7.45Q5.6-6.3 8.05-5.6 10.5-4.9 12.5-4.9L12.5-4.9Q13.5-4.9 14.98-5.15 16.45-5.4 17.8-6.03 19.15-6.65 20.13-7.7 21.1-8.75 21.1-10.35L21.1-10.35Q21.1-11.8 20.33-12.83 19.55-13.85 18.28-14.63 17-15.4 15.38-16.03 13.75-16.65 12.05-17.32 10.35-18 8.72-18.75 7.1-19.5 5.83-20.58 4.55-21.65 3.78-23.08 3-24.5 3-26.5L3-26.5Q3-28.35 3.75-30.15 4.5-31.95 6-33.35 7.5-34.75 9.73-35.6 11.95-36.45 14.9-36.45L14.9-36.45Q16.7-36.45 18.43-36.15 20.15-35.85 21.55-35.48 22.95-35.1 23.93-34.75 24.9-34.4 25.2-34.25ZM29.55-10.5L29.55-10.5Q29.55-12.75 30.43-14.75 31.3-16.75 32.8-18.23 34.3-19.7 36.33-20.58 38.35-21.45 40.7-21.45L40.7-21.45Q43.05-21.45 45.08-20.58 47.1-19.7 48.58-18.23 50.05-16.75 50.88-14.75 51.7-12.75 51.7-10.5L51.7-10.5Q51.7-8.25 50.88-6.25 50.05-4.25 48.58-2.75 47.1-1.25 45.08-0.38 43.05 0.5 40.65 0.5L40.65 0.5Q38.35 0.5 36.33-0.3 34.3-1.1 32.8-2.55 31.3-4 30.43-6.03 29.55-8.05 29.55-10.5ZM33.8-10.45L33.8-10.45Q33.8-9.05 34.33-7.83 34.85-6.6 35.78-5.68 36.7-4.75 37.93-4.23 39.15-3.7 40.55-3.7L40.55-3.7Q41.95-3.7 43.2-4.23 44.45-4.75 45.38-5.68 46.3-6.6 46.85-7.83 47.4-9.05 47.4-10.45L47.4-10.45Q47.4-11.85 46.85-13.1 46.3-14.35 45.38-15.28 44.45-16.2 43.2-16.73 41.95-17.25 40.55-17.25L40.55-17.25Q39.15-17.25 37.93-16.73 36.7-16.2 35.78-15.28 34.85-14.35 34.33-13.1 33.8-11.85 33.8-10.45ZM75.7-20.9L75.7 0.45 72.1 0.45 71.6-5.35Q70.45-2.8 68.38-1.15 66.3 0.5 63.1 0.5L63.1 0.5Q59.9 0.5 58.02-1.23 56.15-2.95 56.05-5.75L56.05-5.75 56.05-20.9 60.3-20.9 60.3-7.65Q60.4-6.1 61.42-5 62.45-3.9 64.6-3.75L64.6-3.75Q66.1-3.75 67.35-4.28 68.6-4.8 69.5-5.7 70.4-6.6 70.9-7.85 71.4-9.1 71.4-10.6L71.4-10.6 71.4-20.9 75.7-20.9ZM94.15-21.45L93.2-15.95Q91.8-15.95 90.5-15.58 89.2-15.2 88.17-14.45 87.15-13.7 86.55-12.58 85.95-11.45 85.95-10L85.95-10 85.95 0 81.7 0 81.7-20.9 85.45-20.9Q85.55-19.35 85.63-18.07 85.7-16.8 85.8-15.55L85.8-15.55Q86.45-16.9 87.5-18 88.55-19.1 89.75-19.85 90.95-20.6 92.1-21.03 93.25-21.45 94.15-21.45L94.15-21.45ZM110.85-5.15L110.85-5.15Q111.55-4.3 112.17-3.53 112.8-2.75 113.45-1.9L113.45-1.9Q112.05-0.8 110.3-0.15 108.55 0.5 106.5 0.5L106.5 0.5Q104.2 0.5 102.17-0.38 100.15-1.25 98.65-2.75 97.15-4.25 96.27-6.25 95.4-8.25 95.4-10.5L95.4-10.5Q95.4-12.75 96.27-14.75 97.15-16.75 98.65-18.23 100.15-19.7 102.17-20.58 104.2-21.45 106.5-21.45L106.5-21.45Q108.6-21.45 110.38-20.8 112.15-20.15 113.6-19.05L113.6-19.05 110.85-15.8Q110-16.5 108.9-16.88 107.8-17.25 106.5-17.25L106.5-17.25Q105-17.25 103.75-16.73 102.5-16.2 101.57-15.3 100.65-14.4 100.15-13.18 99.65-11.95 99.65-10.5L99.65-10.5Q99.65-9.05 100.15-7.83 100.65-6.6 101.57-5.68 102.5-4.75 103.75-4.23 105-3.7 106.5-3.7L106.5-3.7Q107.8-3.7 108.9-4.08 110-4.45 110.85-5.15ZM117.1-28.9L117.1-28.9Q117.1-30.1 117.97-30.9 118.85-31.7 119.85-31.7L119.85-31.7Q120.85-31.7 121.7-30.9 122.55-30.1 122.55-28.9L122.55-28.9Q122.55-27.7 121.7-26.93 120.85-26.15 119.85-26.15L119.85-26.15Q118.85-26.15 117.97-26.93 117.1-27.7 117.1-28.9ZM121.9-20.9L121.9 0 117.65 0 117.65-20.9 121.9-20.9ZM127.9 0L127.9-20.9 131.65-20.9Q131.75-19.35 131.82-18.07 131.9-16.8 132-15.55L132-15.55Q133.15-18.25 135.27-19.85 137.4-21.45 140.5-21.45L140.5-21.45Q143.65-21.45 145.55-19.7 147.45-17.95 147.55-15.2L147.55-15.2 147.55 0 143.25 0 143.25-13.25Q143.15-14.85 142.15-15.98 141.15-17.1 139-17.2L139-17.2Q137.5-17.2 136.25-16.68 135-16.15 134.1-15.25 133.2-14.35 132.67-13.1 132.15-11.85 132.15-10.35L132.15-10.35 132.15 0 127.9 0ZM151.95-10.4L151.95-10.4Q151.95-12.75 152.8-14.78 153.65-16.8 155.1-18.28 156.55-19.75 158.5-20.6 160.45-21.45 162.65-21.45L162.65-21.45Q164.35-21.45 165.67-21 167-20.55 167.9-19.95 168.8-19.35 169.32-18.78 169.85-18.2 170-17.95L170-17.95Q170-18.65 170.1-19.43 170.2-20.2 170.2-20.9L170.2-20.9 174.3-20.9 174.3-0.95Q174.3 4.25 171.25 7.15 168.2 10.05 163 10.05L163 10.05Q161.2 10.05 159.78 9.68 158.35 9.3 157.17 8.7 156 8.1 155.03 7.3 154.05 6.5 153.1 5.65L153.1 5.65 155.85 2.75Q157.4 4.2 159.03 5.05 160.65 5.9 162.9 5.9L162.9 5.9Q166.25 5.9 168.1 4.3 169.95 2.7 170-0.15L170-0.15 170-1.6Q170-2 170.1-2.48 170.2-2.95 170.2-3.2L170.2-3.2Q169.75-2.6 169.07-1.93 168.4-1.25 167.5-0.73 166.6-0.2 165.4 0.15 164.2 0.5 162.7 0.5L162.7 0.5Q160.35 0.5 158.4-0.35 156.45-1.2 155-2.68 153.55-4.15 152.75-6.13 151.95-8.1 151.95-10.4ZM156.25-10.5L156.25-10.5Q156.25-9.05 156.78-7.8 157.3-6.55 158.2-5.65 159.1-4.75 160.35-4.23 161.6-3.7 163.1-3.7L163.1-3.7Q164.6-3.7 165.88-4.23 167.15-4.75 168.07-5.68 169-6.6 169.5-7.83 170-9.05 170-10.5L170-10.5Q170-11.95 169.5-13.18 169-14.4 168.07-15.3 167.15-16.2 165.88-16.73 164.6-17.25 163.1-17.25L163.1-17.25Q161.6-17.25 160.35-16.73 159.1-16.2 158.2-15.3 157.3-14.4 156.78-13.18 156.25-11.95 156.25-10.5ZM209-34.25L209-34.25 207.05-29.8Q205-30.55 202.98-31 200.95-31.45 199.1-31.45L199.1-31.45Q195.95-31.45 194.08-30.15 192.2-28.85 192.2-26.85L192.2-26.85Q192.2-25.15 193.55-24.13 194.9-23.1 196.9-22.28 198.9-21.45 201.25-20.63 203.6-19.8 205.6-18.5 207.6-17.2 208.95-15.23 210.3-13.25 210.3-10.15L210.3-10.15Q210.3-7.75 209.43-5.83 208.55-3.9 206.83-2.5 205.1-1.1 202.53-0.35 199.95 0.4 196.5 0.4L196.5 0.4Q194.3 0.4 192.53 0.1 190.75-0.2 189.33-0.68 187.9-1.15 186.83-1.7 185.75-2.25 185-2.7L185-2.7 187.4-7.45Q189.4-6.3 191.85-5.6 194.3-4.9 196.3-4.9L196.3-4.9Q197.3-4.9 198.78-5.15 200.25-5.4 201.6-6.03 202.95-6.65 203.93-7.7 204.9-8.75 204.9-10.35L204.9-10.35Q204.9-11.8 204.13-12.83 203.35-13.85 202.08-14.63 200.8-15.4 199.18-16.03 197.55-16.65 195.85-17.32 194.15-18 192.53-18.75 190.9-19.5 189.63-20.58 188.35-21.65 187.58-23.08 186.8-24.5 186.8-26.5L186.8-26.5Q186.8-28.35 187.55-30.15 188.3-31.95 189.8-33.35 191.3-34.75 193.53-35.6 195.75-36.45 198.7-36.45L198.7-36.45Q200.5-36.45 202.23-36.15 203.95-35.85 205.35-35.48 206.75-35.1 207.73-34.75 208.7-34.4 209-34.25ZM234.1-20.9L234.1 0.45 230.5 0.45 230-5.35Q228.85-2.8 226.78-1.15 224.7 0.5 221.5 0.5L221.5 0.5Q218.3 0.5 216.43-1.23 214.55-2.95 214.45-5.75L214.45-5.75 214.45-20.9 218.7-20.9 218.7-7.65Q218.8-6.1 219.83-5 220.85-3.9 223-3.75L223-3.75Q224.5-3.75 225.75-4.28 227-4.8 227.9-5.7 228.8-6.6 229.3-7.85 229.8-9.1 229.8-10.6L229.8-10.6 229.8-20.9 234.1-20.9ZM251.75-19.05L251.75-19.05 249.5-16.05Q249.45-16.1 249.15-16.3 248.85-16.5 248.38-16.7 247.9-16.9 247.28-17.07 246.65-17.25 246-17.25L246-17.25Q245.15-17.25 244.33-16.85 243.5-16.45 243.5-15.35L243.5-15.35Q243.5-14.4 244.18-13.8 244.85-13.2 245.85-12.73 246.85-12.25 248.03-11.75 249.2-11.25 250.2-10.53 251.2-9.8 251.88-8.72 252.55-7.65 252.55-6L252.55-6Q252.55-3.2 250.63-1.38 248.7 0.45 245.35 0.45L245.35 0.45Q243.4 0.45 241.53-0.23 239.65-0.9 238.5-2.2L238.5-2.2Q238.85-2.55 239.28-3.1 239.7-3.65 240.13-4.15 240.55-4.65 240.83-4.98 241.1-5.3 241.15-5.3L241.15-5.3Q241.15-5.25 241.53-5 241.9-4.75 242.5-4.48 243.1-4.2 243.85-3.98 244.6-3.75 245.35-3.75L245.35-3.75Q246.55-3.75 247.4-4.35 248.25-4.95 248.25-5.95L248.25-5.95Q248.25-6.85 247.58-7.38 246.9-7.9 245.9-8.35 244.9-8.8 243.7-9.28 242.5-9.75 241.5-10.5 240.5-11.25 239.83-12.38 239.15-13.5 239.15-15.3L239.15-15.3Q239.15-17 239.78-18.15 240.4-19.3 241.38-20.03 242.35-20.75 243.55-21.08 244.75-21.4 245.85-21.4L245.85-21.4Q247.3-21.4 248.95-20.8 250.6-20.2 251.75-19.05ZM258.9-20.85L258.9-30.1 263.15-30.1 263.15-20.85 268.75-20.85 268.75-17.05 263.15-17.05 263.15 0 258.9 0 258.9-17.05 255.15-17.05 255.15-20.85 258.9-20.85ZM270.4-10.25L270.4-10.25Q270.4-12.55 271.28-14.58 272.15-16.6 273.65-18.13 275.15-19.65 277.13-20.55 279.1-21.45 281.35-21.45L281.35-21.45Q282.85-21.45 284.1-21.08 285.35-20.7 286.25-20.15 287.15-19.6 287.7-19 288.25-18.4 288.45-17.95L288.45-17.95 288.65-20.9 292.75-20.9 292.75 0 288.45 0 288.45-2.65Q288.2-2.25 287.65-1.7 287.1-1.15 286.23-0.68 285.35-0.2 284.15 0.15 282.95 0.5 281.4 0.5L281.4 0.5Q279 0.5 276.98-0.38 274.95-1.25 273.5-2.73 272.05-4.2 271.23-6.15 270.4-8.1 270.4-10.25ZM274.7-10.5L274.7-10.5Q274.7-9.05 275.23-7.8 275.75-6.55 276.65-5.65 277.55-4.75 278.8-4.23 280.05-3.7 281.55-3.7L281.55-3.7Q283.05-3.7 284.33-4.23 285.6-4.75 286.53-5.68 287.45-6.6 287.95-7.83 288.45-9.05 288.45-10.5L288.45-10.5Q288.45-11.95 287.95-13.18 287.45-14.4 286.53-15.3 285.6-16.2 284.33-16.73 283.05-17.25 281.55-17.25L281.55-17.25Q280.05-17.25 278.8-16.73 277.55-16.2 276.65-15.3 275.75-14.4 275.23-13.18 274.7-11.95 274.7-10.5ZM298.2-28.9L298.2-28.9Q298.2-30.1 299.07-30.9 299.95-31.7 300.95-31.7L300.95-31.7Q301.95-31.7 302.8-30.9 303.65-30.1 303.65-28.9L303.65-28.9Q303.65-27.7 302.8-26.93 301.95-26.15 300.95-26.15L300.95-26.15Q299.95-26.15 299.07-26.93 298.2-27.7 298.2-28.9ZM303-20.9L303 0 298.75 0 298.75-20.9 303-20.9ZM309 0L309-20.9 312.75-20.9Q312.85-19.35 312.93-18.07 313-16.8 313.1-15.55L313.1-15.55Q314.25-18.25 316.38-19.85 318.5-21.45 321.6-21.45L321.6-21.45Q324.75-21.45 326.65-19.7 328.55-17.95 328.65-15.2L328.65-15.2 328.65 0 324.35 0 324.35-13.25Q324.25-14.85 323.25-15.98 322.25-17.1 320.1-17.2L320.1-17.2Q318.6-17.2 317.35-16.68 316.1-16.15 315.2-15.25 314.3-14.35 313.77-13.1 313.25-11.85 313.25-10.35L313.25-10.35 313.25 0 309 0ZM333-10.25L333-10.25Q333-12.55 333.88-14.58 334.75-16.6 336.25-18.13 337.75-19.65 339.72-20.55 341.7-21.45 343.95-21.45L343.95-21.45Q345.45-21.45 346.7-21.08 347.95-20.7 348.85-20.15 349.75-19.6 350.3-19 350.85-18.4 351.05-17.95L351.05-17.95 351.25-20.9 355.35-20.9 355.35 0 351.05 0 351.05-2.65Q350.8-2.25 350.25-1.7 349.7-1.15 348.82-0.68 347.95-0.2 346.75 0.15 345.55 0.5 344 0.5L344 0.5Q341.6 0.5 339.57-0.38 337.55-1.25 336.1-2.73 334.65-4.2 333.82-6.15 333-8.1 333-10.25ZM337.3-10.5L337.3-10.5Q337.3-9.05 337.82-7.8 338.35-6.55 339.25-5.65 340.15-4.75 341.4-4.23 342.65-3.7 344.15-3.7L344.15-3.7Q345.65-3.7 346.93-4.23 348.2-4.75 349.13-5.68 350.05-6.6 350.55-7.83 351.05-9.05 351.05-10.5L351.05-10.5Q351.05-11.95 350.55-13.18 350.05-14.4 349.13-15.3 348.2-16.2 346.93-16.73 345.65-17.25 344.15-17.25L344.15-17.25Q342.65-17.25 341.4-16.73 340.15-16.2 339.25-15.3 338.35-14.4 337.82-13.18 337.3-11.95 337.3-10.5ZM383.7-10.4L383.7-10.4Q383.7-8.05 382.9-6.05 382.1-4.05 380.65-2.6 379.2-1.15 377.17-0.33 375.15 0.5 372.75 0.5L372.75 0.5Q371.5 0.5 370.37 0.23 369.25-0.05 368.3-0.53 367.35-1 366.65-1.58 365.95-2.15 365.6-2.75L365.6-2.75Q365.6-2.5 365.62-2.23 365.65-1.95 365.65-1.7L365.65-1.7 365.65 0 361.35 0 361.35-38.85 365.65-38.85 365.65-17.85Q366.05-18.45 366.72-19.07 367.4-19.7 368.32-20.23 369.25-20.75 370.4-21.1 371.55-21.45 372.95-21.45L372.95-21.45Q375.35-21.45 377.32-20.68 379.3-19.9 380.72-18.48 382.15-17.05 382.92-15 383.7-12.95 383.7-10.4ZM379.05-10.5L379.05-10.5Q379.05-11.95 378.6-13.18 378.15-14.4 377.3-15.3 376.45-16.2 375.25-16.73 374.05-17.25 372.55-17.25L372.55-17.25Q371.05-17.25 369.77-16.73 368.5-16.2 367.6-15.3 366.7-14.4 366.17-13.18 365.65-11.95 365.65-10.5L365.65-10.5Q365.65-9.05 366.17-7.8 366.7-6.55 367.6-5.65 368.5-4.75 369.77-4.23 371.05-3.7 372.55-3.7L372.55-3.7Q374.05-3.7 375.25-4.23 376.45-4.75 377.3-5.68 378.15-6.6 378.6-7.83 379.05-9.05 379.05-10.5ZM392.65-38.85L392.65 0 388.4 0 388.4-38.85 392.65-38.85ZM419.35-20.9L404.45 10.05 400.15 10.05Q400.85 8.6 401.47 7.28 402.1 5.95 402.72 4.58 403.35 3.2 404 1.73 404.65 0.25 405.45-1.45L405.45-1.45Q404.3-3.7 403.1-6.18 401.9-8.65 400.7-11.15 399.5-13.65 398.32-16.15 397.15-18.65 396-20.9L396-20.9 400.65-20.9Q402.45-17.35 403.63-14.9 404.8-12.45 405.57-10.68 406.35-8.9 406.82-7.65 407.3-6.4 407.65-5.35L407.65-5.35Q408.05-6.4 408.52-7.65 409-8.9 409.77-10.68 410.55-12.45 411.72-14.9 412.9-17.35 414.7-20.9L414.7-20.9 419.35-20.9ZM421.9-4.35L426.5-4.35 422.1 6.05 418 6.05Q419 3.45 419.95 0.88 420.9-1.7 421.9-4.35L421.9-4.35ZM461.5-34.25L461.5-34.25 459.55-29.8Q457.5-30.55 455.48-31 453.45-31.45 451.6-31.45L451.6-31.45Q448.45-31.45 446.57-30.15 444.7-28.85 444.7-26.85L444.7-26.85Q444.7-25.15 446.05-24.13 447.4-23.1 449.4-22.28 451.4-21.45 453.75-20.63 456.1-19.8 458.1-18.5 460.1-17.2 461.45-15.23 462.8-13.25 462.8-10.15L462.8-10.15Q462.8-7.75 461.93-5.83 461.05-3.9 459.32-2.5 457.6-1.1 455.03-0.35 452.45 0.4 449 0.4L449 0.4Q446.8 0.4 445.03 0.1 443.25-0.2 441.82-0.68 440.4-1.15 439.32-1.7 438.25-2.25 437.5-2.7L437.5-2.7 439.9-7.45Q441.9-6.3 444.35-5.6 446.8-4.9 448.8-4.9L448.8-4.9Q449.8-4.9 451.28-5.15 452.75-5.4 454.1-6.03 455.45-6.65 456.43-7.7 457.4-8.75 457.4-10.35L457.4-10.35Q457.4-11.8 456.63-12.83 455.85-13.85 454.57-14.63 453.3-15.4 451.68-16.03 450.05-16.65 448.35-17.32 446.65-18 445.03-18.75 443.4-19.5 442.13-20.58 440.85-21.65 440.07-23.08 439.3-24.5 439.3-26.5L439.3-26.5Q439.3-28.35 440.05-30.15 440.8-31.95 442.3-33.35 443.8-34.75 446.03-35.6 448.25-36.45 451.2-36.45L451.2-36.45Q453-36.45 454.73-36.15 456.45-35.85 457.85-35.48 459.25-35.1 460.23-34.75 461.2-34.4 461.5-34.25ZM481.8-5.55L485-2.45Q483.5-1.1 481.35-0.3 479.2 0.5 476.95 0.5L476.95 0.5Q474.65 0.5 472.63-0.38 470.6-1.25 469.1-2.73 467.6-4.2 466.73-6.2 465.85-8.2 465.85-10.45L465.85-10.45Q465.85-12.7 466.73-14.7 467.6-16.7 469.1-18.2 470.6-19.7 472.57-20.58 474.55-21.45 476.8-21.45L476.8-21.45Q480.35-21.45 482.98-19.33 485.6-17.2 486.75-13.75L486.75-13.75Q485.2-13.2 483.2-12.4 481.2-11.6 479.05-10.73 476.9-9.85 474.75-9 472.6-8.15 470.75-7.45L470.75-7.45Q471.6-5.75 473.23-4.73 474.85-3.7 476.85-3.7L476.85-3.7Q478.2-3.7 479.57-4.2 480.95-4.7 481.8-5.55L481.8-5.55ZM481.4-14.75L481.4-14.75Q480.8-16 479.5-16.63 478.2-17.25 476.85-17.25L476.85-17.25Q475.4-17.25 474.18-16.7 472.95-16.15 472.05-15.23 471.15-14.3 470.63-13.1 470.1-11.9 470.1-10.65L470.1-10.65Q470.1-10.4 470.13-10.3 470.15-10.2 470.15-10.15L470.15-10.15Q471.45-10.65 472.98-11.28 474.5-11.9 476-12.53 477.5-13.15 478.9-13.73 480.3-14.3 481.4-14.75ZM502.9-21.45L501.95-15.95Q500.55-15.95 499.25-15.58 497.95-15.2 496.93-14.45 495.9-13.7 495.3-12.58 494.7-11.45 494.7-10L494.7-10 494.7 0 490.45 0 490.45-20.9 494.2-20.9Q494.3-19.35 494.38-18.07 494.45-16.8 494.55-15.55L494.55-15.55Q495.2-16.9 496.25-18 497.3-19.1 498.5-19.85 499.7-20.6 500.85-21.03 502-21.45 502.9-21.45L502.9-21.45ZM514.15 1.25L514.15 1.25Q511.2-4.35 508.63-9.83 506.05-15.3 503.2-20.9L503.2-20.9 507.85-20.9Q509.65-17.35 510.73-15.1 511.8-12.85 512.45-11.35 513.1-9.85 513.45-8.83 513.8-7.8 514.15-6.75L514.15-6.75Q514.55-7.8 514.92-8.83 515.3-9.85 515.92-11.35 516.55-12.85 517.63-15.1 518.7-17.35 520.5-20.9L520.5-20.9 525.15-20.9Q522.3-15.3 519.65-9.83 517-4.35 514.15 1.25ZM527.7-28.9L527.7-28.9Q527.7-30.1 528.58-30.9 529.45-31.7 530.45-31.7L530.45-31.7Q531.45-31.7 532.3-30.9 533.15-30.1 533.15-28.9L533.15-28.9Q533.15-27.7 532.3-26.93 531.45-26.15 530.45-26.15L530.45-26.15Q529.45-26.15 528.58-26.93 527.7-27.7 527.7-28.9ZM532.5-20.9L532.5 0 528.25 0 528.25-20.9 532.5-20.9ZM538.5 0L538.5-20.9 542.25-20.9Q542.35-19.35 542.42-18.07 542.5-16.8 542.6-15.55L542.6-15.55Q543.75-18.25 545.88-19.85 548-21.45 551.1-21.45L551.1-21.45Q554.25-21.45 556.15-19.7 558.05-17.95 558.15-15.2L558.15-15.2 558.15 0 553.85 0 553.85-13.25Q553.75-14.85 552.75-15.98 551.75-17.1 549.6-17.2L549.6-17.2Q548.1-17.2 546.85-16.68 545.6-16.15 544.7-15.25 543.8-14.35 543.27-13.1 542.75-11.85 542.75-10.35L542.75-10.35 542.75 0 538.5 0ZM562.55-10.4L562.55-10.4Q562.55-12.75 563.4-14.78 564.25-16.8 565.7-18.28 567.15-19.75 569.1-20.6 571.05-21.45 573.25-21.45L573.25-21.45Q574.95-21.45 576.28-21 577.6-20.55 578.5-19.95 579.4-19.35 579.93-18.78 580.45-18.2 580.6-17.95L580.6-17.95Q580.6-18.65 580.7-19.43 580.8-20.2 580.8-20.9L580.8-20.9 584.9-20.9 584.9-0.95Q584.9 4.25 581.85 7.15 578.8 10.05 573.6 10.05L573.6 10.05Q571.8 10.05 570.38 9.68 568.95 9.3 567.78 8.7 566.6 8.1 565.63 7.3 564.65 6.5 563.7 5.65L563.7 5.65 566.45 2.75Q568 4.2 569.63 5.05 571.25 5.9 573.5 5.9L573.5 5.9Q576.85 5.9 578.7 4.3 580.55 2.7 580.6-0.15L580.6-0.15 580.6-1.6Q580.6-2 580.7-2.48 580.8-2.95 580.8-3.2L580.8-3.2Q580.35-2.6 579.68-1.93 579-1.25 578.1-0.73 577.2-0.2 576 0.15 574.8 0.5 573.3 0.5L573.3 0.5Q570.95 0.5 569-0.35 567.05-1.2 565.6-2.68 564.15-4.15 563.35-6.13 562.55-8.1 562.55-10.4ZM566.85-10.5L566.85-10.5Q566.85-9.05 567.38-7.8 567.9-6.55 568.8-5.65 569.7-4.75 570.95-4.23 572.2-3.7 573.7-3.7L573.7-3.7Q575.2-3.7 576.48-4.23 577.75-4.75 578.68-5.68 579.6-6.6 580.1-7.83 580.6-9.05 580.6-10.5L580.6-10.5Q580.6-11.95 580.1-13.18 579.6-14.4 578.68-15.3 577.75-16.2 576.48-16.73 575.2-17.25 573.7-17.25L573.7-17.25Q572.2-17.25 570.95-16.73 569.7-16.2 568.8-15.3 567.9-14.4 567.38-13.18 566.85-11.95 566.85-10.5ZM598.85 0L598.85-36.25 607.95-36.25Q613.45-36.25 617.25-34.6 621.05-32.95 623.43-30.28 625.8-27.6 626.88-24.28 627.95-20.95 627.95-17.65L627.95-17.65Q627.95-13.6 626.5-10.33 625.05-7.05 622.55-4.75 620.05-2.45 616.75-1.23 613.45 0 609.75 0L609.75 0 598.85 0ZM604.3-5.2L608.95-5.2Q611.85-5.2 614.33-6.05 616.8-6.9 618.63-8.53 620.45-10.15 621.48-12.53 622.5-14.9 622.5-18L622.5-18Q622.5-21.3 621.35-23.75 620.2-26.2 618.35-27.83 616.5-29.45 614.18-30.23 611.85-31 609.45-31L609.45-31 604.3-31 604.3-5.2ZM646.75-5.55L649.95-2.45Q648.45-1.1 646.3-0.3 644.15 0.5 641.9 0.5L641.9 0.5Q639.6 0.5 637.58-0.38 635.55-1.25 634.05-2.73 632.55-4.2 631.67-6.2 630.8-8.2 630.8-10.45L630.8-10.45Q630.8-12.7 631.67-14.7 632.55-16.7 634.05-18.2 635.55-19.7 637.52-20.58 639.5-21.45 641.75-21.45L641.75-21.45Q645.3-21.45 647.92-19.33 650.55-17.2 651.7-13.75L651.7-13.75Q650.15-13.2 648.15-12.4 646.15-11.6 644-10.73 641.85-9.85 639.7-9 637.55-8.15 635.7-7.45L635.7-7.45Q636.55-5.75 638.17-4.73 639.8-3.7 641.8-3.7L641.8-3.7Q643.15-3.7 644.52-4.2 645.9-4.7 646.75-5.55L646.75-5.55ZM646.35-14.75L646.35-14.75Q645.75-16 644.45-16.63 643.15-17.25 641.8-17.25L641.8-17.25Q640.35-17.25 639.13-16.7 637.9-16.15 637-15.23 636.1-14.3 635.58-13.1 635.05-11.9 635.05-10.65L635.05-10.65Q635.05-10.4 635.08-10.3 635.1-10.2 635.1-10.15L635.1-10.15Q636.4-10.65 637.92-11.28 639.45-11.9 640.95-12.53 642.45-13.15 643.85-13.73 645.25-14.3 646.35-14.75ZM659.7-38.85L659.7 0 655.45 0 655.45-38.85 659.7-38.85ZM665.2-28.9L665.2-28.9Q665.2-30.1 666.08-30.9 666.95-31.7 667.95-31.7L667.95-31.7Q668.95-31.7 669.8-30.9 670.65-30.1 670.65-28.9L670.65-28.9Q670.65-27.7 669.8-26.93 668.95-26.15 667.95-26.15L667.95-26.15Q666.95-26.15 666.08-26.93 665.2-27.7 665.2-28.9ZM670-20.9L670 0 665.75 0 665.75-20.9 670-20.9ZM690-5.15L690-5.15Q690.7-4.3 691.33-3.53 691.95-2.75 692.6-1.9L692.6-1.9Q691.2-0.8 689.45-0.15 687.7 0.5 685.65 0.5L685.65 0.5Q683.35 0.5 681.33-0.38 679.3-1.25 677.8-2.75 676.3-4.25 675.42-6.25 674.55-8.25 674.55-10.5L674.55-10.5Q674.55-12.75 675.42-14.75 676.3-16.75 677.8-18.23 679.3-19.7 681.33-20.58 683.35-21.45 685.65-21.45L685.65-21.45Q687.75-21.45 689.52-20.8 691.3-20.15 692.75-19.05L692.75-19.05 690-15.8Q689.15-16.5 688.05-16.88 686.95-17.25 685.65-17.25L685.65-17.25Q684.15-17.25 682.9-16.73 681.65-16.2 680.73-15.3 679.8-14.4 679.3-13.18 678.8-11.95 678.8-10.5L678.8-10.5Q678.8-9.05 679.3-7.83 679.8-6.6 680.73-5.68 681.65-4.75 682.9-4.23 684.15-3.7 685.65-3.7L685.65-3.7Q686.95-3.7 688.05-4.08 689.15-4.45 690-5.15ZM696.25-28.9L696.25-28.9Q696.25-30.1 697.13-30.9 698-31.7 699-31.7L699-31.7Q700-31.7 700.85-30.9 701.7-30.1 701.7-28.9L701.7-28.9Q701.7-27.7 700.85-26.93 700-26.15 699-26.15L699-26.15Q698-26.15 697.13-26.93 696.25-27.7 696.25-28.9ZM701.05-20.9L701.05 0 696.8 0 696.8-20.9 701.05-20.9ZM705.6-10.5L705.6-10.5Q705.6-12.75 706.47-14.75 707.35-16.75 708.85-18.23 710.35-19.7 712.38-20.58 714.4-21.45 716.75-21.45L716.75-21.45Q719.1-21.45 721.13-20.58 723.15-19.7 724.63-18.23 726.1-16.75 726.92-14.75 727.75-12.75 727.75-10.5L727.75-10.5Q727.75-8.25 726.92-6.25 726.1-4.25 724.63-2.75 723.15-1.25 721.13-0.38 719.1 0.5 716.7 0.5L716.7 0.5Q714.4 0.5 712.38-0.3 710.35-1.1 708.85-2.55 707.35-4 706.47-6.03 705.6-8.05 705.6-10.5ZM709.85-10.45L709.85-10.45Q709.85-9.05 710.38-7.83 710.9-6.6 711.82-5.68 712.75-4.75 713.97-4.23 715.2-3.7 716.6-3.7L716.6-3.7Q718-3.7 719.25-4.23 720.5-4.75 721.42-5.68 722.35-6.6 722.9-7.83 723.45-9.05 723.45-10.45L723.45-10.45Q723.45-11.85 722.9-13.1 722.35-14.35 721.42-15.28 720.5-16.2 719.25-16.73 718-17.25 716.6-17.25L716.6-17.25Q715.2-17.25 713.97-16.73 712.75-16.2 711.82-15.28 710.9-14.35 710.38-13.1 709.85-11.85 709.85-10.45ZM751.75-20.9L751.75 0.45 748.15 0.45 747.65-5.35Q746.5-2.8 744.42-1.15 742.35 0.5 739.15 0.5L739.15 0.5Q735.95 0.5 734.07-1.23 732.2-2.95 732.1-5.75L732.1-5.75 732.1-20.9 736.35-20.9 736.35-7.65Q736.45-6.1 737.47-5 738.5-3.9 740.65-3.75L740.65-3.75Q742.15-3.75 743.4-4.28 744.65-4.8 745.55-5.7 746.45-6.6 746.95-7.85 747.45-9.1 747.45-10.6L747.45-10.6 747.45-20.9 751.75-20.9ZM769.4-19.05L769.4-19.05 767.15-16.05Q767.1-16.1 766.8-16.3 766.5-16.5 766.02-16.7 765.55-16.9 764.92-17.07 764.3-17.25 763.65-17.25L763.65-17.25Q762.8-17.25 761.98-16.85 761.15-16.45 761.15-15.35L761.15-15.35Q761.15-14.4 761.83-13.8 762.5-13.2 763.5-12.73 764.5-12.25 765.67-11.75 766.85-11.25 767.85-10.53 768.85-9.8 769.52-8.72 770.2-7.65 770.2-6L770.2-6Q770.2-3.2 768.27-1.38 766.35 0.45 763 0.45L763 0.45Q761.05 0.45 759.17-0.23 757.3-0.9 756.15-2.2L756.15-2.2Q756.5-2.55 756.92-3.1 757.35-3.65 757.77-4.15 758.2-4.65 758.48-4.98 758.75-5.3 758.8-5.3L758.8-5.3Q758.8-5.25 759.17-5 759.55-4.75 760.15-4.48 760.75-4.2 761.5-3.98 762.25-3.75 763-3.75L763-3.75Q764.2-3.75 765.05-4.35 765.9-4.95 765.9-5.95L765.9-5.95Q765.9-6.85 765.23-7.38 764.55-7.9 763.55-8.35 762.55-8.8 761.35-9.28 760.15-9.75 759.15-10.5 758.15-11.25 757.48-12.38 756.8-13.5 756.8-15.3L756.8-15.3Q756.8-17 757.42-18.15 758.05-19.3 759.02-20.03 760-20.75 761.2-21.08 762.4-21.4 763.5-21.4L763.5-21.4Q764.95-21.4 766.6-20.8 768.25-20.2 769.4-19.05ZM779.05-38.85L779.05 0 774.8 0 774.8-38.85 779.05-38.85ZM805.75-20.9L790.85 10.05 786.55 10.05Q787.25 8.6 787.88 7.28 788.5 5.95 789.13 4.58 789.75 3.2 790.4 1.73 791.05 0.25 791.85-1.45L791.85-1.45Q790.7-3.7 789.5-6.18 788.3-8.65 787.1-11.15 785.9-13.65 784.73-16.15 783.55-18.65 782.4-20.9L782.4-20.9 787.05-20.9Q788.85-17.35 790.02-14.9 791.2-12.45 791.98-10.68 792.75-8.9 793.23-7.65 793.7-6.4 794.05-5.35L794.05-5.35Q794.45-6.4 794.93-7.65 795.4-8.9 796.18-10.68 796.95-12.45 798.13-14.9 799.3-17.35 801.1-20.9L801.1-20.9 805.75-20.9Z" opacity="1" transform="matrix(1,0,0,1,0,0)" fill="#000000" class="slogan-text-1" data-fill-palette-color="secondary" id="text-1"></path></svg></g></svg></g></svg></g></svg></g><g transform="matrix(1,0,0,1,87.39954362893003,0)"><svg viewBox="0 0 220.72091274213997 220.72091274213997" height="220.72091274213997" width="220.72091274213997"><g><svg></svg></g><g id="icon-0"><svg viewBox="0 0 220.72091274213997 220.72091274213997" height="220.72091274213997" width="220.72091274213997"><g><path d="M0 110.36c0-60.95 49.41-110.36 110.36-110.36 60.95 0 110.36 49.41 110.361 110.36 0 60.95-49.41 110.36-110.361 110.361-60.95 0-110.36-49.41-110.36-110.361zM110.36 211.604c55.915 0 101.244-45.328 101.244-101.244 0-55.915-45.328-101.244-101.244-101.243-55.915 0-101.244 45.328-101.243 101.243 0 55.915 45.328 101.244 101.243 101.244z" data-fill-palette-color="accent" fill="#000000" stroke="transparent"></path><ellipse rx="109.25685180735928" ry="109.25685180735928" cx="110.36045637106999" cy="110.36045637106999" fill="#000000" stroke="transparent" stroke-width="0" fill-opacity="1" data-fill-palette-color="accent"></ellipse></g><g transform="matrix(1,0,0,1,52.56196194567376,51.90841729919952)"><svg viewBox="0 0 115.59698885079246 116.90407814374093" height="116.90407814374093" width="115.59698885079246"><g><svg xmlns="http://www.w3.org/2000/svg" xmlns:xlink="http://www.w3.org/1999/xlink" version="1.1" x="0" y="0" viewBox="4.8 2 502.3201180714894 508" enable-background="new 0 0 512 512" xml:space="preserve" height="116.90407814374093" width="115.59698885079246" class="icon-cg-0" data-fill-palette-color="quaternary" id="cg-0"><g fill="#096a2e" data-fill-palette-color="quaternary"><path d="M261 162.9c3 0 6-0.1 9-0.3l16.2-1.1c19.3 24.8 29.9 55.6 29.9 87.1v14.9 0.7h16.5v-0.7-14.9-25.4c0-15.2 4.8-30 13.7-42.3l18.7 1.2c3.4 0.2 6.8 0.3 10.1 0.3h0c38 0 72.5-14.5 97.1-40.8 24.9-26.6 37.1-62.6 34.6-101.4l-2.4-36.7-11.6 7c-13.5 8.1-32.1 10-51.9 12.1-49.3 5.1-110.8 11.5-108.2 127l1.3 20c-5 6.7-9.1 14-12 21.8-5.7-14.7-13.6-28.6-23.5-41.2l1.2-17.7C301.8 29.8 247 24.1 202.9 19.5 185.5 17.7 169.1 16 157.3 9l-11.6-7-2.3 34c-2.3 34.6 8.7 66.8 30.8 90.5C196.2 150 227 162.9 261 162.9zM442.6 39.3c16.1-1.7 32.6-3.4 47-8.8l0.7 11c2.3 34.2-8.4 65.8-30.1 89-21.4 22.9-51.6 35.5-85.1 35.5h0c-3 0-6-0.1-9-0.3l-4.9-0.3L441 85.5l-11.7-11.7-79.9 79.9-0.3-4.6C347 49.2 393.4 44.4 442.6 39.3zM159.9 37.1l0.6-8.5c12.5 4.5 26.8 5.9 40.7 7.4 43.1 4.5 83.8 8.7 81.9 96l-0.2 2.3L213.7 65 202 76.7l69.3 69.3-2.3 0.2c-32.7 2.2-62.1-9-82.6-30.9C167.3 94.9 157.9 67.1 159.9 37.1z" fill="#ffffff" data-fill-palette-color="quaternary"></path><path d="M105.9 339.6c17.1-16.7 39.7-25.9 63.6-25.9h130.6c9.2 0 16.6 7.5 16.6 16.6 0 9.2-7.5 16.6-16.6 16.6h-45.5c-15.9 0-28.9 13-28.9 28.9s13 28.9 28.9 28.9h115l100.2-91.5c4.7-4.3 11.9-4.1 16.4 0.3 2.3 2.3 3.6 5.4 3.5 8.6 0 3.3-1.4 6.3-3.8 8.5l-88.3 82.4c-16.9 15.8-39 24.5-62.1 24.5H194.1c-27.7 0-54.1 10.5-74.2 29.6L87.6 498l11.4 12 32.3-30.8c17-16.2 39.3-25.1 62.7-25.1h141.4c27.3 0 53.4-10.3 73.4-28.9l88.3-82.4c5.7-5.3 8.9-12.6 9-20.4 0.1-7.8-2.9-15.1-8.4-20.6-10.8-10.7-28-11-39.2-0.8l-95.5 87.2H254.6c-6.8 0-12.3-5.5-12.3-12.3 0-6.8 5.5-12.3 12.3-12.3h45.5c18.3 0 33.2-14.9 33.2-33.2 0-18.3-14.9-33.2-33.2-33.2H169.5c-28.3 0-55 10.9-75.2 30.7L4.8 415.4l11.6 11.8L105.9 339.6z" fill="#ffffff" data-fill-palette-color="quaternary"></path></g></svg></g></svg></g></svg></g></svg></g><g></g></svg></g><defs></defs></svg><rect width="234.2116563861944" height="247.2" fill="none" stroke="none" visibility="hidden"></rect></g></svg></g></svg>