<svg width="37" height="39" viewBox="0 0 37 39" fill="none" xmlns="http://www.w3.org/2000/svg">
<g id="icon-0" clip-path="url(#clip0_2112_16834)">
<g id="Group">
<path id="Vector" d="M18.8718 12.2548C19.0932 12.2548 19.3145 12.2471 19.5358 12.2317L20.731 12.1473C22.1548 14.0513 22.9369 16.4159 22.9369 18.8343V19.9782V20.032H24.1541V19.9782V18.8343V16.8842C24.1541 15.7173 24.5083 14.581 25.1649 13.6367L26.5445 13.7288C26.7953 13.7442 27.0461 13.7519 27.2896 13.7519C30.0931 13.7519 32.6383 12.6386 34.4532 10.6195C36.2902 8.57726 37.1902 5.81339 37.0058 2.83454L36.8287 0.0169235L35.9729 0.554344C34.977 1.17622 33.6048 1.32209 32.144 1.48331C28.5069 1.87486 23.9697 2.36622 24.1615 11.2337L24.2574 12.7691C23.8886 13.2835 23.5861 13.844 23.3721 14.4428C22.9516 13.3142 22.3688 12.2471 21.6384 11.2797L21.7269 9.92081C21.8819 2.03609 17.839 1.59847 14.5855 1.24531C13.3018 1.10712 12.0919 0.976603 11.2213 0.439182L10.3655 -0.098238L10.1959 2.51209C10.0262 5.16848 10.8377 7.64061 12.4681 9.46017C14.0912 11.2644 16.3635 12.2548 18.8718 12.2548ZM32.2694 2.76544C33.4572 2.63493 34.6745 2.50441 35.7369 2.08983L35.7885 2.93435C35.9582 5.56003 35.1688 7.9861 33.5679 9.76726C31.9891 11.5254 29.7611 12.4928 27.2896 12.4928C27.0683 12.4928 26.8469 12.4851 26.6256 12.4697L26.2641 12.4467L32.1514 6.31242L31.2882 5.41416L25.3936 11.5484L25.3714 11.1953C25.2165 3.52551 28.6397 3.15699 32.2694 2.76544ZM11.4131 2.59654L11.4574 1.94396C12.3796 2.28944 13.4346 2.39693 14.4601 2.51209C17.6398 2.85757 20.6424 3.18003 20.5023 9.88242L20.4875 10.059L15.3823 4.73854L14.5191 5.6368L19.6317 10.9573L19.462 10.9726C17.0496 11.1415 14.8806 10.2817 13.3682 8.60029C11.9591 7.0341 11.2656 4.89977 11.4131 2.59654Z" fill="#096A2E"/>
<path id="Vector_2" d="M7.42927 25.8208C8.69082 24.5386 10.3581 23.8323 12.1214 23.8323H21.7564C22.4352 23.8323 22.9811 24.4081 22.9811 25.1068C22.9811 25.8131 22.4278 26.3812 21.7564 26.3812H18.3997C17.2266 26.3812 16.2676 27.3793 16.2676 28.6C16.2676 29.8207 17.2266 30.8188 18.3997 30.8188H26.8838L34.2761 23.7939C34.6229 23.4638 35.154 23.4792 35.486 23.817C35.6557 23.9935 35.7516 24.2315 35.7442 24.4772C35.7442 24.7306 35.641 24.9609 35.4639 25.1298L28.9495 31.456C27.7027 32.669 26.0723 33.337 24.3681 33.337H13.9363C11.8927 33.337 9.94501 34.1431 8.46212 35.6095L6.07918 37.9818L6.92022 38.9031L9.30316 36.5385C10.5573 35.2947 12.2025 34.6114 13.9289 34.6114H24.3607C26.3748 34.6114 28.3003 33.8207 29.7758 32.3927L36.2902 26.0665C36.7107 25.6596 36.9468 25.0991 36.9542 24.5003C36.9615 23.9014 36.7402 23.341 36.3344 22.9187C35.5377 22.0972 34.2687 22.0742 33.4424 22.8573L26.3969 29.552H18.3997C17.898 29.552 17.4922 29.1298 17.4922 28.6077C17.4922 28.0856 17.898 27.6634 18.3997 27.6634H21.7564C23.1065 27.6634 24.2058 26.5194 24.2058 25.1145C24.2058 23.7095 23.1065 22.5655 21.7564 22.5655H12.1214C10.0335 22.5655 8.06374 23.4024 6.57347 24.9225L-0.0294189 31.6403L0.826375 32.5462L7.42927 25.8208Z" fill="#096A2E"/>
</g>
</g>
<defs>
<clipPath id="clip0_2112_16834">
<rect width="37.0588" height="39.0014" fill="white" transform="translate(-0.0294189 -0.098238)"/>
</clipPath>
</defs>
</svg>
